<?xml version="1.0" encoding="utf-8" standalone="no"?>
<!DOCTYPE svg PUBLIC "-//W3C//DTD SVG 1.1//EN"
  "http://www.w3.org/Graphics/SVG/1.1/DTD/svg11.dtd">
<!-- Created with matplotlib (http://matplotlib.org/) -->
<svg height="354pt" version="1.1" viewBox="0 0 1035 354" width="1035pt" xmlns="http://www.w3.org/2000/svg" xmlns:xlink="http://www.w3.org/1999/xlink">
 <defs>
  <style type="text/css">
*{stroke-linecap:butt;stroke-linejoin:round;stroke-miterlimit:100000;}
  </style>
 </defs>
 <g id="figure_1">
  <g id="patch_1">
   <path d="M 0 354.4405 
L 1035.12 354.4405 
L 1035.12 0 
L 0 0 
z
" style="fill:#ffffff;"/>
  </g>
  <g id="axes_1">
   <g id="patch_2">
    <path d="M 23.52 311.14175 
L 673.425882 311.14175 
L 673.425882 23.14175 
L 23.52 23.14175 
z
" style="fill:#ffffff;"/>
   </g>
   <g id="PathCollection_1">
    <defs>
     <path d="M 0 7.071068 
C 1.875269 7.071068 3.673985 6.326016 5 5 
C 6.326016 3.673985 7.071068 1.875269 7.071068 0 
C 7.071068 -1.875269 6.326016 -3.673985 5 -5 
C 3.673985 -6.326016 1.875269 -7.071068 0 -7.071068 
C -1.875269 -7.071068 -3.673985 -6.326016 -5 -5 
C -6.326016 -3.673985 -7.071068 -1.875269 -7.071068 0 
C -7.071068 1.875269 -6.326016 3.673985 -5 5 
C -3.673985 6.326016 -1.875269 7.071068 0 7.071068 
z
" id="m753ee286f6" style="stroke:#000000;"/>
    </defs>
    <g clip-path="url(#p40ff105135)">
     <use style="stroke:#000000;" x="214.978759936" xlink:href="#m753ee286f6" y="47.1336147189"/>
    </g>
   </g>
   <g id="PathCollection_2">
    <g clip-path="url(#p40ff105135)">
     <use style="stroke:#000000;" x="84.9975834658" xlink:href="#m753ee286f6" y="287.149885281"/>
    </g>
   </g>
   <g id="PathCollection_3">
    <g clip-path="url(#p40ff105135)">
     <use style="stroke:#000000;" x="274.699841017" xlink:href="#m753ee286f6" y="87.4885719143"/>
    </g>
   </g>
   <g id="PathCollection_4">
    <g clip-path="url(#p40ff105135)">
     <use style="stroke:#000000;" x="251.865310016" xlink:href="#m753ee286f6" y="129.923944071"/>
    </g>
   </g>
   <g id="PathCollection_5">
    <g clip-path="url(#p40ff105135)">
     <use style="stroke:#000000;" x="320.368903021" xlink:href="#m753ee286f6" y="167.250166128"/>
    </g>
   </g>
   <g id="PathCollection_6">
    <g clip-path="url(#p40ff105135)">
     <use style="stroke:#000000;" x="548.714213037" xlink:href="#m753ee286f6" y="47.2048958119"/>
    </g>
   </g>
   <g id="PathCollection_7">
    <g clip-path="url(#p40ff105135)">
     <use style="stroke:#000000;" x="485.480127186" xlink:href="#m753ee286f6" y="87.5776691242"/>
    </g>
   </g>
   <g id="PathCollection_8">
    <g clip-path="url(#p40ff105135)">
     <use style="stroke:#000000;" x="418.733036566" xlink:href="#m753ee286f6" y="287.226403672"/>
    </g>
   </g>
   <g id="PathCollection_9">
    <g clip-path="url(#p40ff105135)">
     <use style="stroke:#000000;" x="506.558155803" xlink:href="#m753ee286f6" y="129.919202396"/>
    </g>
   </g>
   <g id="PathCollection_10">
    <g clip-path="url(#p40ff105135)">
     <use style="stroke:#000000;" x="654.104356121" xlink:href="#m753ee286f6" y="167.229277372"/>
    </g>
   </g>
   <g id="line2d_1">
    <path clip-path="url(#p40ff105135)" d="M 84.997583 287.149885 
L 87.650261 277.453268 
L 90.302938 267.956581 
L 92.955615 258.659824 
L 95.608292 249.562997 
L 98.260969 240.666101 
L 100.913646 231.969135 
L 103.566323 223.472099 
L 106.219 215.174994 
L 108.871677 207.077818 
L 111.524354 199.180573 
L 114.177031 191.483258 
L 116.829708 183.985874 
L 119.482385 176.68842 
L 122.135062 169.590896 
L 124.78774 162.693302 
L 127.440417 155.995638 
L 130.093094 149.497905 
L 132.745771 143.200102 
L 135.398448 137.102229 
L 138.051125 131.204287 
L 140.703802 125.506274 
L 143.356479 120.008192 
L 146.009156 114.710041 
L 148.661833 109.611819 
L 151.31451 104.713528 
L 153.967187 100.015167 
L 156.619864 95.516736 
L 159.272541 91.218236 
L 161.925219 87.119666 
L 164.577896 83.221026 
L 167.230573 79.522316 
L 169.88325 76.023536 
L 172.535927 72.724687 
L 175.188604 69.625768 
L 177.841281 66.72678 
L 180.493958 64.027721 
L 183.146635 61.528593 
L 185.799312 59.229395 
L 188.451989 57.130127 
L 191.104666 55.23079 
L 193.757343 53.531383 
L 196.41002 52.031906 
L 199.062698 50.732359 
L 201.715375 49.632743 
L 204.368052 48.733057 
L 207.020729 48.033301 
L 209.673406 47.533475 
L 212.326083 47.23358 
L 214.97876 47.133615 
" style="fill:none;stroke:#000000;stroke-linecap:square;stroke-width:3.0;"/>
   </g>
   <g id="line2d_2">
    <path clip-path="url(#p40ff105135)" d="M 274.699841 87.488572 
L 273.481043 85.858238 
L 272.262246 84.26152 
L 271.043448 82.698417 
L 269.824651 81.168928 
L 268.605853 79.673055 
L 267.387056 78.210797 
L 266.168258 76.782155 
L 264.94946 75.387127 
L 263.730663 74.025714 
L 262.511865 72.697917 
L 261.293068 71.403735 
L 260.07427 70.143168 
L 258.855473 68.916216 
L 257.636675 67.722879 
L 256.417877 66.563157 
L 255.19908 65.43705 
L 253.980282 64.344559 
L 252.761485 63.285682 
L 251.542687 62.260421 
L 250.32389 61.268775 
L 249.105092 60.310744 
L 247.886294 59.386328 
L 246.667497 58.495527 
L 245.448699 57.638341 
L 244.229902 56.814771 
L 243.011104 56.024815 
L 241.792307 55.268475 
L 240.573509 54.54575 
L 239.354711 53.85664 
L 238.135914 53.201145 
L 236.917116 52.579265 
L 235.698319 51.991 
L 234.479521 51.436351 
L 233.260724 50.915316 
L 232.041926 50.427897 
L 230.823128 49.974093 
L 229.604331 49.553904 
L 228.385533 49.16733 
L 227.166736 48.814371 
L 225.947938 48.495027 
L 224.729141 48.209299 
L 223.510343 47.957185 
L 222.291545 47.738687 
L 221.072748 47.553804 
L 219.85395 47.402536 
L 218.635153 47.284883 
L 217.416355 47.200845 
L 216.197558 47.150422 
L 214.97876 47.133615 
" style="fill:none;stroke:#000000;stroke-linecap:square;stroke-width:3.0;"/>
   </g>
   <g id="line2d_3">
    <path clip-path="url(#p40ff105135)" d="M 251.86531 129.923944 
L 252.331321 128.209562 
L 252.797332 126.530528 
L 253.263343 124.886842 
L 253.729353 123.278505 
L 254.195364 121.705515 
L 254.661375 120.167874 
L 255.127386 118.66558 
L 255.593397 117.198635 
L 256.059408 115.767037 
L 256.525418 114.370788 
L 256.991429 113.009887 
L 257.45744 111.684334 
L 257.923451 110.394129 
L 258.389462 109.139272 
L 258.855473 107.919763 
L 259.321483 106.735602 
L 259.787494 105.58679 
L 260.253505 104.473325 
L 260.719516 103.395209 
L 261.185527 102.35244 
L 261.651538 101.34502 
L 262.117548 100.372948 
L 262.583559 99.436224 
L 263.04957 98.534847 
L 263.515581 97.668819 
L 263.981592 96.83814 
L 264.447603 96.042808 
L 264.913613 95.282824 
L 265.379624 94.558188 
L 265.845635 93.868901 
L 266.311646 93.214961 
L 266.777657 92.59637 
L 267.243668 92.013126 
L 267.709678 91.465231 
L 268.175689 90.952684 
L 268.6417 90.475485 
L 269.107711 90.033634 
L 269.573722 89.627131 
L 270.039733 89.255976 
L 270.505743 88.920169 
L 270.971754 88.619711 
L 271.437765 88.3546 
L 271.903776 88.124837 
L 272.369787 87.930423 
L 272.835798 87.771357 
L 273.301809 87.647638 
L 273.767819 87.559268 
L 274.23383 87.506246 
L 274.699841 87.488572 
" style="fill:none;stroke:#000000;stroke-linecap:square;stroke-width:3.0;"/>
   </g>
   <g id="line2d_4">
    <path clip-path="url(#p40ff105135)" d="M 320.368903 167.250166 
L 319.436881 164.027811 
L 318.50486 160.871896 
L 317.572838 157.782422 
L 316.640816 154.759388 
L 315.708795 151.802794 
L 314.776773 148.91264 
L 313.844751 146.088927 
L 312.91273 143.331654 
L 311.980708 140.640821 
L 311.048686 138.016429 
L 310.116665 135.458477 
L 309.184643 132.966965 
L 308.252621 130.541894 
L 307.3206 128.183263 
L 306.388578 125.891072 
L 305.456556 123.665322 
L 304.524535 121.506012 
L 303.592513 119.413142 
L 302.660491 117.386712 
L 301.72847 115.426723 
L 300.796448 113.533174 
L 299.864426 111.706066 
L 298.932405 109.945397 
L 298.000383 108.251169 
L 297.068361 106.623382 
L 296.13634 105.062034 
L 295.204318 103.567127 
L 294.272296 102.138661 
L 293.340274 100.776634 
L 292.408253 99.481048 
L 291.476231 98.251902 
L 290.544209 97.089197 
L 289.612188 95.992932 
L 288.680166 94.963107 
L 287.748144 93.999722 
L 286.816123 93.102778 
L 285.884101 92.272274 
L 284.952079 91.508211 
L 284.020058 90.810588 
L 283.088036 90.179405 
L 282.156014 89.614662 
L 281.223993 89.11636 
L 280.291971 88.684498 
L 279.359949 88.319076 
L 278.427928 88.020094 
L 277.495906 87.787553 
L 276.563884 87.621453 
L 275.631863 87.521792 
L 274.699841 87.488572 
" style="fill:none;stroke:#000000;stroke-linecap:square;stroke-width:3.0;"/>
   </g>
   <g id="line2d_5">
    <path clip-path="url(#p40ff105135)" d="M 41.085024 47.232938 
L 42.841526 70.377908 
L 44.598029 92.000048 
L 46.354531 112.152077 
L 48.111033 130.880198 
L 49.867536 148.246888 
L 51.624038 164.326353 
L 53.380541 179.177676 
L 55.137043 192.852521 
L 56.893545 205.388018 
L 58.650048 216.817108 
L 60.40655 227.197804 
L 62.163052 236.591759 
L 63.919555 245.045532 
L 65.676057 252.604215 
L 67.43256 259.301276 
L 69.189062 265.167138 
L 70.945564 270.244762 
L 72.702067 274.583946 
L 74.458569 278.215509 
L 76.215072 281.180984 
L 77.971574 283.510204 
L 79.728076 285.238513 
L 81.484579 286.399918 
L 83.241081 287.026021 
L 84.997583 287.149885 
L 86.754086 286.806187 
L 88.510588 286.043695 
L 90.267091 284.917146 
L 92.023593 283.453519 
L 93.780095 281.694996 
L 95.536598 279.665975 
L 97.2931 277.380846 
L 99.049603 274.857832 
L 100.806105 272.093172 
L 104.31911 265.962391 
L 107.832114 259.203192 
L 111.345119 251.927414 
L 114.858124 244.19611 
L 120.127631 231.955037 
L 125.397138 219.156062 
L 132.423148 201.442133 
L 141.20566 178.497894 
L 151.744674 150.345141 
L 160.527186 127.109677 
L 165.796693 113.679663 
L 171.0662 100.922593 
L 174.579205 92.973013 
L 178.09221 85.486219 
L 181.605215 78.545222 
L 185.118219 72.2426 
L 188.631224 66.609357 
L 192.144229 61.674626 
L 195.657234 57.436514 
L 197.413736 55.578689 
L 199.170238 53.913597 
L 200.926741 52.445356 
L 202.683243 51.170977 
L 204.439746 50.081561 
L 206.196248 49.169902 
L 207.95275 48.426027 
L 209.709253 47.854924 
L 211.465755 47.472118 
L 213.222258 47.233353 
L 214.97876 47.133615 
L 216.735262 47.201002 
L 218.491765 47.635459 
L 220.248267 48.76246 
L 222.004769 50.535094 
L 223.761272 52.913535 
L 225.517774 55.858174 
L 227.274277 59.331628 
L 229.030779 63.299091 
L 230.787281 67.722589 
L 232.543784 72.560827 
L 236.056789 83.282906 
L 239.569793 95.119793 
L 243.082798 107.781138 
L 244.8393 114.31423 
L 246.595803 120.376315 
L 248.352305 125.383581 
L 250.108808 128.759382 
L 251.86531 129.923944 
L 253.621812 128.289245 
L 255.378315 124.565942 
L 257.134817 119.460532 
L 260.647822 107.963258 
L 262.404324 103.012329 
L 264.160827 98.819779 
L 265.917329 95.362806 
L 267.673831 92.592881 
L 269.430334 90.455961 
L 271.186836 88.914233 
L 272.943339 87.929834 
L 274.699841 87.488572 
L 276.456343 87.582793 
L 278.212846 88.195775 
L 279.969348 89.28291 
L 281.725851 90.797658 
L 283.482353 92.686569 
L 285.238855 94.906735 
L 286.995358 97.443613 
L 288.75186 100.284599 
L 290.508362 103.413795 
L 294.021367 110.379728 
L 297.534372 118.019983 
L 302.803879 130.153769 
L 309.829889 146.416322 
L 313.342893 154.050648 
L 316.855898 160.874005 
L 320.368903 167.250166 
L 320.368903 167.250166 
" style="fill:none;stroke:#0000ff;stroke-linecap:square;stroke-width:2.0;"/>
   </g>
   <g id="line2d_6">
    <path clip-path="url(#p40ff105135)" d="M 485.480127 87.577669 
L 486.770619 85.946616 
L 488.06111 84.349192 
L 489.351602 82.785399 
L 490.642093 81.255236 
L 491.932585 79.758702 
L 493.223076 78.295799 
L 494.513568 76.866525 
L 495.80406 75.470882 
L 497.094551 74.108868 
L 498.385043 72.780484 
L 499.675534 71.485731 
L 500.966026 70.224607 
L 502.256517 68.997113 
L 503.547009 67.80325 
L 504.8375 66.643016 
L 506.127992 65.516412 
L 507.418484 64.423438 
L 508.708975 63.364094 
L 509.999467 62.33838 
L 511.289958 61.346296 
L 512.58045 60.387842 
L 513.870941 59.463018 
L 515.161433 58.571824 
L 516.451924 57.71426 
L 517.742416 56.890326 
L 519.032907 56.100022 
L 520.323399 55.343347 
L 521.613891 54.620303 
L 522.904382 53.930889 
L 524.194874 53.275105 
L 525.485365 52.65295 
L 526.775857 52.064426 
L 528.066348 51.509531 
L 529.35684 50.988267 
L 530.647331 50.500632 
L 531.937823 50.046628 
L 533.228314 49.626253 
L 534.518806 49.239509 
L 535.809298 48.886394 
L 537.099789 48.566909 
L 538.390281 48.281055 
L 539.680772 48.02883 
L 540.971264 47.810235 
L 542.261755 47.62527 
L 543.552247 47.473936 
L 544.842738 47.356231 
L 546.13323 47.272156 
L 547.423721 47.221711 
L 548.714213 47.204896 
" style="fill:none;stroke:#000000;stroke-linecap:square;stroke-width:3.0;"/>
   </g>
   <g id="line2d_7">
    <path clip-path="url(#p40ff105135)" d="M 418.733037 287.226404 
L 420.095222 279.160628 
L 421.457408 271.261157 
L 422.819593 263.527991 
L 424.181779 255.961129 
L 425.543964 248.560572 
L 426.90615 241.32632 
L 428.268335 234.258372 
L 429.630521 227.356729 
L 430.992706 220.621391 
L 432.354892 214.052357 
L 433.717077 207.649628 
L 435.079263 201.413203 
L 436.441448 195.343084 
L 437.803634 189.439268 
L 439.165819 183.701758 
L 440.528005 178.130552 
L 441.89019 172.725651 
L 443.252376 167.487054 
L 444.614562 162.414762 
L 445.976747 157.508775 
L 447.338933 152.769093 
L 448.701118 148.195715 
L 450.063304 143.788641 
L 451.425489 139.547873 
L 452.787675 135.473409 
L 454.14986 131.56525 
L 455.512046 127.823395 
L 456.874231 124.247845 
L 458.236417 120.838599 
L 459.598602 117.595659 
L 460.960788 114.519023 
L 462.322973 111.608691 
L 463.685159 108.864665 
L 465.047344 106.286942 
L 466.40953 103.875525 
L 467.771715 101.630412 
L 469.133901 99.551604 
L 470.496086 97.639101 
L 471.858272 95.892902 
L 473.220457 94.313008 
L 474.582643 92.899418 
L 475.944829 91.652133 
L 477.307014 90.571153 
L 478.6692 89.656477 
L 480.031385 88.908106 
L 481.393571 88.32604 
L 482.755756 87.910278 
L 484.117942 87.660821 
L 485.480127 87.577669 
" style="fill:none;stroke:#000000;stroke-linecap:square;stroke-width:3.0;"/>
   </g>
   <g id="line2d_8">
    <path clip-path="url(#p40ff105135)" d="M 506.558156 129.919202 
L 506.127992 128.208612 
L 505.697828 126.533291 
L 505.267664 124.893239 
L 504.8375 123.288458 
L 504.407337 121.718947 
L 503.977173 120.184706 
L 503.547009 118.685734 
L 503.116845 117.222033 
L 502.686681 115.793601 
L 502.256517 114.40044 
L 501.826353 113.042548 
L 501.39619 111.719926 
L 500.966026 110.432574 
L 500.535862 109.180492 
L 500.105698 107.96368 
L 499.675534 106.782138 
L 499.24537 105.635866 
L 498.815207 104.524863 
L 498.385043 103.449131 
L 497.954879 102.408668 
L 497.524715 101.403476 
L 497.094551 100.433553 
L 496.664387 99.4989 
L 496.234223 98.599518 
L 495.80406 97.735405 
L 495.373896 96.906562 
L 494.943732 96.112989 
L 494.513568 95.354685 
L 494.083404 94.631652 
L 493.65324 93.943889 
L 493.223076 93.291395 
L 492.792913 92.674172 
L 492.362749 92.092218 
L 491.932585 91.545535 
L 491.502421 91.034121 
L 491.072257 90.557977 
L 490.642093 90.117103 
L 490.21193 89.711499 
L 489.781766 89.341165 
L 489.351602 89.006101 
L 488.921438 88.706306 
L 488.491274 88.441782 
L 488.06111 88.212528 
L 487.630946 88.018543 
L 487.200783 87.859828 
L 486.770619 87.736384 
L 486.340455 87.648209 
L 485.910291 87.595304 
L 485.480127 87.577669 
" style="fill:none;stroke:#000000;stroke-linecap:square;stroke-width:3.0;"/>
   </g>
   <g id="line2d_9">
    <path clip-path="url(#p40ff105135)" d="M 654.104356 167.229277 
L 651.953537 162.380312 
L 649.802718 157.631326 
L 647.651898 152.982318 
L 645.501079 148.433289 
L 643.35026 143.984239 
L 641.199441 139.635167 
L 639.048621 135.386074 
L 636.897802 131.23696 
L 634.746983 127.187824 
L 632.596164 123.238667 
L 630.445344 119.389488 
L 628.294525 115.640289 
L 626.143706 111.991068 
L 623.992887 108.441825 
L 621.842067 104.992561 
L 619.691248 101.643276 
L 617.540429 98.39397 
L 615.38961 95.244642 
L 613.23879 92.195293 
L 611.087971 89.245922 
L 608.937152 86.396531 
L 606.786333 83.647117 
L 604.635513 80.997683 
L 602.484694 78.448227 
L 600.333875 75.99875 
L 598.183056 73.649251 
L 596.032236 71.399732 
L 593.881417 69.25019 
L 591.730598 67.200628 
L 589.579779 65.251044 
L 587.428959 63.401439 
L 585.27814 61.651812 
L 583.127321 60.002164 
L 580.976502 58.452495 
L 578.825682 57.002805 
L 576.674863 55.653093 
L 574.524044 54.403359 
L 572.373225 53.253605 
L 570.222406 52.203829 
L 568.071586 51.254032 
L 565.920767 50.404213 
L 563.769948 49.654373 
L 561.619129 49.004512 
L 559.468309 48.454629 
L 557.31749 48.004725 
L 555.166671 47.6548 
L 553.015852 47.404853 
L 550.865032 47.254885 
L 548.714213 47.204896 
" style="fill:none;stroke:#000000;stroke-linecap:square;stroke-width:3.0;"/>
   </g>
   <g id="line2d_10">
    <path clip-path="url(#p40ff105135)" d="M 374.820477 47.254895 
L 376.576979 70.389108 
L 378.333482 91.997625 
L 380.089984 112.139847 
L 381.846486 130.870484 
L 383.602989 148.252884 
L 385.359491 164.336428 
L 387.115994 179.180133 
L 388.872496 192.838963 
L 390.628998 205.362439 
L 392.385501 216.794003 
L 394.142003 227.185039 
L 395.898506 236.580213 
L 397.655008 245.026389 
L 399.41151 252.572056 
L 401.168013 259.258577 
L 402.924515 265.124789 
L 404.681017 270.206865 
L 406.43752 274.544511 
L 408.194022 278.18229 
L 409.950525 281.154147 
L 411.707027 283.499139 
L 413.463529 285.248348 
L 415.220032 286.432183 
L 416.976534 287.083699 
L 418.733037 287.226404 
L 420.489539 286.843963 
L 422.246041 285.861148 
L 424.002544 284.180533 
L 425.759046 281.836344 
L 427.515548 278.866219 
L 429.272051 275.305007 
L 431.028553 271.181741 
L 432.785056 266.54278 
L 434.541558 261.429949 
L 436.29806 255.88937 
L 439.811065 243.66522 
L 443.32407 230.107379 
L 446.837075 215.481348 
L 452.106582 192.331424 
L 460.889094 153.284621 
L 464.402099 138.494184 
L 467.915103 124.833931 
L 469.671606 118.550487 
L 471.428108 112.68818 
L 473.18461 107.296188 
L 474.941113 102.428028 
L 476.697615 98.143159 
L 478.454118 94.508617 
L 480.21062 91.579168 
L 481.967122 89.414962 
L 483.723625 88.064549 
L 485.480127 87.577669 
L 487.23663 88.005331 
L 488.993132 89.31465 
L 490.749634 91.475696 
L 492.506137 94.455655 
L 494.262639 98.21517 
L 496.019141 102.710535 
L 497.775644 107.903789 
L 501.288649 119.572819 
L 503.045151 124.667846 
L 504.801653 128.34927 
L 506.558156 129.919202 
L 508.314658 128.677196 
L 510.071161 125.236436 
L 511.827663 120.205731 
L 515.340668 107.837636 
L 518.853672 95.857481 
L 522.366677 84.944927 
L 525.879682 75.244958 
L 527.636184 70.880024 
L 529.392687 66.845384 
L 531.149189 63.147212 
L 532.905692 59.801051 
L 534.662194 56.827564 
L 536.418696 54.247585 
L 538.175199 52.067476 
L 539.931701 50.290447 
L 541.688203 48.922856 
L 543.444706 47.974496 
L 545.201208 47.464083 
L 546.957711 47.244572 
L 550.470715 47.23866 
L 552.227218 47.328399 
L 553.98372 47.539203 
L 555.740223 47.868446 
L 557.496725 48.313299 
L 561.00973 49.545002 
L 564.522734 51.182925 
L 568.035739 53.173494 
L 571.548744 55.510676 
L 575.061749 58.151999 
L 578.574754 61.062746 
L 582.087758 64.225468 
L 587.357266 69.338229 
L 592.626773 74.910189 
L 597.89628 80.863217 
L 603.165787 87.157337 
L 608.435294 93.868754 
L 613.704801 100.92246 
L 618.974308 108.371626 
L 624.243816 116.257138 
L 629.513323 124.490851 
L 634.78283 133.131647 
L 641.808839 145.164969 
L 648.834849 157.642568 
L 654.104356 167.229277 
L 654.104356 167.229277 
" style="fill:none;stroke:#008000;stroke-linecap:square;stroke-width:2.0;"/>
   </g>
   <g id="patch_3">
    <path d="M 23.52 23.14175 
L 673.425882 23.14175 
" style="fill:none;stroke:#000000;stroke-linecap:square;stroke-linejoin:miter;"/>
   </g>
   <g id="patch_4">
    <path d="M 673.425882 311.14175 
L 673.425882 23.14175 
" style="fill:none;stroke:#000000;stroke-linecap:square;stroke-linejoin:miter;"/>
   </g>
   <g id="patch_5">
    <path d="M 23.52 311.14175 
L 673.425882 311.14175 
" style="fill:none;stroke:#000000;stroke-linecap:square;stroke-linejoin:miter;"/>
   </g>
   <g id="patch_6">
    <path d="M 23.52 311.14175 
L 23.52 23.14175 
" style="fill:none;stroke:#000000;stroke-linecap:square;stroke-linejoin:miter;"/>
   </g>
   <g id="matplotlib.axis_1"/>
   <g id="matplotlib.axis_2">
    <g id="ytick_1">
     <g id="line2d_11">
      <path clip-path="url(#p40ff105135)" d="M 23.52 287.149885 
L 673.425882 287.149885 
" style="fill:none;stroke:#000000;stroke-dasharray:1.000000,3.000000;stroke-dashoffset:0.0;stroke-width:0.5;"/>
     </g>
     <g id="line2d_12">
      <defs>
       <path d="M 0 0 
L 4 0 
" id="mfd97f911ed" style="stroke:#000000;stroke-width:0.5;"/>
      </defs>
      <g>
       <use style="stroke:#000000;stroke-width:0.5;" x="23.52" xlink:href="#mfd97f911ed" y="287.149885281"/>
      </g>
     </g>
     <g id="line2d_13">
      <defs>
       <path d="M 0 0 
L -4 0 
" id="m8678164ea7" style="stroke:#000000;stroke-width:0.5;"/>
      </defs>
      <g>
       <use style="stroke:#000000;stroke-width:0.5;" x="673.425882353" xlink:href="#m8678164ea7" y="287.149885281"/>
      </g>
     </g>
     <g id="text_1">
      <!-- A -->
      <defs>
       <path d="M 34.1875 63.1875 
L 20.796875 26.90625 
L 47.609375 26.90625 
z
M 28.609375 72.90625 
L 39.796875 72.90625 
L 67.578125 0 
L 57.328125 0 
L 50.6875 18.703125 
L 17.828125 18.703125 
L 11.1875 0 
L 0.78125 0 
z
" id="BitstreamVeraSans-Roman-41"/>
      </defs>
      <g transform="translate(8.575 291.564885281)scale(0.16 -0.16)">
       <use xlink:href="#BitstreamVeraSans-Roman-41"/>
      </g>
     </g>
    </g>
    <g id="ytick_2">
     <g id="line2d_14">
      <path clip-path="url(#p40ff105135)" d="M 23.52 167.250166 
L 673.425882 167.250166 
" style="fill:none;stroke:#000000;stroke-dasharray:1.000000,3.000000;stroke-dashoffset:0.0;stroke-width:0.5;"/>
     </g>
     <g id="line2d_15">
      <g>
       <use style="stroke:#000000;stroke-width:0.5;" x="23.52" xlink:href="#mfd97f911ed" y="167.250166128"/>
      </g>
     </g>
     <g id="line2d_16">
      <g>
       <use style="stroke:#000000;stroke-width:0.5;" x="673.425882353" xlink:href="#m8678164ea7" y="167.250166128"/>
      </g>
     </g>
     <g id="text_2">
      <!-- B -->
      <defs>
       <path d="M 19.671875 34.8125 
L 19.671875 8.109375 
L 35.5 8.109375 
Q 43.453125 8.109375 47.28125 11.40625 
Q 51.125 14.703125 51.125 21.484375 
Q 51.125 28.328125 47.28125 31.5625 
Q 43.453125 34.8125 35.5 34.8125 
z
M 19.671875 64.796875 
L 19.671875 42.828125 
L 34.28125 42.828125 
Q 41.5 42.828125 45.03125 45.53125 
Q 48.578125 48.25 48.578125 53.8125 
Q 48.578125 59.328125 45.03125 62.0625 
Q 41.5 64.796875 34.28125 64.796875 
z
M 9.8125 72.90625 
L 35.015625 72.90625 
Q 46.296875 72.90625 52.390625 68.21875 
Q 58.5 63.53125 58.5 54.890625 
Q 58.5 48.1875 55.375 44.234375 
Q 52.25 40.28125 46.1875 39.3125 
Q 53.46875 37.75 57.5 32.78125 
Q 61.53125 27.828125 61.53125 20.40625 
Q 61.53125 10.640625 54.890625 5.3125 
Q 48.25 0 35.984375 0 
L 9.8125 0 
z
" id="BitstreamVeraSans-Roman-42"/>
      </defs>
      <g transform="translate(8.5425 171.665166128)scale(0.16 -0.16)">
       <use xlink:href="#BitstreamVeraSans-Roman-42"/>
      </g>
     </g>
    </g>
    <g id="ytick_3">
     <g id="line2d_17">
      <path clip-path="url(#p40ff105135)" d="M 23.52 129.923944 
L 673.425882 129.923944 
" style="fill:none;stroke:#000000;stroke-dasharray:1.000000,3.000000;stroke-dashoffset:0.0;stroke-width:0.5;"/>
     </g>
     <g id="line2d_18">
      <g>
       <use style="stroke:#000000;stroke-width:0.5;" x="23.52" xlink:href="#mfd97f911ed" y="129.923944071"/>
      </g>
     </g>
     <g id="line2d_19">
      <g>
       <use style="stroke:#000000;stroke-width:0.5;" x="673.425882353" xlink:href="#m8678164ea7" y="129.923944071"/>
      </g>
     </g>
     <g id="text_3">
      <!-- C -->
      <defs>
       <path d="M 64.40625 67.28125 
L 64.40625 56.890625 
Q 59.421875 61.53125 53.78125 63.8125 
Q 48.140625 66.109375 41.796875 66.109375 
Q 29.296875 66.109375 22.65625 58.46875 
Q 16.015625 50.828125 16.015625 36.375 
Q 16.015625 21.96875 22.65625 14.328125 
Q 29.296875 6.6875 41.796875 6.6875 
Q 48.140625 6.6875 53.78125 8.984375 
Q 59.421875 11.28125 64.40625 15.921875 
L 64.40625 5.609375 
Q 59.234375 2.09375 53.4375 0.328125 
Q 47.65625 -1.421875 41.21875 -1.421875 
Q 24.65625 -1.421875 15.125 8.703125 
Q 5.609375 18.84375 5.609375 36.375 
Q 5.609375 53.953125 15.125 64.078125 
Q 24.65625 74.21875 41.21875 74.21875 
Q 47.75 74.21875 53.53125 72.484375 
Q 59.328125 70.75 64.40625 67.28125 
" id="BitstreamVeraSans-Roman-43"/>
      </defs>
      <g transform="translate(8.3475 134.338944071)scale(0.16 -0.16)">
       <use xlink:href="#BitstreamVeraSans-Roman-43"/>
      </g>
     </g>
    </g>
    <g id="ytick_4">
     <g id="line2d_20">
      <path clip-path="url(#p40ff105135)" d="M 23.52 87.488572 
L 673.425882 87.488572 
" style="fill:none;stroke:#000000;stroke-dasharray:1.000000,3.000000;stroke-dashoffset:0.0;stroke-width:0.5;"/>
     </g>
     <g id="line2d_21">
      <g>
       <use style="stroke:#000000;stroke-width:0.5;" x="23.52" xlink:href="#mfd97f911ed" y="87.4885719143"/>
      </g>
     </g>
     <g id="line2d_22">
      <g>
       <use style="stroke:#000000;stroke-width:0.5;" x="673.425882353" xlink:href="#m8678164ea7" y="87.4885719143"/>
      </g>
     </g>
     <g id="text_4">
      <!-- D -->
      <defs>
       <path d="M 19.671875 64.796875 
L 19.671875 8.109375 
L 31.59375 8.109375 
Q 46.6875 8.109375 53.6875 14.9375 
Q 60.6875 21.78125 60.6875 36.53125 
Q 60.6875 51.171875 53.6875 57.984375 
Q 46.6875 64.796875 31.59375 64.796875 
z
M 9.8125 72.90625 
L 30.078125 72.90625 
Q 51.265625 72.90625 61.171875 64.09375 
Q 71.09375 55.28125 71.09375 36.53125 
Q 71.09375 17.671875 61.125 8.828125 
Q 51.171875 0 30.078125 0 
L 9.8125 0 
z
" id="BitstreamVeraSans-Roman-44"/>
      </defs>
      <g transform="translate(7.2 91.9035719143)scale(0.16 -0.16)">
       <use xlink:href="#BitstreamVeraSans-Roman-44"/>
      </g>
     </g>
    </g>
    <g id="ytick_5">
     <g id="line2d_23">
      <path clip-path="url(#p40ff105135)" d="M 23.52 47.133615 
L 673.425882 47.133615 
" style="fill:none;stroke:#000000;stroke-dasharray:1.000000,3.000000;stroke-dashoffset:0.0;stroke-width:0.5;"/>
     </g>
     <g id="line2d_24">
      <g>
       <use style="stroke:#000000;stroke-width:0.5;" x="23.52" xlink:href="#mfd97f911ed" y="47.1336147189"/>
      </g>
     </g>
     <g id="line2d_25">
      <g>
       <use style="stroke:#000000;stroke-width:0.5;" x="673.425882353" xlink:href="#m8678164ea7" y="47.1336147189"/>
      </g>
     </g>
     <g id="text_5">
      <!-- E -->
      <defs>
       <path d="M 9.8125 72.90625 
L 55.90625 72.90625 
L 55.90625 64.59375 
L 19.671875 64.59375 
L 19.671875 43.015625 
L 54.390625 43.015625 
L 54.390625 34.71875 
L 19.671875 34.71875 
L 19.671875 8.296875 
L 56.78125 8.296875 
L 56.78125 0 
L 9.8125 0 
z
" id="BitstreamVeraSans-Roman-45"/>
      </defs>
      <g transform="translate(9.41 51.5486147189)scale(0.16 -0.16)">
       <use xlink:href="#BitstreamVeraSans-Roman-45"/>
      </g>
     </g>
    </g>
   </g>
   <g id="text_6">
    <!-- Merge Trees of Signal Snippets -->
    <defs>
     <path id="BitstreamVeraSans-Roman-20"/>
     <path d="M 9.8125 72.90625 
L 24.515625 72.90625 
L 43.109375 23.296875 
L 61.8125 72.90625 
L 76.515625 72.90625 
L 76.515625 0 
L 66.890625 0 
L 66.890625 64.015625 
L 48.09375 14.015625 
L 38.1875 14.015625 
L 19.390625 64.015625 
L 19.390625 0 
L 9.8125 0 
z
" id="BitstreamVeraSans-Roman-4d"/>
     <path d="M 54.890625 33.015625 
L 54.890625 0 
L 45.90625 0 
L 45.90625 32.71875 
Q 45.90625 40.484375 42.875 44.328125 
Q 39.84375 48.1875 33.796875 48.1875 
Q 26.515625 48.1875 22.3125 43.546875 
Q 18.109375 38.921875 18.109375 30.90625 
L 18.109375 0 
L 9.078125 0 
L 9.078125 54.6875 
L 18.109375 54.6875 
L 18.109375 46.1875 
Q 21.34375 51.125 25.703125 53.5625 
Q 30.078125 56 35.796875 56 
Q 45.21875 56 50.046875 50.171875 
Q 54.890625 44.34375 54.890625 33.015625 
" id="BitstreamVeraSans-Roman-6e"/>
     <path d="M 34.28125 27.484375 
Q 23.390625 27.484375 19.1875 25 
Q 14.984375 22.515625 14.984375 16.5 
Q 14.984375 11.71875 18.140625 8.90625 
Q 21.296875 6.109375 26.703125 6.109375 
Q 34.1875 6.109375 38.703125 11.40625 
Q 43.21875 16.703125 43.21875 25.484375 
L 43.21875 27.484375 
z
M 52.203125 31.203125 
L 52.203125 0 
L 43.21875 0 
L 43.21875 8.296875 
Q 40.140625 3.328125 35.546875 0.953125 
Q 30.953125 -1.421875 24.3125 -1.421875 
Q 15.921875 -1.421875 10.953125 3.296875 
Q 6 8.015625 6 15.921875 
Q 6 25.140625 12.171875 29.828125 
Q 18.359375 34.515625 30.609375 34.515625 
L 43.21875 34.515625 
L 43.21875 35.40625 
Q 43.21875 41.609375 39.140625 45 
Q 35.0625 48.390625 27.6875 48.390625 
Q 23 48.390625 18.546875 47.265625 
Q 14.109375 46.140625 10.015625 43.890625 
L 10.015625 52.203125 
Q 14.9375 54.109375 19.578125 55.046875 
Q 24.21875 56 28.609375 56 
Q 40.484375 56 46.34375 49.84375 
Q 52.203125 43.703125 52.203125 31.203125 
" id="BitstreamVeraSans-Roman-61"/>
     <path d="M 30.609375 48.390625 
Q 23.390625 48.390625 19.1875 42.75 
Q 14.984375 37.109375 14.984375 27.296875 
Q 14.984375 17.484375 19.15625 11.84375 
Q 23.34375 6.203125 30.609375 6.203125 
Q 37.796875 6.203125 41.984375 11.859375 
Q 46.1875 17.53125 46.1875 27.296875 
Q 46.1875 37.015625 41.984375 42.703125 
Q 37.796875 48.390625 30.609375 48.390625 
M 30.609375 56 
Q 42.328125 56 49.015625 48.375 
Q 55.71875 40.765625 55.71875 27.296875 
Q 55.71875 13.875 49.015625 6.21875 
Q 42.328125 -1.421875 30.609375 -1.421875 
Q 18.84375 -1.421875 12.171875 6.21875 
Q 5.515625 13.875 5.515625 27.296875 
Q 5.515625 40.765625 12.171875 48.375 
Q 18.84375 56 30.609375 56 
" id="BitstreamVeraSans-Roman-6f"/>
     <path d="M 18.3125 70.21875 
L 18.3125 54.6875 
L 36.8125 54.6875 
L 36.8125 47.703125 
L 18.3125 47.703125 
L 18.3125 18.015625 
Q 18.3125 11.328125 20.140625 9.421875 
Q 21.96875 7.515625 27.59375 7.515625 
L 36.8125 7.515625 
L 36.8125 0 
L 27.59375 0 
Q 17.1875 0 13.234375 3.875 
Q 9.28125 7.765625 9.28125 18.015625 
L 9.28125 47.703125 
L 2.6875 47.703125 
L 2.6875 54.6875 
L 9.28125 54.6875 
L 9.28125 70.21875 
z
" id="BitstreamVeraSans-Roman-74"/>
     <path d="M 9.421875 75.984375 
L 18.40625 75.984375 
L 18.40625 0 
L 9.421875 0 
z
" id="BitstreamVeraSans-Roman-6c"/>
     <path d="M 53.515625 70.515625 
L 53.515625 60.890625 
Q 47.90625 63.578125 42.921875 64.890625 
Q 37.9375 66.21875 33.296875 66.21875 
Q 25.25 66.21875 20.875 63.09375 
Q 16.5 59.96875 16.5 54.203125 
Q 16.5 49.359375 19.40625 46.890625 
Q 22.3125 44.4375 30.421875 42.921875 
L 36.375 41.703125 
Q 47.40625 39.59375 52.65625 34.296875 
Q 57.90625 29 57.90625 20.125 
Q 57.90625 9.515625 50.796875 4.046875 
Q 43.703125 -1.421875 29.984375 -1.421875 
Q 24.8125 -1.421875 18.96875 -0.25 
Q 13.140625 0.921875 6.890625 3.21875 
L 6.890625 13.375 
Q 12.890625 10.015625 18.65625 8.296875 
Q 24.421875 6.59375 29.984375 6.59375 
Q 38.421875 6.59375 43.015625 9.90625 
Q 47.609375 13.234375 47.609375 19.390625 
Q 47.609375 24.75 44.3125 27.78125 
Q 41.015625 30.8125 33.5 32.328125 
L 27.484375 33.5 
Q 16.453125 35.6875 11.515625 40.375 
Q 6.59375 45.0625 6.59375 53.421875 
Q 6.59375 63.09375 13.40625 68.65625 
Q 20.21875 74.21875 32.171875 74.21875 
Q 37.3125 74.21875 42.625 73.28125 
Q 47.953125 72.359375 53.515625 70.515625 
" id="BitstreamVeraSans-Roman-53"/>
     <path d="M -0.296875 72.90625 
L 61.375 72.90625 
L 61.375 64.59375 
L 35.5 64.59375 
L 35.5 0 
L 25.59375 0 
L 25.59375 64.59375 
L -0.296875 64.59375 
z
" id="BitstreamVeraSans-Roman-54"/>
     <path d="M 56.203125 29.59375 
L 56.203125 25.203125 
L 14.890625 25.203125 
Q 15.484375 15.921875 20.484375 11.0625 
Q 25.484375 6.203125 34.421875 6.203125 
Q 39.59375 6.203125 44.453125 7.46875 
Q 49.3125 8.734375 54.109375 11.28125 
L 54.109375 2.78125 
Q 49.265625 0.734375 44.1875 -0.34375 
Q 39.109375 -1.421875 33.890625 -1.421875 
Q 20.796875 -1.421875 13.15625 6.1875 
Q 5.515625 13.8125 5.515625 26.8125 
Q 5.515625 40.234375 12.765625 48.109375 
Q 20.015625 56 32.328125 56 
Q 43.359375 56 49.78125 48.890625 
Q 56.203125 41.796875 56.203125 29.59375 
M 47.21875 32.234375 
Q 47.125 39.59375 43.09375 43.984375 
Q 39.0625 48.390625 32.421875 48.390625 
Q 24.90625 48.390625 20.390625 44.140625 
Q 15.875 39.890625 15.1875 32.171875 
z
" id="BitstreamVeraSans-Roman-65"/>
     <path d="M 9.421875 54.6875 
L 18.40625 54.6875 
L 18.40625 0 
L 9.421875 0 
z
M 9.421875 75.984375 
L 18.40625 75.984375 
L 18.40625 64.59375 
L 9.421875 64.59375 
z
" id="BitstreamVeraSans-Roman-69"/>
     <path d="M 45.40625 27.984375 
Q 45.40625 37.75 41.375 43.109375 
Q 37.359375 48.484375 30.078125 48.484375 
Q 22.859375 48.484375 18.828125 43.109375 
Q 14.796875 37.75 14.796875 27.984375 
Q 14.796875 18.265625 18.828125 12.890625 
Q 22.859375 7.515625 30.078125 7.515625 
Q 37.359375 7.515625 41.375 12.890625 
Q 45.40625 18.265625 45.40625 27.984375 
M 54.390625 6.78125 
Q 54.390625 -7.171875 48.1875 -13.984375 
Q 42 -20.796875 29.203125 -20.796875 
Q 24.46875 -20.796875 20.265625 -20.09375 
Q 16.0625 -19.390625 12.109375 -17.921875 
L 12.109375 -9.1875 
Q 16.0625 -11.328125 19.921875 -12.34375 
Q 23.78125 -13.375 27.78125 -13.375 
Q 36.625 -13.375 41.015625 -8.765625 
Q 45.40625 -4.15625 45.40625 5.171875 
L 45.40625 9.625 
Q 42.625 4.78125 38.28125 2.390625 
Q 33.9375 0 27.875 0 
Q 17.828125 0 11.671875 7.65625 
Q 5.515625 15.328125 5.515625 27.984375 
Q 5.515625 40.671875 11.671875 48.328125 
Q 17.828125 56 27.875 56 
Q 33.9375 56 38.28125 53.609375 
Q 42.625 51.21875 45.40625 46.390625 
L 45.40625 54.6875 
L 54.390625 54.6875 
z
" id="BitstreamVeraSans-Roman-67"/>
     <path d="M 37.109375 75.984375 
L 37.109375 68.5 
L 28.515625 68.5 
Q 23.6875 68.5 21.796875 66.546875 
Q 19.921875 64.59375 19.921875 59.515625 
L 19.921875 54.6875 
L 34.71875 54.6875 
L 34.71875 47.703125 
L 19.921875 47.703125 
L 19.921875 0 
L 10.890625 0 
L 10.890625 47.703125 
L 2.296875 47.703125 
L 2.296875 54.6875 
L 10.890625 54.6875 
L 10.890625 58.5 
Q 10.890625 67.625 15.140625 71.796875 
Q 19.390625 75.984375 28.609375 75.984375 
z
" id="BitstreamVeraSans-Roman-66"/>
     <path d="M 41.109375 46.296875 
Q 39.59375 47.171875 37.8125 47.578125 
Q 36.03125 48 33.890625 48 
Q 26.265625 48 22.1875 43.046875 
Q 18.109375 38.09375 18.109375 28.8125 
L 18.109375 0 
L 9.078125 0 
L 9.078125 54.6875 
L 18.109375 54.6875 
L 18.109375 46.1875 
Q 20.953125 51.171875 25.484375 53.578125 
Q 30.03125 56 36.53125 56 
Q 37.453125 56 38.578125 55.875 
Q 39.703125 55.765625 41.0625 55.515625 
z
" id="BitstreamVeraSans-Roman-72"/>
     <path d="M 44.28125 53.078125 
L 44.28125 44.578125 
Q 40.484375 46.53125 36.375 47.5 
Q 32.28125 48.484375 27.875 48.484375 
Q 21.1875 48.484375 17.84375 46.4375 
Q 14.5 44.390625 14.5 40.28125 
Q 14.5 37.15625 16.890625 35.375 
Q 19.28125 33.59375 26.515625 31.984375 
L 29.59375 31.296875 
Q 39.15625 29.25 43.1875 25.515625 
Q 47.21875 21.78125 47.21875 15.09375 
Q 47.21875 7.46875 41.1875 3.015625 
Q 35.15625 -1.421875 24.609375 -1.421875 
Q 20.21875 -1.421875 15.453125 -0.5625 
Q 10.6875 0.296875 5.421875 2 
L 5.421875 11.28125 
Q 10.40625 8.6875 15.234375 7.390625 
Q 20.0625 6.109375 24.8125 6.109375 
Q 31.15625 6.109375 34.5625 8.28125 
Q 37.984375 10.453125 37.984375 14.40625 
Q 37.984375 18.0625 35.515625 20.015625 
Q 33.0625 21.96875 24.703125 23.78125 
L 21.578125 24.515625 
Q 13.234375 26.265625 9.515625 29.90625 
Q 5.8125 33.546875 5.8125 39.890625 
Q 5.8125 47.609375 11.28125 51.796875 
Q 16.75 56 26.8125 56 
Q 31.78125 56 36.171875 55.265625 
Q 40.578125 54.546875 44.28125 53.078125 
" id="BitstreamVeraSans-Roman-73"/>
     <path d="M 18.109375 8.203125 
L 18.109375 -20.796875 
L 9.078125 -20.796875 
L 9.078125 54.6875 
L 18.109375 54.6875 
L 18.109375 46.390625 
Q 20.953125 51.265625 25.265625 53.625 
Q 29.59375 56 35.59375 56 
Q 45.5625 56 51.78125 48.09375 
Q 58.015625 40.1875 58.015625 27.296875 
Q 58.015625 14.40625 51.78125 6.484375 
Q 45.5625 -1.421875 35.59375 -1.421875 
Q 29.59375 -1.421875 25.265625 0.953125 
Q 20.953125 3.328125 18.109375 8.203125 
M 48.6875 27.296875 
Q 48.6875 37.203125 44.609375 42.84375 
Q 40.53125 48.484375 33.40625 48.484375 
Q 26.265625 48.484375 22.1875 42.84375 
Q 18.109375 37.203125 18.109375 27.296875 
Q 18.109375 17.390625 22.1875 11.75 
Q 26.265625 6.109375 33.40625 6.109375 
Q 40.53125 6.109375 44.609375 11.75 
Q 48.6875 17.390625 48.6875 27.296875 
" id="BitstreamVeraSans-Roman-70"/>
    </defs>
    <g transform="translate(236.429691176 18.14175)scale(0.144 -0.144)">
     <use xlink:href="#BitstreamVeraSans-Roman-4d"/>
     <use x="86.279296875" xlink:href="#BitstreamVeraSans-Roman-65"/>
     <use x="147.802734375" xlink:href="#BitstreamVeraSans-Roman-72"/>
     <use x="188.900390625" xlink:href="#BitstreamVeraSans-Roman-67"/>
     <use x="252.376953125" xlink:href="#BitstreamVeraSans-Roman-65"/>
     <use x="313.900390625" xlink:href="#BitstreamVeraSans-Roman-20"/>
     <use x="345.6875" xlink:href="#BitstreamVeraSans-Roman-54"/>
     <use x="406.552734375" xlink:href="#BitstreamVeraSans-Roman-72"/>
     <use x="447.634765625" xlink:href="#BitstreamVeraSans-Roman-65"/>
     <use x="509.158203125" xlink:href="#BitstreamVeraSans-Roman-65"/>
     <use x="570.681640625" xlink:href="#BitstreamVeraSans-Roman-73"/>
     <use x="622.78125" xlink:href="#BitstreamVeraSans-Roman-20"/>
     <use x="654.568359375" xlink:href="#BitstreamVeraSans-Roman-6f"/>
     <use x="715.75" xlink:href="#BitstreamVeraSans-Roman-66"/>
     <use x="750.955078125" xlink:href="#BitstreamVeraSans-Roman-20"/>
     <use x="782.7421875" xlink:href="#BitstreamVeraSans-Roman-53"/>
     <use x="846.21875" xlink:href="#BitstreamVeraSans-Roman-69"/>
     <use x="874.001953125" xlink:href="#BitstreamVeraSans-Roman-67"/>
     <use x="937.478515625" xlink:href="#BitstreamVeraSans-Roman-6e"/>
     <use x="1000.85742188" xlink:href="#BitstreamVeraSans-Roman-61"/>
     <use x="1062.13671875" xlink:href="#BitstreamVeraSans-Roman-6c"/>
     <use x="1089.91992188" xlink:href="#BitstreamVeraSans-Roman-20"/>
     <use x="1121.70703125" xlink:href="#BitstreamVeraSans-Roman-53"/>
     <use x="1185.18359375" xlink:href="#BitstreamVeraSans-Roman-6e"/>
     <use x="1248.5625" xlink:href="#BitstreamVeraSans-Roman-69"/>
     <use x="1276.34570312" xlink:href="#BitstreamVeraSans-Roman-70"/>
     <use x="1339.82226562" xlink:href="#BitstreamVeraSans-Roman-70"/>
     <use x="1403.29882812" xlink:href="#BitstreamVeraSans-Roman-65"/>
     <use x="1464.82226562" xlink:href="#BitstreamVeraSans-Roman-74"/>
     <use x="1504.03125" xlink:href="#BitstreamVeraSans-Roman-73"/>
    </g>
   </g>
  </g>
  <g id="axes_2">
   <g id="patch_7">
    <path d="M 732.508235 311.14175 
L 1027.92 311.14175 
L 1027.92 23.14175 
L 732.508235 23.14175 
z
" style="fill:#ffffff;"/>
   </g>
   <g id="PathCollection_11">
    <defs>
     <path d="M 0 3.162278 
C 0.838646 3.162278 1.643056 2.82908 2.236068 2.236068 
C 2.82908 1.643056 3.162278 0.838646 3.162278 0 
C 3.162278 -0.838646 2.82908 -1.643056 2.236068 -2.236068 
C 1.643056 -2.82908 0.838646 -3.162278 0 -3.162278 
C -0.838646 -3.162278 -1.643056 -2.82908 -2.236068 -2.236068 
C -2.82908 -1.643056 -3.162278 -0.838646 -3.162278 0 
C -3.162278 0.838646 -2.82908 1.643056 -2.236068 2.236068 
C -1.643056 2.82908 -0.838646 3.162278 0 3.162278 
z
" id="C0_0_67601237bd"/>
    </defs>
    <g clip-path="url(#p6cfbb91e83)">
     <use style="fill:#0000ff;" x="918.389734758" xlink:href="#C0_0_67601237bd" y="87.4885719143"/>
    </g>
    <g clip-path="url(#p6cfbb91e83)">
     <use style="fill:#0000ff;" x="880.102911398" xlink:href="#C0_0_67601237bd" y="47.1336147189"/>
    </g>
    <g clip-path="url(#p6cfbb91e83)">
     <use style="fill:#0000ff;" x="757.117537708" xlink:href="#C0_0_67601237bd" y="47.1336147189"/>
    </g>
   </g>
   <g id="line2d_26">
    <path clip-path="url(#p6cfbb91e83)" d="M 707.878906 335.153139 
L 1036.12 15.147485 
" style="fill:none;stroke:#000000;stroke-linecap:square;"/>
   </g>
   <g id="patch_8">
    <path d="M 732.508235 23.14175 
L 1027.92 23.14175 
" style="fill:none;stroke:#000000;stroke-linecap:square;stroke-linejoin:miter;"/>
   </g>
   <g id="patch_9">
    <path d="M 1027.92 311.14175 
L 1027.92 23.14175 
" style="fill:none;stroke:#000000;stroke-linecap:square;stroke-linejoin:miter;"/>
   </g>
   <g id="patch_10">
    <path d="M 732.508235 311.14175 
L 1027.92 311.14175 
" style="fill:none;stroke:#000000;stroke-linecap:square;stroke-linejoin:miter;"/>
   </g>
   <g id="patch_11">
    <path d="M 732.508235 311.14175 
L 732.508235 23.14175 
" style="fill:none;stroke:#000000;stroke-linecap:square;stroke-linejoin:miter;"/>
   </g>
   <g id="matplotlib.axis_3">
    <g id="xtick_1">
     <g id="line2d_27">
      <path clip-path="url(#p6cfbb91e83)" d="M 918.389735 311.14175 
L 918.389735 23.14175 
" style="fill:none;stroke:#000000;stroke-dasharray:1.000000,3.000000;stroke-dashoffset:0.0;stroke-width:0.5;"/>
     </g>
     <g id="line2d_28">
      <defs>
       <path d="M 0 0 
L 0 -4 
" id="me7cac22be6" style="stroke:#000000;stroke-width:0.5;"/>
      </defs>
      <g>
       <use style="stroke:#000000;stroke-width:0.5;" x="918.389734758" xlink:href="#me7cac22be6" y="311.14175"/>
      </g>
     </g>
     <g id="line2d_29">
      <defs>
       <path d="M 0 0 
L 0 4 
" id="m5f15a269d8" style="stroke:#000000;stroke-width:0.5;"/>
      </defs>
      <g>
       <use style="stroke:#000000;stroke-width:0.5;" x="918.389734758" xlink:href="#m5f15a269d8" y="23.14175"/>
      </g>
     </g>
     <g id="text_7">
      <!-- C -->
      <g transform="translate(912.803484758 327.29925)scale(0.16 -0.16)">
       <use xlink:href="#BitstreamVeraSans-Roman-43"/>
      </g>
     </g>
    </g>
    <g id="xtick_2">
     <g id="line2d_30">
      <path clip-path="url(#p6cfbb91e83)" d="M 880.102911 311.14175 
L 880.102911 23.14175 
" style="fill:none;stroke:#000000;stroke-dasharray:1.000000,3.000000;stroke-dashoffset:0.0;stroke-width:0.5;"/>
     </g>
     <g id="line2d_31">
      <g>
       <use style="stroke:#000000;stroke-width:0.5;" x="880.102911398" xlink:href="#me7cac22be6" y="311.14175"/>
      </g>
     </g>
     <g id="line2d_32">
      <g>
       <use style="stroke:#000000;stroke-width:0.5;" x="880.102911398" xlink:href="#m5f15a269d8" y="23.14175"/>
      </g>
     </g>
     <g id="text_8">
      <!-- B -->
      <g transform="translate(874.614161398 327.29925)scale(0.16 -0.16)">
       <use xlink:href="#BitstreamVeraSans-Roman-42"/>
      </g>
     </g>
    </g>
    <g id="xtick_3">
     <g id="line2d_33">
      <path clip-path="url(#p6cfbb91e83)" d="M 757.117538 311.14175 
L 757.117538 23.14175 
" style="fill:none;stroke:#000000;stroke-dasharray:1.000000,3.000000;stroke-dashoffset:0.0;stroke-width:0.5;"/>
     </g>
     <g id="line2d_34">
      <g>
       <use style="stroke:#000000;stroke-width:0.5;" x="757.117537708" xlink:href="#me7cac22be6" y="311.14175"/>
      </g>
     </g>
     <g id="line2d_35">
      <g>
       <use style="stroke:#000000;stroke-width:0.5;" x="757.117537708" xlink:href="#m5f15a269d8" y="23.14175"/>
      </g>
     </g>
     <g id="text_9">
      <!-- A -->
      <g transform="translate(751.645037708 327.29925)scale(0.16 -0.16)">
       <use xlink:href="#BitstreamVeraSans-Roman-41"/>
      </g>
     </g>
    </g>
    <g id="text_10">
     <!-- Time of Birth -->
     <defs>
      <path d="M 52 44.1875 
Q 55.375 50.25 60.0625 53.125 
Q 64.75 56 71.09375 56 
Q 79.640625 56 84.28125 50.015625 
Q 88.921875 44.046875 88.921875 33.015625 
L 88.921875 0 
L 79.890625 0 
L 79.890625 32.71875 
Q 79.890625 40.578125 77.09375 44.375 
Q 74.3125 48.1875 68.609375 48.1875 
Q 61.625 48.1875 57.5625 43.546875 
Q 53.515625 38.921875 53.515625 30.90625 
L 53.515625 0 
L 44.484375 0 
L 44.484375 32.71875 
Q 44.484375 40.625 41.703125 44.40625 
Q 38.921875 48.1875 33.109375 48.1875 
Q 26.21875 48.1875 22.15625 43.53125 
Q 18.109375 38.875 18.109375 30.90625 
L 18.109375 0 
L 9.078125 0 
L 9.078125 54.6875 
L 18.109375 54.6875 
L 18.109375 46.1875 
Q 21.1875 51.21875 25.484375 53.609375 
Q 29.78125 56 35.6875 56 
Q 41.65625 56 45.828125 52.96875 
Q 50 49.953125 52 44.1875 
" id="BitstreamVeraSans-Roman-6d"/>
      <path d="M 54.890625 33.015625 
L 54.890625 0 
L 45.90625 0 
L 45.90625 32.71875 
Q 45.90625 40.484375 42.875 44.328125 
Q 39.84375 48.1875 33.796875 48.1875 
Q 26.515625 48.1875 22.3125 43.546875 
Q 18.109375 38.921875 18.109375 30.90625 
L 18.109375 0 
L 9.078125 0 
L 9.078125 75.984375 
L 18.109375 75.984375 
L 18.109375 46.1875 
Q 21.34375 51.125 25.703125 53.5625 
Q 30.078125 56 35.796875 56 
Q 45.21875 56 50.046875 50.171875 
Q 54.890625 44.34375 54.890625 33.015625 
" id="BitstreamVeraSans-Roman-68"/>
     </defs>
     <g transform="translate(841.347242647 344.744875)scale(0.12 -0.12)">
      <use xlink:href="#BitstreamVeraSans-Roman-54"/>
      <use x="61.037109375" xlink:href="#BitstreamVeraSans-Roman-69"/>
      <use x="88.8203125" xlink:href="#BitstreamVeraSans-Roman-6d"/>
      <use x="186.232421875" xlink:href="#BitstreamVeraSans-Roman-65"/>
      <use x="247.755859375" xlink:href="#BitstreamVeraSans-Roman-20"/>
      <use x="279.54296875" xlink:href="#BitstreamVeraSans-Roman-6f"/>
      <use x="340.724609375" xlink:href="#BitstreamVeraSans-Roman-66"/>
      <use x="375.9296875" xlink:href="#BitstreamVeraSans-Roman-20"/>
      <use x="407.716796875" xlink:href="#BitstreamVeraSans-Roman-42"/>
      <use x="476.3203125" xlink:href="#BitstreamVeraSans-Roman-69"/>
      <use x="504.103515625" xlink:href="#BitstreamVeraSans-Roman-72"/>
      <use x="545.216796875" xlink:href="#BitstreamVeraSans-Roman-74"/>
      <use x="584.42578125" xlink:href="#BitstreamVeraSans-Roman-68"/>
     </g>
    </g>
   </g>
   <g id="matplotlib.axis_4">
    <g id="ytick_6">
     <g id="line2d_36">
      <path clip-path="url(#p6cfbb91e83)" d="M 732.508235 87.488572 
L 1027.92 87.488572 
" style="fill:none;stroke:#000000;stroke-dasharray:1.000000,3.000000;stroke-dashoffset:0.0;stroke-width:0.5;"/>
     </g>
     <g id="line2d_37">
      <g>
       <use style="stroke:#000000;stroke-width:0.5;" x="732.508235294" xlink:href="#mfd97f911ed" y="87.4885719143"/>
      </g>
     </g>
     <g id="line2d_38">
      <g>
       <use style="stroke:#000000;stroke-width:0.5;" x="1027.92" xlink:href="#m8678164ea7" y="87.4885719143"/>
      </g>
     </g>
     <g id="text_11">
      <!-- D -->
      <g transform="translate(716.188235294 91.9035719143)scale(0.16 -0.16)">
       <use xlink:href="#BitstreamVeraSans-Roman-44"/>
      </g>
     </g>
    </g>
    <g id="ytick_7">
     <g id="line2d_39">
      <path clip-path="url(#p6cfbb91e83)" d="M 732.508235 47.133615 
L 1027.92 47.133615 
" style="fill:none;stroke:#000000;stroke-dasharray:1.000000,3.000000;stroke-dashoffset:0.0;stroke-width:0.5;"/>
     </g>
     <g id="line2d_40">
      <g>
       <use style="stroke:#000000;stroke-width:0.5;" x="732.508235294" xlink:href="#mfd97f911ed" y="47.1336147189"/>
      </g>
     </g>
     <g id="line2d_41">
      <g>
       <use style="stroke:#000000;stroke-width:0.5;" x="1027.92" xlink:href="#m8678164ea7" y="47.1336147189"/>
      </g>
     </g>
     <g id="text_12">
      <!-- E -->
      <g transform="translate(718.398235294 51.5486147189)scale(0.16 -0.16)">
       <use xlink:href="#BitstreamVeraSans-Roman-45"/>
      </g>
     </g>
    </g>
    <g id="ytick_8">
     <g id="line2d_42">
      <path clip-path="url(#p6cfbb91e83)" d="M 732.508235 47.133615 
L 1027.92 47.133615 
" style="fill:none;stroke:#000000;stroke-dasharray:1.000000,3.000000;stroke-dashoffset:0.0;stroke-width:0.5;"/>
     </g>
     <g id="line2d_43">
      <g>
       <use style="stroke:#000000;stroke-width:0.5;" x="732.508235294" xlink:href="#mfd97f911ed" y="47.1336147189"/>
      </g>
     </g>
     <g id="line2d_44">
      <g>
       <use style="stroke:#000000;stroke-width:0.5;" x="1027.92" xlink:href="#m8678164ea7" y="47.1336147189"/>
      </g>
     </g>
     <g id="text_13">
      <!-- E -->
      <g transform="translate(718.398235294 51.5486147189)scale(0.16 -0.16)">
       <use xlink:href="#BitstreamVeraSans-Roman-45"/>
      </g>
     </g>
    </g>
    <g id="text_14">
     <!-- Time of Death -->
     <g transform="translate(708.692610294 209.747375)rotate(-90.0)scale(0.12 -0.12)">
      <use xlink:href="#BitstreamVeraSans-Roman-54"/>
      <use x="61.037109375" xlink:href="#BitstreamVeraSans-Roman-69"/>
      <use x="88.8203125" xlink:href="#BitstreamVeraSans-Roman-6d"/>
      <use x="186.232421875" xlink:href="#BitstreamVeraSans-Roman-65"/>
      <use x="247.755859375" xlink:href="#BitstreamVeraSans-Roman-20"/>
      <use x="279.54296875" xlink:href="#BitstreamVeraSans-Roman-6f"/>
      <use x="340.724609375" xlink:href="#BitstreamVeraSans-Roman-66"/>
      <use x="375.9296875" xlink:href="#BitstreamVeraSans-Roman-20"/>
      <use x="407.716796875" xlink:href="#BitstreamVeraSans-Roman-44"/>
      <use x="484.71875" xlink:href="#BitstreamVeraSans-Roman-65"/>
      <use x="546.2421875" xlink:href="#BitstreamVeraSans-Roman-61"/>
      <use x="607.521484375" xlink:href="#BitstreamVeraSans-Roman-74"/>
      <use x="646.73046875" xlink:href="#BitstreamVeraSans-Roman-68"/>
     </g>
    </g>
   </g>
   <g id="text_15">
    <!-- Persistence Diagram -->
    <defs>
     <path d="M 19.671875 64.796875 
L 19.671875 37.40625 
L 32.078125 37.40625 
Q 38.96875 37.40625 42.71875 40.96875 
Q 46.484375 44.53125 46.484375 51.125 
Q 46.484375 57.671875 42.71875 61.234375 
Q 38.96875 64.796875 32.078125 64.796875 
z
M 9.8125 72.90625 
L 32.078125 72.90625 
Q 44.34375 72.90625 50.609375 67.359375 
Q 56.890625 61.8125 56.890625 51.125 
Q 56.890625 40.328125 50.609375 34.8125 
Q 44.34375 29.296875 32.078125 29.296875 
L 19.671875 29.296875 
L 19.671875 0 
L 9.8125 0 
z
" id="BitstreamVeraSans-Roman-50"/>
     <path d="M 48.78125 52.59375 
L 48.78125 44.1875 
Q 44.96875 46.296875 41.140625 47.34375 
Q 37.3125 48.390625 33.40625 48.390625 
Q 24.65625 48.390625 19.8125 42.84375 
Q 14.984375 37.3125 14.984375 27.296875 
Q 14.984375 17.28125 19.8125 11.734375 
Q 24.65625 6.203125 33.40625 6.203125 
Q 37.3125 6.203125 41.140625 7.25 
Q 44.96875 8.296875 48.78125 10.40625 
L 48.78125 2.09375 
Q 45.015625 0.34375 40.984375 -0.53125 
Q 36.96875 -1.421875 32.421875 -1.421875 
Q 20.0625 -1.421875 12.78125 6.34375 
Q 5.515625 14.109375 5.515625 27.296875 
Q 5.515625 40.671875 12.859375 48.328125 
Q 20.21875 56 33.015625 56 
Q 37.15625 56 41.109375 55.140625 
Q 45.0625 54.296875 48.78125 52.59375 
" id="BitstreamVeraSans-Roman-63"/>
    </defs>
    <g transform="translate(805.578242647 18.14175)scale(0.144 -0.144)">
     <use xlink:href="#BitstreamVeraSans-Roman-50"/>
     <use x="60.255859375" xlink:href="#BitstreamVeraSans-Roman-65"/>
     <use x="121.779296875" xlink:href="#BitstreamVeraSans-Roman-72"/>
     <use x="162.892578125" xlink:href="#BitstreamVeraSans-Roman-73"/>
     <use x="214.9921875" xlink:href="#BitstreamVeraSans-Roman-69"/>
     <use x="242.775390625" xlink:href="#BitstreamVeraSans-Roman-73"/>
     <use x="294.875" xlink:href="#BitstreamVeraSans-Roman-74"/>
     <use x="334.083984375" xlink:href="#BitstreamVeraSans-Roman-65"/>
     <use x="395.607421875" xlink:href="#BitstreamVeraSans-Roman-6e"/>
     <use x="458.986328125" xlink:href="#BitstreamVeraSans-Roman-63"/>
     <use x="513.966796875" xlink:href="#BitstreamVeraSans-Roman-65"/>
     <use x="575.490234375" xlink:href="#BitstreamVeraSans-Roman-20"/>
     <use x="607.27734375" xlink:href="#BitstreamVeraSans-Roman-44"/>
     <use x="684.279296875" xlink:href="#BitstreamVeraSans-Roman-69"/>
     <use x="712.0625" xlink:href="#BitstreamVeraSans-Roman-61"/>
     <use x="773.341796875" xlink:href="#BitstreamVeraSans-Roman-67"/>
     <use x="836.818359375" xlink:href="#BitstreamVeraSans-Roman-72"/>
     <use x="877.931640625" xlink:href="#BitstreamVeraSans-Roman-61"/>
     <use x="939.2109375" xlink:href="#BitstreamVeraSans-Roman-6d"/>
    </g>
   </g>
  </g>
 </g>
 <defs>
  <clipPath id="p40ff105135">
   <rect height="288.0" width="649.905882353" x="23.52" y="23.14175"/>
  </clipPath>
  <clipPath id="p6cfbb91e83">
   <rect height="288.0" width="295.411764706" x="732.508235294" y="23.14175"/>
  </clipPath>
 </defs>
</svg>
