<?xml version="1.0" encoding="utf-8" standalone="no"?>
<!DOCTYPE svg PUBLIC "-//W3C//DTD SVG 1.1//EN"
  "http://www.w3.org/Graphics/SVG/1.1/DTD/svg11.dtd">
<!-- Created with matplotlib (https://matplotlib.org/) -->
<svg height="277.314375pt" version="1.1" viewBox="0 0 721.645312 277.314375" width="721.645312pt" xmlns="http://www.w3.org/2000/svg" xmlns:xlink="http://www.w3.org/1999/xlink">
 <metadata>
  <rdf:RDF xmlns:cc="http://creativecommons.org/ns#" xmlns:dc="http://purl.org/dc/elements/1.1/" xmlns:rdf="http://www.w3.org/1999/02/22-rdf-syntax-ns#">
   <cc:Work>
    <dc:type rdf:resource="http://purl.org/dc/dcmitype/StillImage"/>
    <dc:date>2021-11-15T08:26:45.453034</dc:date>
    <dc:format>image/svg+xml</dc:format>
    <dc:creator>
     <cc:Agent>
      <dc:title>Matplotlib v3.3.4, https://matplotlib.org/</dc:title>
     </cc:Agent>
    </dc:creator>
   </cc:Work>
  </rdf:RDF>
 </metadata>
 <defs>
  <style type="text/css">*{stroke-linecap:butt;stroke-linejoin:round;}</style>
 </defs>
 <g id="figure_1">
  <g id="patch_1">
   <path d="M 0 277.314375 
L 721.645312 277.314375 
L 721.645312 0 
L 0 0 
z
" style="fill:none;"/>
  </g>
  <g id="axes_1">
   <g id="patch_2">
    <path d="M 44.845313 239.758125 
L 714.445312 239.758125 
L 714.445312 22.318125 
L 44.845313 22.318125 
z
" style="fill:#ffffff;"/>
   </g>
   <g id="matplotlib.axis_1">
    <g id="xtick_1">
     <g id="line2d_1">
      <defs>
       <path d="M 0 0 
L 0 3.5 
" id="m99e8f5b927" style="stroke:#000000;stroke-width:0.8;"/>
      </defs>
      <g>
       <use style="stroke:#000000;stroke-width:0.8;" x="75.281676" xlink:href="#m99e8f5b927" y="239.758125"/>
      </g>
     </g>
     <g id="text_1">
      <!-- 0 -->
      <g transform="translate(72.100426 254.356562)scale(0.1 -0.1)">
       <defs>
        <path d="M 31.78125 66.40625 
Q 24.171875 66.40625 20.328125 58.90625 
Q 16.5 51.421875 16.5 36.375 
Q 16.5 21.390625 20.328125 13.890625 
Q 24.171875 6.390625 31.78125 6.390625 
Q 39.453125 6.390625 43.28125 13.890625 
Q 47.125 21.390625 47.125 36.375 
Q 47.125 51.421875 43.28125 58.90625 
Q 39.453125 66.40625 31.78125 66.40625 
z
M 31.78125 74.21875 
Q 44.046875 74.21875 50.515625 64.515625 
Q 56.984375 54.828125 56.984375 36.375 
Q 56.984375 17.96875 50.515625 8.265625 
Q 44.046875 -1.421875 31.78125 -1.421875 
Q 19.53125 -1.421875 13.0625 8.265625 
Q 6.59375 17.96875 6.59375 36.375 
Q 6.59375 54.828125 13.0625 64.515625 
Q 19.53125 74.21875 31.78125 74.21875 
z
" id="DejaVuSans-48"/>
       </defs>
       <use xlink:href="#DejaVuSans-48"/>
      </g>
     </g>
    </g>
    <g id="xtick_2">
     <g id="line2d_2">
      <g>
       <use style="stroke:#000000;stroke-width:0.8;" x="198.256883" xlink:href="#m99e8f5b927" y="239.758125"/>
      </g>
     </g>
     <g id="text_2">
      <!-- 20 -->
      <g transform="translate(191.894383 254.356562)scale(0.1 -0.1)">
       <defs>
        <path d="M 19.1875 8.296875 
L 53.609375 8.296875 
L 53.609375 0 
L 7.328125 0 
L 7.328125 8.296875 
Q 12.9375 14.109375 22.625 23.890625 
Q 32.328125 33.6875 34.8125 36.53125 
Q 39.546875 41.84375 41.421875 45.53125 
Q 43.3125 49.21875 43.3125 52.78125 
Q 43.3125 58.59375 39.234375 62.25 
Q 35.15625 65.921875 28.609375 65.921875 
Q 23.96875 65.921875 18.8125 64.3125 
Q 13.671875 62.703125 7.8125 59.421875 
L 7.8125 69.390625 
Q 13.765625 71.78125 18.9375 73 
Q 24.125 74.21875 28.421875 74.21875 
Q 39.75 74.21875 46.484375 68.546875 
Q 53.21875 62.890625 53.21875 53.421875 
Q 53.21875 48.921875 51.53125 44.890625 
Q 49.859375 40.875 45.40625 35.40625 
Q 44.1875 33.984375 37.640625 27.21875 
Q 31.109375 20.453125 19.1875 8.296875 
z
" id="DejaVuSans-50"/>
       </defs>
       <use xlink:href="#DejaVuSans-50"/>
       <use x="63.623047" xlink:href="#DejaVuSans-48"/>
      </g>
     </g>
    </g>
    <g id="xtick_3">
     <g id="line2d_3">
      <g>
       <use style="stroke:#000000;stroke-width:0.8;" x="321.232089" xlink:href="#m99e8f5b927" y="239.758125"/>
      </g>
     </g>
     <g id="text_3">
      <!-- 40 -->
      <g transform="translate(314.869589 254.356562)scale(0.1 -0.1)">
       <defs>
        <path d="M 37.796875 64.3125 
L 12.890625 25.390625 
L 37.796875 25.390625 
z
M 35.203125 72.90625 
L 47.609375 72.90625 
L 47.609375 25.390625 
L 58.015625 25.390625 
L 58.015625 17.1875 
L 47.609375 17.1875 
L 47.609375 0 
L 37.796875 0 
L 37.796875 17.1875 
L 4.890625 17.1875 
L 4.890625 26.703125 
z
" id="DejaVuSans-52"/>
       </defs>
       <use xlink:href="#DejaVuSans-52"/>
       <use x="63.623047" xlink:href="#DejaVuSans-48"/>
      </g>
     </g>
    </g>
    <g id="xtick_4">
     <g id="line2d_4">
      <g>
       <use style="stroke:#000000;stroke-width:0.8;" x="444.207296" xlink:href="#m99e8f5b927" y="239.758125"/>
      </g>
     </g>
     <g id="text_4">
      <!-- 60 -->
      <g transform="translate(437.844796 254.356562)scale(0.1 -0.1)">
       <defs>
        <path d="M 33.015625 40.375 
Q 26.375 40.375 22.484375 35.828125 
Q 18.609375 31.296875 18.609375 23.390625 
Q 18.609375 15.53125 22.484375 10.953125 
Q 26.375 6.390625 33.015625 6.390625 
Q 39.65625 6.390625 43.53125 10.953125 
Q 47.40625 15.53125 47.40625 23.390625 
Q 47.40625 31.296875 43.53125 35.828125 
Q 39.65625 40.375 33.015625 40.375 
z
M 52.59375 71.296875 
L 52.59375 62.3125 
Q 48.875 64.0625 45.09375 64.984375 
Q 41.3125 65.921875 37.59375 65.921875 
Q 27.828125 65.921875 22.671875 59.328125 
Q 17.53125 52.734375 16.796875 39.40625 
Q 19.671875 43.65625 24.015625 45.921875 
Q 28.375 48.1875 33.59375 48.1875 
Q 44.578125 48.1875 50.953125 41.515625 
Q 57.328125 34.859375 57.328125 23.390625 
Q 57.328125 12.15625 50.6875 5.359375 
Q 44.046875 -1.421875 33.015625 -1.421875 
Q 20.359375 -1.421875 13.671875 8.265625 
Q 6.984375 17.96875 6.984375 36.375 
Q 6.984375 53.65625 15.1875 63.9375 
Q 23.390625 74.21875 37.203125 74.21875 
Q 40.921875 74.21875 44.703125 73.484375 
Q 48.484375 72.75 52.59375 71.296875 
z
" id="DejaVuSans-54"/>
       </defs>
       <use xlink:href="#DejaVuSans-54"/>
       <use x="63.623047" xlink:href="#DejaVuSans-48"/>
      </g>
     </g>
    </g>
    <g id="xtick_5">
     <g id="line2d_5">
      <g>
       <use style="stroke:#000000;stroke-width:0.8;" x="567.182503" xlink:href="#m99e8f5b927" y="239.758125"/>
      </g>
     </g>
     <g id="text_5">
      <!-- 80 -->
      <g transform="translate(560.820003 254.356562)scale(0.1 -0.1)">
       <defs>
        <path d="M 31.78125 34.625 
Q 24.75 34.625 20.71875 30.859375 
Q 16.703125 27.09375 16.703125 20.515625 
Q 16.703125 13.921875 20.71875 10.15625 
Q 24.75 6.390625 31.78125 6.390625 
Q 38.8125 6.390625 42.859375 10.171875 
Q 46.921875 13.96875 46.921875 20.515625 
Q 46.921875 27.09375 42.890625 30.859375 
Q 38.875 34.625 31.78125 34.625 
z
M 21.921875 38.8125 
Q 15.578125 40.375 12.03125 44.71875 
Q 8.5 49.078125 8.5 55.328125 
Q 8.5 64.0625 14.71875 69.140625 
Q 20.953125 74.21875 31.78125 74.21875 
Q 42.671875 74.21875 48.875 69.140625 
Q 55.078125 64.0625 55.078125 55.328125 
Q 55.078125 49.078125 51.53125 44.71875 
Q 48 40.375 41.703125 38.8125 
Q 48.828125 37.15625 52.796875 32.3125 
Q 56.78125 27.484375 56.78125 20.515625 
Q 56.78125 9.90625 50.3125 4.234375 
Q 43.84375 -1.421875 31.78125 -1.421875 
Q 19.734375 -1.421875 13.25 4.234375 
Q 6.78125 9.90625 6.78125 20.515625 
Q 6.78125 27.484375 10.78125 32.3125 
Q 14.796875 37.15625 21.921875 38.8125 
z
M 18.3125 54.390625 
Q 18.3125 48.734375 21.84375 45.5625 
Q 25.390625 42.390625 31.78125 42.390625 
Q 38.140625 42.390625 41.71875 45.5625 
Q 45.3125 48.734375 45.3125 54.390625 
Q 45.3125 60.0625 41.71875 63.234375 
Q 38.140625 66.40625 31.78125 66.40625 
Q 25.390625 66.40625 21.84375 63.234375 
Q 18.3125 60.0625 18.3125 54.390625 
z
" id="DejaVuSans-56"/>
       </defs>
       <use xlink:href="#DejaVuSans-56"/>
       <use x="63.623047" xlink:href="#DejaVuSans-48"/>
      </g>
     </g>
    </g>
    <g id="xtick_6">
     <g id="line2d_6">
      <g>
       <use style="stroke:#000000;stroke-width:0.8;" x="690.157709" xlink:href="#m99e8f5b927" y="239.758125"/>
      </g>
     </g>
     <g id="text_6">
      <!-- 100 -->
      <g transform="translate(680.613959 254.356562)scale(0.1 -0.1)">
       <defs>
        <path d="M 12.40625 8.296875 
L 28.515625 8.296875 
L 28.515625 63.921875 
L 10.984375 60.40625 
L 10.984375 69.390625 
L 28.421875 72.90625 
L 38.28125 72.90625 
L 38.28125 8.296875 
L 54.390625 8.296875 
L 54.390625 0 
L 12.40625 0 
z
" id="DejaVuSans-49"/>
       </defs>
       <use xlink:href="#DejaVuSans-49"/>
       <use x="63.623047" xlink:href="#DejaVuSans-48"/>
       <use x="127.246094" xlink:href="#DejaVuSans-48"/>
      </g>
     </g>
    </g>
    <g id="text_7">
     <!-- Sample Index -->
     <g transform="translate(345.541406 268.034687)scale(0.1 -0.1)">
      <defs>
       <path d="M 53.515625 70.515625 
L 53.515625 60.890625 
Q 47.90625 63.578125 42.921875 64.890625 
Q 37.9375 66.21875 33.296875 66.21875 
Q 25.25 66.21875 20.875 63.09375 
Q 16.5 59.96875 16.5 54.203125 
Q 16.5 49.359375 19.40625 46.890625 
Q 22.3125 44.4375 30.421875 42.921875 
L 36.375 41.703125 
Q 47.40625 39.59375 52.65625 34.296875 
Q 57.90625 29 57.90625 20.125 
Q 57.90625 9.515625 50.796875 4.046875 
Q 43.703125 -1.421875 29.984375 -1.421875 
Q 24.8125 -1.421875 18.96875 -0.25 
Q 13.140625 0.921875 6.890625 3.21875 
L 6.890625 13.375 
Q 12.890625 10.015625 18.65625 8.296875 
Q 24.421875 6.59375 29.984375 6.59375 
Q 38.421875 6.59375 43.015625 9.90625 
Q 47.609375 13.234375 47.609375 19.390625 
Q 47.609375 24.75 44.3125 27.78125 
Q 41.015625 30.8125 33.5 32.328125 
L 27.484375 33.5 
Q 16.453125 35.6875 11.515625 40.375 
Q 6.59375 45.0625 6.59375 53.421875 
Q 6.59375 63.09375 13.40625 68.65625 
Q 20.21875 74.21875 32.171875 74.21875 
Q 37.3125 74.21875 42.625 73.28125 
Q 47.953125 72.359375 53.515625 70.515625 
z
" id="DejaVuSans-83"/>
       <path d="M 34.28125 27.484375 
Q 23.390625 27.484375 19.1875 25 
Q 14.984375 22.515625 14.984375 16.5 
Q 14.984375 11.71875 18.140625 8.90625 
Q 21.296875 6.109375 26.703125 6.109375 
Q 34.1875 6.109375 38.703125 11.40625 
Q 43.21875 16.703125 43.21875 25.484375 
L 43.21875 27.484375 
z
M 52.203125 31.203125 
L 52.203125 0 
L 43.21875 0 
L 43.21875 8.296875 
Q 40.140625 3.328125 35.546875 0.953125 
Q 30.953125 -1.421875 24.3125 -1.421875 
Q 15.921875 -1.421875 10.953125 3.296875 
Q 6 8.015625 6 15.921875 
Q 6 25.140625 12.171875 29.828125 
Q 18.359375 34.515625 30.609375 34.515625 
L 43.21875 34.515625 
L 43.21875 35.40625 
Q 43.21875 41.609375 39.140625 45 
Q 35.0625 48.390625 27.6875 48.390625 
Q 23 48.390625 18.546875 47.265625 
Q 14.109375 46.140625 10.015625 43.890625 
L 10.015625 52.203125 
Q 14.9375 54.109375 19.578125 55.046875 
Q 24.21875 56 28.609375 56 
Q 40.484375 56 46.34375 49.84375 
Q 52.203125 43.703125 52.203125 31.203125 
z
" id="DejaVuSans-97"/>
       <path d="M 52 44.1875 
Q 55.375 50.25 60.0625 53.125 
Q 64.75 56 71.09375 56 
Q 79.640625 56 84.28125 50.015625 
Q 88.921875 44.046875 88.921875 33.015625 
L 88.921875 0 
L 79.890625 0 
L 79.890625 32.71875 
Q 79.890625 40.578125 77.09375 44.375 
Q 74.3125 48.1875 68.609375 48.1875 
Q 61.625 48.1875 57.5625 43.546875 
Q 53.515625 38.921875 53.515625 30.90625 
L 53.515625 0 
L 44.484375 0 
L 44.484375 32.71875 
Q 44.484375 40.625 41.703125 44.40625 
Q 38.921875 48.1875 33.109375 48.1875 
Q 26.21875 48.1875 22.15625 43.53125 
Q 18.109375 38.875 18.109375 30.90625 
L 18.109375 0 
L 9.078125 0 
L 9.078125 54.6875 
L 18.109375 54.6875 
L 18.109375 46.1875 
Q 21.1875 51.21875 25.484375 53.609375 
Q 29.78125 56 35.6875 56 
Q 41.65625 56 45.828125 52.96875 
Q 50 49.953125 52 44.1875 
z
" id="DejaVuSans-109"/>
       <path d="M 18.109375 8.203125 
L 18.109375 -20.796875 
L 9.078125 -20.796875 
L 9.078125 54.6875 
L 18.109375 54.6875 
L 18.109375 46.390625 
Q 20.953125 51.265625 25.265625 53.625 
Q 29.59375 56 35.59375 56 
Q 45.5625 56 51.78125 48.09375 
Q 58.015625 40.1875 58.015625 27.296875 
Q 58.015625 14.40625 51.78125 6.484375 
Q 45.5625 -1.421875 35.59375 -1.421875 
Q 29.59375 -1.421875 25.265625 0.953125 
Q 20.953125 3.328125 18.109375 8.203125 
z
M 48.6875 27.296875 
Q 48.6875 37.203125 44.609375 42.84375 
Q 40.53125 48.484375 33.40625 48.484375 
Q 26.265625 48.484375 22.1875 42.84375 
Q 18.109375 37.203125 18.109375 27.296875 
Q 18.109375 17.390625 22.1875 11.75 
Q 26.265625 6.109375 33.40625 6.109375 
Q 40.53125 6.109375 44.609375 11.75 
Q 48.6875 17.390625 48.6875 27.296875 
z
" id="DejaVuSans-112"/>
       <path d="M 9.421875 75.984375 
L 18.40625 75.984375 
L 18.40625 0 
L 9.421875 0 
z
" id="DejaVuSans-108"/>
       <path d="M 56.203125 29.59375 
L 56.203125 25.203125 
L 14.890625 25.203125 
Q 15.484375 15.921875 20.484375 11.0625 
Q 25.484375 6.203125 34.421875 6.203125 
Q 39.59375 6.203125 44.453125 7.46875 
Q 49.3125 8.734375 54.109375 11.28125 
L 54.109375 2.78125 
Q 49.265625 0.734375 44.1875 -0.34375 
Q 39.109375 -1.421875 33.890625 -1.421875 
Q 20.796875 -1.421875 13.15625 6.1875 
Q 5.515625 13.8125 5.515625 26.8125 
Q 5.515625 40.234375 12.765625 48.109375 
Q 20.015625 56 32.328125 56 
Q 43.359375 56 49.78125 48.890625 
Q 56.203125 41.796875 56.203125 29.59375 
z
M 47.21875 32.234375 
Q 47.125 39.59375 43.09375 43.984375 
Q 39.0625 48.390625 32.421875 48.390625 
Q 24.90625 48.390625 20.390625 44.140625 
Q 15.875 39.890625 15.1875 32.171875 
z
" id="DejaVuSans-101"/>
       <path id="DejaVuSans-32"/>
       <path d="M 9.8125 72.90625 
L 19.671875 72.90625 
L 19.671875 0 
L 9.8125 0 
z
" id="DejaVuSans-73"/>
       <path d="M 54.890625 33.015625 
L 54.890625 0 
L 45.90625 0 
L 45.90625 32.71875 
Q 45.90625 40.484375 42.875 44.328125 
Q 39.84375 48.1875 33.796875 48.1875 
Q 26.515625 48.1875 22.3125 43.546875 
Q 18.109375 38.921875 18.109375 30.90625 
L 18.109375 0 
L 9.078125 0 
L 9.078125 54.6875 
L 18.109375 54.6875 
L 18.109375 46.1875 
Q 21.34375 51.125 25.703125 53.5625 
Q 30.078125 56 35.796875 56 
Q 45.21875 56 50.046875 50.171875 
Q 54.890625 44.34375 54.890625 33.015625 
z
" id="DejaVuSans-110"/>
       <path d="M 45.40625 46.390625 
L 45.40625 75.984375 
L 54.390625 75.984375 
L 54.390625 0 
L 45.40625 0 
L 45.40625 8.203125 
Q 42.578125 3.328125 38.25 0.953125 
Q 33.9375 -1.421875 27.875 -1.421875 
Q 17.96875 -1.421875 11.734375 6.484375 
Q 5.515625 14.40625 5.515625 27.296875 
Q 5.515625 40.1875 11.734375 48.09375 
Q 17.96875 56 27.875 56 
Q 33.9375 56 38.25 53.625 
Q 42.578125 51.265625 45.40625 46.390625 
z
M 14.796875 27.296875 
Q 14.796875 17.390625 18.875 11.75 
Q 22.953125 6.109375 30.078125 6.109375 
Q 37.203125 6.109375 41.296875 11.75 
Q 45.40625 17.390625 45.40625 27.296875 
Q 45.40625 37.203125 41.296875 42.84375 
Q 37.203125 48.484375 30.078125 48.484375 
Q 22.953125 48.484375 18.875 42.84375 
Q 14.796875 37.203125 14.796875 27.296875 
z
" id="DejaVuSans-100"/>
       <path d="M 54.890625 54.6875 
L 35.109375 28.078125 
L 55.90625 0 
L 45.3125 0 
L 29.390625 21.484375 
L 13.484375 0 
L 2.875 0 
L 24.125 28.609375 
L 4.6875 54.6875 
L 15.28125 54.6875 
L 29.78125 35.203125 
L 44.28125 54.6875 
z
" id="DejaVuSans-120"/>
      </defs>
      <use xlink:href="#DejaVuSans-83"/>
      <use x="63.476562" xlink:href="#DejaVuSans-97"/>
      <use x="124.755859" xlink:href="#DejaVuSans-109"/>
      <use x="222.167969" xlink:href="#DejaVuSans-112"/>
      <use x="285.644531" xlink:href="#DejaVuSans-108"/>
      <use x="313.427734" xlink:href="#DejaVuSans-101"/>
      <use x="374.951172" xlink:href="#DejaVuSans-32"/>
      <use x="406.738281" xlink:href="#DejaVuSans-73"/>
      <use x="436.230469" xlink:href="#DejaVuSans-110"/>
      <use x="499.609375" xlink:href="#DejaVuSans-100"/>
      <use x="563.085938" xlink:href="#DejaVuSans-101"/>
      <use x="622.859375" xlink:href="#DejaVuSans-120"/>
     </g>
    </g>
   </g>
   <g id="matplotlib.axis_2">
    <g id="ytick_1">
     <g id="line2d_7">
      <defs>
       <path d="M 0 0 
L -3.5 0 
" id="m5ae4c15490" style="stroke:#000000;stroke-width:0.8;"/>
      </defs>
      <g>
       <use style="stroke:#000000;stroke-width:0.8;" x="44.845313" xlink:href="#m5ae4c15490" y="229.924261"/>
      </g>
     </g>
     <g id="text_8">
      <!-- −1.00 -->
      <g transform="translate(7.2 233.72348)scale(0.1 -0.1)">
       <defs>
        <path d="M 10.59375 35.5 
L 73.1875 35.5 
L 73.1875 27.203125 
L 10.59375 27.203125 
z
" id="DejaVuSans-8722"/>
        <path d="M 10.6875 12.40625 
L 21 12.40625 
L 21 0 
L 10.6875 0 
z
" id="DejaVuSans-46"/>
       </defs>
       <use xlink:href="#DejaVuSans-8722"/>
       <use x="83.789062" xlink:href="#DejaVuSans-49"/>
       <use x="147.412109" xlink:href="#DejaVuSans-46"/>
       <use x="179.199219" xlink:href="#DejaVuSans-48"/>
       <use x="242.822266" xlink:href="#DejaVuSans-48"/>
      </g>
     </g>
    </g>
    <g id="ytick_2">
     <g id="line2d_8">
      <g>
       <use style="stroke:#000000;stroke-width:0.8;" x="44.845313" xlink:href="#m5ae4c15490" y="205.208949"/>
      </g>
     </g>
     <g id="text_9">
      <!-- −0.75 -->
      <g transform="translate(7.2 209.008167)scale(0.1 -0.1)">
       <defs>
        <path d="M 8.203125 72.90625 
L 55.078125 72.90625 
L 55.078125 68.703125 
L 28.609375 0 
L 18.3125 0 
L 43.21875 64.59375 
L 8.203125 64.59375 
z
" id="DejaVuSans-55"/>
        <path d="M 10.796875 72.90625 
L 49.515625 72.90625 
L 49.515625 64.59375 
L 19.828125 64.59375 
L 19.828125 46.734375 
Q 21.96875 47.46875 24.109375 47.828125 
Q 26.265625 48.1875 28.421875 48.1875 
Q 40.625 48.1875 47.75 41.5 
Q 54.890625 34.8125 54.890625 23.390625 
Q 54.890625 11.625 47.5625 5.09375 
Q 40.234375 -1.421875 26.90625 -1.421875 
Q 22.3125 -1.421875 17.546875 -0.640625 
Q 12.796875 0.140625 7.71875 1.703125 
L 7.71875 11.625 
Q 12.109375 9.234375 16.796875 8.0625 
Q 21.484375 6.890625 26.703125 6.890625 
Q 35.15625 6.890625 40.078125 11.328125 
Q 45.015625 15.765625 45.015625 23.390625 
Q 45.015625 31 40.078125 35.4375 
Q 35.15625 39.890625 26.703125 39.890625 
Q 22.75 39.890625 18.8125 39.015625 
Q 14.890625 38.140625 10.796875 36.28125 
z
" id="DejaVuSans-53"/>
       </defs>
       <use xlink:href="#DejaVuSans-8722"/>
       <use x="83.789062" xlink:href="#DejaVuSans-48"/>
       <use x="147.412109" xlink:href="#DejaVuSans-46"/>
       <use x="179.199219" xlink:href="#DejaVuSans-55"/>
       <use x="242.822266" xlink:href="#DejaVuSans-53"/>
      </g>
     </g>
    </g>
    <g id="ytick_3">
     <g id="line2d_9">
      <g>
       <use style="stroke:#000000;stroke-width:0.8;" x="44.845313" xlink:href="#m5ae4c15490" y="180.493636"/>
      </g>
     </g>
     <g id="text_10">
      <!-- −0.50 -->
      <g transform="translate(7.2 184.292855)scale(0.1 -0.1)">
       <use xlink:href="#DejaVuSans-8722"/>
       <use x="83.789062" xlink:href="#DejaVuSans-48"/>
       <use x="147.412109" xlink:href="#DejaVuSans-46"/>
       <use x="179.199219" xlink:href="#DejaVuSans-53"/>
       <use x="242.822266" xlink:href="#DejaVuSans-48"/>
      </g>
     </g>
    </g>
    <g id="ytick_4">
     <g id="line2d_10">
      <g>
       <use style="stroke:#000000;stroke-width:0.8;" x="44.845313" xlink:href="#m5ae4c15490" y="155.778324"/>
      </g>
     </g>
     <g id="text_11">
      <!-- −0.25 -->
      <g transform="translate(7.2 159.577542)scale(0.1 -0.1)">
       <use xlink:href="#DejaVuSans-8722"/>
       <use x="83.789062" xlink:href="#DejaVuSans-48"/>
       <use x="147.412109" xlink:href="#DejaVuSans-46"/>
       <use x="179.199219" xlink:href="#DejaVuSans-50"/>
       <use x="242.822266" xlink:href="#DejaVuSans-53"/>
      </g>
     </g>
    </g>
    <g id="ytick_5">
     <g id="line2d_11">
      <g>
       <use style="stroke:#000000;stroke-width:0.8;" x="44.845313" xlink:href="#m5ae4c15490" y="131.063011"/>
      </g>
     </g>
     <g id="text_12">
      <!-- 0.00 -->
      <g transform="translate(15.579688 134.86223)scale(0.1 -0.1)">
       <use xlink:href="#DejaVuSans-48"/>
       <use x="63.623047" xlink:href="#DejaVuSans-46"/>
       <use x="95.410156" xlink:href="#DejaVuSans-48"/>
       <use x="159.033203" xlink:href="#DejaVuSans-48"/>
      </g>
     </g>
    </g>
    <g id="ytick_6">
     <g id="line2d_12">
      <g>
       <use style="stroke:#000000;stroke-width:0.8;" x="44.845313" xlink:href="#m5ae4c15490" y="106.347699"/>
      </g>
     </g>
     <g id="text_13">
      <!-- 0.25 -->
      <g transform="translate(15.579688 110.146918)scale(0.1 -0.1)">
       <use xlink:href="#DejaVuSans-48"/>
       <use x="63.623047" xlink:href="#DejaVuSans-46"/>
       <use x="95.410156" xlink:href="#DejaVuSans-50"/>
       <use x="159.033203" xlink:href="#DejaVuSans-53"/>
      </g>
     </g>
    </g>
    <g id="ytick_7">
     <g id="line2d_13">
      <g>
       <use style="stroke:#000000;stroke-width:0.8;" x="44.845313" xlink:href="#m5ae4c15490" y="81.632386"/>
      </g>
     </g>
     <g id="text_14">
      <!-- 0.50 -->
      <g transform="translate(15.579688 85.431605)scale(0.1 -0.1)">
       <use xlink:href="#DejaVuSans-48"/>
       <use x="63.623047" xlink:href="#DejaVuSans-46"/>
       <use x="95.410156" xlink:href="#DejaVuSans-53"/>
       <use x="159.033203" xlink:href="#DejaVuSans-48"/>
      </g>
     </g>
    </g>
    <g id="ytick_8">
     <g id="line2d_14">
      <g>
       <use style="stroke:#000000;stroke-width:0.8;" x="44.845313" xlink:href="#m5ae4c15490" y="56.917074"/>
      </g>
     </g>
     <g id="text_15">
      <!-- 0.75 -->
      <g transform="translate(15.579688 60.716293)scale(0.1 -0.1)">
       <use xlink:href="#DejaVuSans-48"/>
       <use x="63.623047" xlink:href="#DejaVuSans-46"/>
       <use x="95.410156" xlink:href="#DejaVuSans-55"/>
       <use x="159.033203" xlink:href="#DejaVuSans-53"/>
      </g>
     </g>
    </g>
    <g id="ytick_9">
     <g id="line2d_15">
      <g>
       <use style="stroke:#000000;stroke-width:0.8;" x="44.845313" xlink:href="#m5ae4c15490" y="32.201761"/>
      </g>
     </g>
     <g id="text_16">
      <!-- 1.00 -->
      <g transform="translate(15.579688 36.00098)scale(0.1 -0.1)">
       <use xlink:href="#DejaVuSans-49"/>
       <use x="63.623047" xlink:href="#DejaVuSans-46"/>
       <use x="95.410156" xlink:href="#DejaVuSans-48"/>
       <use x="159.033203" xlink:href="#DejaVuSans-48"/>
      </g>
     </g>
    </g>
   </g>
   <g id="LineCollection_1">
    <path clip-path="url(#pcc9423d2d8)" d="M 75.281676 131.063011 
L 75.281676 32.201761 
" style="fill:none;stroke:#1f77b4;stroke-width:1.5;"/>
    <path clip-path="url(#pcc9423d2d8)" d="M 81.430436 131.063011 
L 81.430436 35.370393 
" style="fill:none;stroke:#1f77b4;stroke-width:1.5;"/>
    <path clip-path="url(#pcc9423d2d8)" d="M 87.579197 131.063011 
L 87.579197 44.67317 
" style="fill:none;stroke:#1f77b4;stroke-width:1.5;"/>
    <path clip-path="url(#pcc9423d2d8)" d="M 93.727957 131.063011 
L 93.727957 59.51376 
" style="fill:none;stroke:#1f77b4;stroke-width:1.5;"/>
    <path clip-path="url(#pcc9423d2d8)" d="M 99.876717 131.063011 
L 99.876717 78.940843 
" style="fill:none;stroke:#1f77b4;stroke-width:1.5;"/>
    <path clip-path="url(#pcc9423d2d8)" d="M 106.025478 131.063011 
L 106.025478 101.709092 
" style="fill:none;stroke:#1f77b4;stroke-width:1.5;"/>
    <path clip-path="url(#pcc9423d2d8)" d="M 112.174238 131.063011 
L 112.174238 126.359004 
" style="fill:none;stroke:#1f77b4;stroke-width:1.5;"/>
    <path clip-path="url(#pcc9423d2d8)" d="M 118.322998 131.063011 
L 118.322998 151.310454 
" style="fill:none;stroke:#1f77b4;stroke-width:1.5;"/>
    <path clip-path="url(#pcc9423d2d8)" d="M 124.471759 131.063011 
L 124.471759 174.963992 
" style="fill:none;stroke:#1f77b4;stroke-width:1.5;"/>
    <path clip-path="url(#pcc9423d2d8)" d="M 130.620519 131.063011 
L 130.620519 195.803362 
" style="fill:none;stroke:#1f77b4;stroke-width:1.5;"/>
    <path clip-path="url(#pcc9423d2d8)" d="M 136.769279 131.063011 
L 136.769279 212.492708 
" style="fill:none;stroke:#1f77b4;stroke-width:1.5;"/>
    <path clip-path="url(#pcc9423d2d8)" d="M 142.91804 131.063011 
L 142.91804 223.962198 
" style="fill:none;stroke:#1f77b4;stroke-width:1.5;"/>
    <path clip-path="url(#pcc9423d2d8)" d="M 149.0668 131.063011 
L 149.0668 229.47661 
" style="fill:none;stroke:#1f77b4;stroke-width:1.5;"/>
    <path clip-path="url(#pcc9423d2d8)" d="M 155.21556 131.063011 
L 155.21556 228.682454 
" style="fill:none;stroke:#1f77b4;stroke-width:1.5;"/>
    <path clip-path="url(#pcc9423d2d8)" d="M 161.364321 131.063011 
L 161.364321 221.630638 
" style="fill:none;stroke:#1f77b4;stroke-width:1.5;"/>
    <path clip-path="url(#pcc9423d2d8)" d="M 167.513081 131.063011 
L 167.513081 208.773203 
" style="fill:none;stroke:#1f77b4;stroke-width:1.5;"/>
    <path clip-path="url(#pcc9423d2d8)" d="M 173.661841 131.063011 
L 173.661841 190.934342 
" style="fill:none;stroke:#1f77b4;stroke-width:1.5;"/>
    <path clip-path="url(#pcc9423d2d8)" d="M 179.810602 131.063011 
L 179.810602 169.257573 
" style="fill:none;stroke:#1f77b4;stroke-width:1.5;"/>
    <path clip-path="url(#pcc9423d2d8)" d="M 185.959362 131.063011 
L 185.959362 145.132434 
" style="fill:none;stroke:#1f77b4;stroke-width:1.5;"/>
    <path clip-path="url(#pcc9423d2d8)" d="M 192.108122 131.063011 
L 192.108122 120.105408 
" style="fill:none;stroke:#1f77b4;stroke-width:1.5;"/>
    <path clip-path="url(#pcc9423d2d8)" d="M 198.256883 131.063011 
L 198.256883 95.780793 
" style="fill:none;stroke:#1f77b4;stroke-width:1.5;"/>
    <path clip-path="url(#pcc9423d2d8)" d="M 204.405643 131.063011 
L 204.405643 73.71786 
" style="fill:none;stroke:#1f77b4;stroke-width:1.5;"/>
    <path clip-path="url(#pcc9423d2d8)" d="M 210.554403 131.063011 
L 210.554403 55.3309 
" style="fill:none;stroke:#1f77b4;stroke-width:1.5;"/>
    <path clip-path="url(#pcc9423d2d8)" d="M 216.703164 131.063011 
L 216.703164 41.798565 
" style="fill:none;stroke:#1f77b4;stroke-width:1.5;"/>
    <path clip-path="url(#pcc9423d2d8)" d="M 222.851924 131.063011 
L 222.851924 33.988313 
" style="fill:none;stroke:#1f77b4;stroke-width:1.5;"/>
    <path clip-path="url(#pcc9423d2d8)" d="M 229.000684 131.063011 
L 229.000684 32.400801 
" style="fill:none;stroke:#1f77b4;stroke-width:1.5;"/>
    <path clip-path="url(#pcc9423d2d8)" d="M 235.149445 131.063011 
L 235.149445 37.137793 
" style="fill:none;stroke:#1f77b4;stroke-width:1.5;"/>
    <path clip-path="url(#pcc9423d2d8)" d="M 241.298205 131.063011 
L 241.298205 47.895636 
" style="fill:none;stroke:#1f77b4;stroke-width:1.5;"/>
    <path clip-path="url(#pcc9423d2d8)" d="M 247.446965 131.063011 
L 247.446965 63.984723 
" style="fill:none;stroke:#1f77b4;stroke-width:1.5;"/>
    <path clip-path="url(#pcc9423d2d8)" d="M 253.595726 131.063011 
L 253.595726 84.373702 
" style="fill:none;stroke:#1f77b4;stroke-width:1.5;"/>
    <path clip-path="url(#pcc9423d2d8)" d="M 259.744486 131.063011 
L 259.744486 107.755588 
" style="fill:none;stroke:#1f77b4;stroke-width:1.5;"/>
    <path clip-path="url(#pcc9423d2d8)" d="M 265.893246 131.063011 
L 265.893246 132.63154 
" style="fill:none;stroke:#1f77b4;stroke-width:1.5;"/>
    <path clip-path="url(#pcc9423d2d8)" d="M 272.042007 131.063011 
L 272.042007 157.406946 
" style="fill:none;stroke:#1f77b4;stroke-width:1.5;"/>
    <path clip-path="url(#pcc9423d2d8)" d="M 278.190767 131.063011 
L 278.190767 180.493636 
" style="fill:none;stroke:#1f77b4;stroke-width:1.5;"/>
    <path clip-path="url(#pcc9423d2d8)" d="M 284.339527 131.063011 
L 284.339527 200.411695 
" style="fill:none;stroke:#1f77b4;stroke-width:1.5;"/>
    <path clip-path="url(#pcc9423d2d8)" d="M 290.488288 131.063011 
L 290.488288 215.884324 
" style="fill:none;stroke:#1f77b4;stroke-width:1.5;"/>
    <path clip-path="url(#pcc9423d2d8)" d="M 296.637048 131.063011 
L 296.637048 225.919686 
" style="fill:none;stroke:#1f77b4;stroke-width:1.5;"/>
    <path clip-path="url(#pcc9423d2d8)" d="M 302.785808 131.063011 
L 302.785808 229.874489 
" style="fill:none;stroke:#1f77b4;stroke-width:1.5;"/>
    <path clip-path="url(#pcc9423d2d8)" d="M 308.934569 131.063011 
L 308.934569 227.495219 
" style="fill:none;stroke:#1f77b4;stroke-width:1.5;"/>
    <path clip-path="url(#pcc9423d2d8)" d="M 315.083329 131.063011 
L 315.083329 218.934395 
" style="fill:none;stroke:#1f77b4;stroke-width:1.5;"/>
    <path clip-path="url(#pcc9423d2d8)" d="M 321.232089 131.063011 
L 321.232089 204.740786 
" style="fill:none;stroke:#1f77b4;stroke-width:1.5;"/>
    <path clip-path="url(#pcc9423d2d8)" d="M 327.38085 131.063011 
L 327.38085 185.824241 
" style="fill:none;stroke:#1f77b4;stroke-width:1.5;"/>
    <path clip-path="url(#pcc9423d2d8)" d="M 333.52961 131.063011 
L 333.52961 163.397359 
" style="fill:none;stroke:#1f77b4;stroke-width:1.5;"/>
    <path clip-path="url(#pcc9423d2d8)" d="M 339.67837 131.063011 
L 339.67837 138.897761 
" style="fill:none;stroke:#1f77b4;stroke-width:1.5;"/>
    <path clip-path="url(#pcc9423d2d8)" d="M 345.827131 131.063011 
L 345.827131 113.895935 
" style="fill:none;stroke:#1f77b4;stroke-width:1.5;"/>
    <path clip-path="url(#pcc9423d2d8)" d="M 351.975891 131.063011 
L 351.975891 89.994564 
" style="fill:none;stroke:#1f77b4;stroke-width:1.5;"/>
    <path clip-path="url(#pcc9423d2d8)" d="M 358.124651 131.063011 
L 358.124651 68.725786 
" style="fill:none;stroke:#1f77b4;stroke-width:1.5;"/>
    <path clip-path="url(#pcc9423d2d8)" d="M 364.273412 131.063011 
L 364.273412 51.452987 
" style="fill:none;stroke:#1f77b4;stroke-width:1.5;"/>
    <path clip-path="url(#pcc9423d2d8)" d="M 370.422172 131.063011 
L 370.422172 39.283397 
" style="fill:none;stroke:#1f77b4;stroke-width:1.5;"/>
    <path clip-path="url(#pcc9423d2d8)" d="M 376.570932 131.063011 
L 376.570932 32.997119 
" style="fill:none;stroke:#1f77b4;stroke-width:1.5;"/>
    <path clip-path="url(#pcc9423d2d8)" d="M 382.719693 131.063011 
L 382.719693 32.997119 
" style="fill:none;stroke:#1f77b4;stroke-width:1.5;"/>
    <path clip-path="url(#pcc9423d2d8)" d="M 388.868453 131.063011 
L 388.868453 39.283397 
" style="fill:none;stroke:#1f77b4;stroke-width:1.5;"/>
    <path clip-path="url(#pcc9423d2d8)" d="M 395.017213 131.063011 
L 395.017213 51.452987 
" style="fill:none;stroke:#1f77b4;stroke-width:1.5;"/>
    <path clip-path="url(#pcc9423d2d8)" d="M 401.165974 131.063011 
L 401.165974 68.725786 
" style="fill:none;stroke:#1f77b4;stroke-width:1.5;"/>
    <path clip-path="url(#pcc9423d2d8)" d="M 407.314734 131.063011 
L 407.314734 89.994564 
" style="fill:none;stroke:#1f77b4;stroke-width:1.5;"/>
    <path clip-path="url(#pcc9423d2d8)" d="M 413.463494 131.063011 
L 413.463494 113.895935 
" style="fill:none;stroke:#1f77b4;stroke-width:1.5;"/>
    <path clip-path="url(#pcc9423d2d8)" d="M 419.612255 131.063011 
L 419.612255 138.897761 
" style="fill:none;stroke:#1f77b4;stroke-width:1.5;"/>
    <path clip-path="url(#pcc9423d2d8)" d="M 425.761015 131.063011 
L 425.761015 163.397359 
" style="fill:none;stroke:#1f77b4;stroke-width:1.5;"/>
    <path clip-path="url(#pcc9423d2d8)" d="M 431.909775 131.063011 
L 431.909775 185.824241 
" style="fill:none;stroke:#1f77b4;stroke-width:1.5;"/>
    <path clip-path="url(#pcc9423d2d8)" d="M 438.058536 131.063011 
L 438.058536 204.740786 
" style="fill:none;stroke:#1f77b4;stroke-width:1.5;"/>
    <path clip-path="url(#pcc9423d2d8)" d="M 444.207296 131.063011 
L 444.207296 218.934395 
" style="fill:none;stroke:#1f77b4;stroke-width:1.5;"/>
    <path clip-path="url(#pcc9423d2d8)" d="M 450.356056 131.063011 
L 450.356056 227.495219 
" style="fill:none;stroke:#1f77b4;stroke-width:1.5;"/>
    <path clip-path="url(#pcc9423d2d8)" d="M 456.504817 131.063011 
L 456.504817 229.874489 
" style="fill:none;stroke:#1f77b4;stroke-width:1.5;"/>
    <path clip-path="url(#pcc9423d2d8)" d="M 462.653577 131.063011 
L 462.653577 225.919686 
" style="fill:none;stroke:#1f77b4;stroke-width:1.5;"/>
    <path clip-path="url(#pcc9423d2d8)" d="M 468.802337 131.063011 
L 468.802337 215.884324 
" style="fill:none;stroke:#1f77b4;stroke-width:1.5;"/>
    <path clip-path="url(#pcc9423d2d8)" d="M 474.951098 131.063011 
L 474.951098 200.411695 
" style="fill:none;stroke:#1f77b4;stroke-width:1.5;"/>
    <path clip-path="url(#pcc9423d2d8)" d="M 481.099858 131.063011 
L 481.099858 180.493636 
" style="fill:none;stroke:#1f77b4;stroke-width:1.5;"/>
    <path clip-path="url(#pcc9423d2d8)" d="M 487.248618 131.063011 
L 487.248618 157.406946 
" style="fill:none;stroke:#1f77b4;stroke-width:1.5;"/>
    <path clip-path="url(#pcc9423d2d8)" d="M 493.397379 131.063011 
L 493.397379 132.63154 
" style="fill:none;stroke:#1f77b4;stroke-width:1.5;"/>
    <path clip-path="url(#pcc9423d2d8)" d="M 499.546139 131.063011 
L 499.546139 107.755588 
" style="fill:none;stroke:#1f77b4;stroke-width:1.5;"/>
    <path clip-path="url(#pcc9423d2d8)" d="M 505.694899 131.063011 
L 505.694899 84.373702 
" style="fill:none;stroke:#1f77b4;stroke-width:1.5;"/>
    <path clip-path="url(#pcc9423d2d8)" d="M 511.84366 131.063011 
L 511.84366 63.984723 
" style="fill:none;stroke:#1f77b4;stroke-width:1.5;"/>
    <path clip-path="url(#pcc9423d2d8)" d="M 517.99242 131.063011 
L 517.99242 47.895636 
" style="fill:none;stroke:#1f77b4;stroke-width:1.5;"/>
    <path clip-path="url(#pcc9423d2d8)" d="M 524.14118 131.063011 
L 524.14118 37.137793 
" style="fill:none;stroke:#1f77b4;stroke-width:1.5;"/>
    <path clip-path="url(#pcc9423d2d8)" d="M 530.289941 131.063011 
L 530.289941 32.400801 
" style="fill:none;stroke:#1f77b4;stroke-width:1.5;"/>
    <path clip-path="url(#pcc9423d2d8)" d="M 536.438701 131.063011 
L 536.438701 33.988313 
" style="fill:none;stroke:#1f77b4;stroke-width:1.5;"/>
    <path clip-path="url(#pcc9423d2d8)" d="M 542.587461 131.063011 
L 542.587461 41.798565 
" style="fill:none;stroke:#1f77b4;stroke-width:1.5;"/>
    <path clip-path="url(#pcc9423d2d8)" d="M 548.736222 131.063011 
L 548.736222 55.3309 
" style="fill:none;stroke:#1f77b4;stroke-width:1.5;"/>
    <path clip-path="url(#pcc9423d2d8)" d="M 554.884982 131.063011 
L 554.884982 73.71786 
" style="fill:none;stroke:#1f77b4;stroke-width:1.5;"/>
    <path clip-path="url(#pcc9423d2d8)" d="M 561.033742 131.063011 
L 561.033742 95.780793 
" style="fill:none;stroke:#1f77b4;stroke-width:1.5;"/>
    <path clip-path="url(#pcc9423d2d8)" d="M 567.182503 131.063011 
L 567.182503 120.105408 
" style="fill:none;stroke:#1f77b4;stroke-width:1.5;"/>
    <path clip-path="url(#pcc9423d2d8)" d="M 573.331263 131.063011 
L 573.331263 145.132434 
" style="fill:none;stroke:#1f77b4;stroke-width:1.5;"/>
    <path clip-path="url(#pcc9423d2d8)" d="M 579.480023 131.063011 
L 579.480023 169.257573 
" style="fill:none;stroke:#1f77b4;stroke-width:1.5;"/>
    <path clip-path="url(#pcc9423d2d8)" d="M 585.628784 131.063011 
L 585.628784 190.934342 
" style="fill:none;stroke:#1f77b4;stroke-width:1.5;"/>
    <path clip-path="url(#pcc9423d2d8)" d="M 591.777544 131.063011 
L 591.777544 208.773203 
" style="fill:none;stroke:#1f77b4;stroke-width:1.5;"/>
    <path clip-path="url(#pcc9423d2d8)" d="M 597.926304 131.063011 
L 597.926304 221.630638 
" style="fill:none;stroke:#1f77b4;stroke-width:1.5;"/>
    <path clip-path="url(#pcc9423d2d8)" d="M 604.075065 131.063011 
L 604.075065 228.682454 
" style="fill:none;stroke:#1f77b4;stroke-width:1.5;"/>
    <path clip-path="url(#pcc9423d2d8)" d="M 610.223825 131.063011 
L 610.223825 229.47661 
" style="fill:none;stroke:#1f77b4;stroke-width:1.5;"/>
    <path clip-path="url(#pcc9423d2d8)" d="M 616.372585 131.063011 
L 616.372585 223.962198 
" style="fill:none;stroke:#1f77b4;stroke-width:1.5;"/>
    <path clip-path="url(#pcc9423d2d8)" d="M 622.521346 131.063011 
L 622.521346 212.492708 
" style="fill:none;stroke:#1f77b4;stroke-width:1.5;"/>
    <path clip-path="url(#pcc9423d2d8)" d="M 628.670106 131.063011 
L 628.670106 195.803362 
" style="fill:none;stroke:#1f77b4;stroke-width:1.5;"/>
    <path clip-path="url(#pcc9423d2d8)" d="M 634.818866 131.063011 
L 634.818866 174.963992 
" style="fill:none;stroke:#1f77b4;stroke-width:1.5;"/>
    <path clip-path="url(#pcc9423d2d8)" d="M 640.967627 131.063011 
L 640.967627 151.310454 
" style="fill:none;stroke:#1f77b4;stroke-width:1.5;"/>
    <path clip-path="url(#pcc9423d2d8)" d="M 647.116387 131.063011 
L 647.116387 126.359004 
" style="fill:none;stroke:#1f77b4;stroke-width:1.5;"/>
    <path clip-path="url(#pcc9423d2d8)" d="M 653.265147 131.063011 
L 653.265147 101.709092 
" style="fill:none;stroke:#1f77b4;stroke-width:1.5;"/>
    <path clip-path="url(#pcc9423d2d8)" d="M 659.413908 131.063011 
L 659.413908 78.940843 
" style="fill:none;stroke:#1f77b4;stroke-width:1.5;"/>
    <path clip-path="url(#pcc9423d2d8)" d="M 665.562668 131.063011 
L 665.562668 59.51376 
" style="fill:none;stroke:#1f77b4;stroke-width:1.5;"/>
    <path clip-path="url(#pcc9423d2d8)" d="M 671.711428 131.063011 
L 671.711428 44.67317 
" style="fill:none;stroke:#1f77b4;stroke-width:1.5;"/>
    <path clip-path="url(#pcc9423d2d8)" d="M 677.860189 131.063011 
L 677.860189 35.370393 
" style="fill:none;stroke:#1f77b4;stroke-width:1.5;"/>
    <path clip-path="url(#pcc9423d2d8)" d="M 684.008949 131.063011 
L 684.008949 32.201761 
" style="fill:none;stroke:#1f77b4;stroke-width:1.5;"/>
   </g>
   <g id="line2d_16">
    <path clip-path="url(#pcc9423d2d8)" d="M 75.281676 32.201761 
L 81.430436 35.370393 
L 87.579197 44.67317 
L 93.727957 59.51376 
L 99.876717 78.940843 
L 106.025478 101.709092 
L 112.174238 126.359004 
L 118.322998 151.310454 
L 124.471759 174.963992 
L 130.620519 195.803362 
L 136.769279 212.492708 
L 142.91804 223.962198 
L 149.0668 229.47661 
L 155.21556 228.682454 
L 161.364321 221.630638 
L 167.513081 208.773203 
L 173.661841 190.934342 
L 179.810602 169.257573 
L 185.959362 145.132434 
L 192.108122 120.105408 
L 198.256883 95.780793 
L 204.405643 73.71786 
L 210.554403 55.3309 
L 216.703164 41.798565 
L 222.851924 33.988313 
L 229.000684 32.400801 
L 235.149445 37.137793 
L 241.298205 47.895636 
L 247.446965 63.984723 
L 253.595726 84.373702 
L 259.744486 107.755588 
L 265.893246 132.63154 
L 272.042007 157.406946 
L 278.190767 180.493636 
L 284.339527 200.411695 
L 290.488288 215.884324 
L 296.637048 225.919686 
L 302.785808 229.874489 
L 308.934569 227.495219 
L 315.083329 218.934395 
L 321.232089 204.740786 
L 327.38085 185.824241 
L 333.52961 163.397359 
L 339.67837 138.897761 
L 345.827131 113.895935 
L 351.975891 89.994564 
L 358.124651 68.725786 
L 364.273412 51.452987 
L 370.422172 39.283397 
L 376.570932 32.997119 
L 382.719693 32.997119 
L 388.868453 39.283397 
L 395.017213 51.452987 
L 401.165974 68.725786 
L 407.314734 89.994564 
L 413.463494 113.895935 
L 419.612255 138.897761 
L 425.761015 163.397359 
L 431.909775 185.824241 
L 438.058536 204.740786 
L 444.207296 218.934395 
L 450.356056 227.495219 
L 456.504817 229.874489 
L 462.653577 225.919686 
L 468.802337 215.884324 
L 474.951098 200.411695 
L 481.099858 180.493636 
L 487.248618 157.406946 
L 493.397379 132.63154 
L 499.546139 107.755588 
L 505.694899 84.373702 
L 511.84366 63.984723 
L 517.99242 47.895636 
L 524.14118 37.137793 
L 530.289941 32.400801 
L 536.438701 33.988313 
L 542.587461 41.798565 
L 548.736222 55.3309 
L 554.884982 73.71786 
L 561.033742 95.780793 
L 567.182503 120.105408 
L 573.331263 145.132434 
L 579.480023 169.257573 
L 585.628784 190.934342 
L 591.777544 208.773203 
L 597.926304 221.630638 
L 604.075065 228.682454 
L 610.223825 229.47661 
L 616.372585 223.962198 
L 622.521346 212.492708 
L 628.670106 195.803362 
L 634.818866 174.963992 
L 640.967627 151.310454 
L 647.116387 126.359004 
L 653.265147 101.709092 
L 659.413908 78.940843 
L 665.562668 59.51376 
L 671.711428 44.67317 
L 677.860189 35.370393 
L 684.008949 32.201761 
" style="fill:none;stroke:#1f77b4;stroke-linecap:square;stroke-width:1.5;"/>
   </g>
   <g id="line2d_17">
    <defs>
     <path d="M 0 3 
C 0.795609 3 1.55874 2.683901 2.12132 2.12132 
C 2.683901 1.55874 3 0.795609 3 0 
C 3 -0.795609 2.683901 -1.55874 2.12132 -2.12132 
C 1.55874 -2.683901 0.795609 -3 0 -3 
C -0.795609 -3 -1.55874 -2.683901 -2.12132 -2.12132 
C -2.683901 -1.55874 -3 -0.795609 -3 0 
C -3 0.795609 -2.683901 1.55874 -2.12132 2.12132 
C -1.55874 2.683901 -0.795609 3 0 3 
z
" id="m74da7607c3" style="stroke:#1f77b4;"/>
    </defs>
    <g clip-path="url(#pcc9423d2d8)">
     <use style="fill:#1f77b4;stroke:#1f77b4;" x="75.281676" xlink:href="#m74da7607c3" y="32.201761"/>
     <use style="fill:#1f77b4;stroke:#1f77b4;" x="81.430436" xlink:href="#m74da7607c3" y="35.370393"/>
     <use style="fill:#1f77b4;stroke:#1f77b4;" x="87.579197" xlink:href="#m74da7607c3" y="44.67317"/>
     <use style="fill:#1f77b4;stroke:#1f77b4;" x="93.727957" xlink:href="#m74da7607c3" y="59.51376"/>
     <use style="fill:#1f77b4;stroke:#1f77b4;" x="99.876717" xlink:href="#m74da7607c3" y="78.940843"/>
     <use style="fill:#1f77b4;stroke:#1f77b4;" x="106.025478" xlink:href="#m74da7607c3" y="101.709092"/>
     <use style="fill:#1f77b4;stroke:#1f77b4;" x="112.174238" xlink:href="#m74da7607c3" y="126.359004"/>
     <use style="fill:#1f77b4;stroke:#1f77b4;" x="118.322998" xlink:href="#m74da7607c3" y="151.310454"/>
     <use style="fill:#1f77b4;stroke:#1f77b4;" x="124.471759" xlink:href="#m74da7607c3" y="174.963992"/>
     <use style="fill:#1f77b4;stroke:#1f77b4;" x="130.620519" xlink:href="#m74da7607c3" y="195.803362"/>
     <use style="fill:#1f77b4;stroke:#1f77b4;" x="136.769279" xlink:href="#m74da7607c3" y="212.492708"/>
     <use style="fill:#1f77b4;stroke:#1f77b4;" x="142.91804" xlink:href="#m74da7607c3" y="223.962198"/>
     <use style="fill:#1f77b4;stroke:#1f77b4;" x="149.0668" xlink:href="#m74da7607c3" y="229.47661"/>
     <use style="fill:#1f77b4;stroke:#1f77b4;" x="155.21556" xlink:href="#m74da7607c3" y="228.682454"/>
     <use style="fill:#1f77b4;stroke:#1f77b4;" x="161.364321" xlink:href="#m74da7607c3" y="221.630638"/>
     <use style="fill:#1f77b4;stroke:#1f77b4;" x="167.513081" xlink:href="#m74da7607c3" y="208.773203"/>
     <use style="fill:#1f77b4;stroke:#1f77b4;" x="173.661841" xlink:href="#m74da7607c3" y="190.934342"/>
     <use style="fill:#1f77b4;stroke:#1f77b4;" x="179.810602" xlink:href="#m74da7607c3" y="169.257573"/>
     <use style="fill:#1f77b4;stroke:#1f77b4;" x="185.959362" xlink:href="#m74da7607c3" y="145.132434"/>
     <use style="fill:#1f77b4;stroke:#1f77b4;" x="192.108122" xlink:href="#m74da7607c3" y="120.105408"/>
     <use style="fill:#1f77b4;stroke:#1f77b4;" x="198.256883" xlink:href="#m74da7607c3" y="95.780793"/>
     <use style="fill:#1f77b4;stroke:#1f77b4;" x="204.405643" xlink:href="#m74da7607c3" y="73.71786"/>
     <use style="fill:#1f77b4;stroke:#1f77b4;" x="210.554403" xlink:href="#m74da7607c3" y="55.3309"/>
     <use style="fill:#1f77b4;stroke:#1f77b4;" x="216.703164" xlink:href="#m74da7607c3" y="41.798565"/>
     <use style="fill:#1f77b4;stroke:#1f77b4;" x="222.851924" xlink:href="#m74da7607c3" y="33.988313"/>
     <use style="fill:#1f77b4;stroke:#1f77b4;" x="229.000684" xlink:href="#m74da7607c3" y="32.400801"/>
     <use style="fill:#1f77b4;stroke:#1f77b4;" x="235.149445" xlink:href="#m74da7607c3" y="37.137793"/>
     <use style="fill:#1f77b4;stroke:#1f77b4;" x="241.298205" xlink:href="#m74da7607c3" y="47.895636"/>
     <use style="fill:#1f77b4;stroke:#1f77b4;" x="247.446965" xlink:href="#m74da7607c3" y="63.984723"/>
     <use style="fill:#1f77b4;stroke:#1f77b4;" x="253.595726" xlink:href="#m74da7607c3" y="84.373702"/>
     <use style="fill:#1f77b4;stroke:#1f77b4;" x="259.744486" xlink:href="#m74da7607c3" y="107.755588"/>
     <use style="fill:#1f77b4;stroke:#1f77b4;" x="265.893246" xlink:href="#m74da7607c3" y="132.63154"/>
     <use style="fill:#1f77b4;stroke:#1f77b4;" x="272.042007" xlink:href="#m74da7607c3" y="157.406946"/>
     <use style="fill:#1f77b4;stroke:#1f77b4;" x="278.190767" xlink:href="#m74da7607c3" y="180.493636"/>
     <use style="fill:#1f77b4;stroke:#1f77b4;" x="284.339527" xlink:href="#m74da7607c3" y="200.411695"/>
     <use style="fill:#1f77b4;stroke:#1f77b4;" x="290.488288" xlink:href="#m74da7607c3" y="215.884324"/>
     <use style="fill:#1f77b4;stroke:#1f77b4;" x="296.637048" xlink:href="#m74da7607c3" y="225.919686"/>
     <use style="fill:#1f77b4;stroke:#1f77b4;" x="302.785808" xlink:href="#m74da7607c3" y="229.874489"/>
     <use style="fill:#1f77b4;stroke:#1f77b4;" x="308.934569" xlink:href="#m74da7607c3" y="227.495219"/>
     <use style="fill:#1f77b4;stroke:#1f77b4;" x="315.083329" xlink:href="#m74da7607c3" y="218.934395"/>
     <use style="fill:#1f77b4;stroke:#1f77b4;" x="321.232089" xlink:href="#m74da7607c3" y="204.740786"/>
     <use style="fill:#1f77b4;stroke:#1f77b4;" x="327.38085" xlink:href="#m74da7607c3" y="185.824241"/>
     <use style="fill:#1f77b4;stroke:#1f77b4;" x="333.52961" xlink:href="#m74da7607c3" y="163.397359"/>
     <use style="fill:#1f77b4;stroke:#1f77b4;" x="339.67837" xlink:href="#m74da7607c3" y="138.897761"/>
     <use style="fill:#1f77b4;stroke:#1f77b4;" x="345.827131" xlink:href="#m74da7607c3" y="113.895935"/>
     <use style="fill:#1f77b4;stroke:#1f77b4;" x="351.975891" xlink:href="#m74da7607c3" y="89.994564"/>
     <use style="fill:#1f77b4;stroke:#1f77b4;" x="358.124651" xlink:href="#m74da7607c3" y="68.725786"/>
     <use style="fill:#1f77b4;stroke:#1f77b4;" x="364.273412" xlink:href="#m74da7607c3" y="51.452987"/>
     <use style="fill:#1f77b4;stroke:#1f77b4;" x="370.422172" xlink:href="#m74da7607c3" y="39.283397"/>
     <use style="fill:#1f77b4;stroke:#1f77b4;" x="376.570932" xlink:href="#m74da7607c3" y="32.997119"/>
     <use style="fill:#1f77b4;stroke:#1f77b4;" x="382.719693" xlink:href="#m74da7607c3" y="32.997119"/>
     <use style="fill:#1f77b4;stroke:#1f77b4;" x="388.868453" xlink:href="#m74da7607c3" y="39.283397"/>
     <use style="fill:#1f77b4;stroke:#1f77b4;" x="395.017213" xlink:href="#m74da7607c3" y="51.452987"/>
     <use style="fill:#1f77b4;stroke:#1f77b4;" x="401.165974" xlink:href="#m74da7607c3" y="68.725786"/>
     <use style="fill:#1f77b4;stroke:#1f77b4;" x="407.314734" xlink:href="#m74da7607c3" y="89.994564"/>
     <use style="fill:#1f77b4;stroke:#1f77b4;" x="413.463494" xlink:href="#m74da7607c3" y="113.895935"/>
     <use style="fill:#1f77b4;stroke:#1f77b4;" x="419.612255" xlink:href="#m74da7607c3" y="138.897761"/>
     <use style="fill:#1f77b4;stroke:#1f77b4;" x="425.761015" xlink:href="#m74da7607c3" y="163.397359"/>
     <use style="fill:#1f77b4;stroke:#1f77b4;" x="431.909775" xlink:href="#m74da7607c3" y="185.824241"/>
     <use style="fill:#1f77b4;stroke:#1f77b4;" x="438.058536" xlink:href="#m74da7607c3" y="204.740786"/>
     <use style="fill:#1f77b4;stroke:#1f77b4;" x="444.207296" xlink:href="#m74da7607c3" y="218.934395"/>
     <use style="fill:#1f77b4;stroke:#1f77b4;" x="450.356056" xlink:href="#m74da7607c3" y="227.495219"/>
     <use style="fill:#1f77b4;stroke:#1f77b4;" x="456.504817" xlink:href="#m74da7607c3" y="229.874489"/>
     <use style="fill:#1f77b4;stroke:#1f77b4;" x="462.653577" xlink:href="#m74da7607c3" y="225.919686"/>
     <use style="fill:#1f77b4;stroke:#1f77b4;" x="468.802337" xlink:href="#m74da7607c3" y="215.884324"/>
     <use style="fill:#1f77b4;stroke:#1f77b4;" x="474.951098" xlink:href="#m74da7607c3" y="200.411695"/>
     <use style="fill:#1f77b4;stroke:#1f77b4;" x="481.099858" xlink:href="#m74da7607c3" y="180.493636"/>
     <use style="fill:#1f77b4;stroke:#1f77b4;" x="487.248618" xlink:href="#m74da7607c3" y="157.406946"/>
     <use style="fill:#1f77b4;stroke:#1f77b4;" x="493.397379" xlink:href="#m74da7607c3" y="132.63154"/>
     <use style="fill:#1f77b4;stroke:#1f77b4;" x="499.546139" xlink:href="#m74da7607c3" y="107.755588"/>
     <use style="fill:#1f77b4;stroke:#1f77b4;" x="505.694899" xlink:href="#m74da7607c3" y="84.373702"/>
     <use style="fill:#1f77b4;stroke:#1f77b4;" x="511.84366" xlink:href="#m74da7607c3" y="63.984723"/>
     <use style="fill:#1f77b4;stroke:#1f77b4;" x="517.99242" xlink:href="#m74da7607c3" y="47.895636"/>
     <use style="fill:#1f77b4;stroke:#1f77b4;" x="524.14118" xlink:href="#m74da7607c3" y="37.137793"/>
     <use style="fill:#1f77b4;stroke:#1f77b4;" x="530.289941" xlink:href="#m74da7607c3" y="32.400801"/>
     <use style="fill:#1f77b4;stroke:#1f77b4;" x="536.438701" xlink:href="#m74da7607c3" y="33.988313"/>
     <use style="fill:#1f77b4;stroke:#1f77b4;" x="542.587461" xlink:href="#m74da7607c3" y="41.798565"/>
     <use style="fill:#1f77b4;stroke:#1f77b4;" x="548.736222" xlink:href="#m74da7607c3" y="55.3309"/>
     <use style="fill:#1f77b4;stroke:#1f77b4;" x="554.884982" xlink:href="#m74da7607c3" y="73.71786"/>
     <use style="fill:#1f77b4;stroke:#1f77b4;" x="561.033742" xlink:href="#m74da7607c3" y="95.780793"/>
     <use style="fill:#1f77b4;stroke:#1f77b4;" x="567.182503" xlink:href="#m74da7607c3" y="120.105408"/>
     <use style="fill:#1f77b4;stroke:#1f77b4;" x="573.331263" xlink:href="#m74da7607c3" y="145.132434"/>
     <use style="fill:#1f77b4;stroke:#1f77b4;" x="579.480023" xlink:href="#m74da7607c3" y="169.257573"/>
     <use style="fill:#1f77b4;stroke:#1f77b4;" x="585.628784" xlink:href="#m74da7607c3" y="190.934342"/>
     <use style="fill:#1f77b4;stroke:#1f77b4;" x="591.777544" xlink:href="#m74da7607c3" y="208.773203"/>
     <use style="fill:#1f77b4;stroke:#1f77b4;" x="597.926304" xlink:href="#m74da7607c3" y="221.630638"/>
     <use style="fill:#1f77b4;stroke:#1f77b4;" x="604.075065" xlink:href="#m74da7607c3" y="228.682454"/>
     <use style="fill:#1f77b4;stroke:#1f77b4;" x="610.223825" xlink:href="#m74da7607c3" y="229.47661"/>
     <use style="fill:#1f77b4;stroke:#1f77b4;" x="616.372585" xlink:href="#m74da7607c3" y="223.962198"/>
     <use style="fill:#1f77b4;stroke:#1f77b4;" x="622.521346" xlink:href="#m74da7607c3" y="212.492708"/>
     <use style="fill:#1f77b4;stroke:#1f77b4;" x="628.670106" xlink:href="#m74da7607c3" y="195.803362"/>
     <use style="fill:#1f77b4;stroke:#1f77b4;" x="634.818866" xlink:href="#m74da7607c3" y="174.963992"/>
     <use style="fill:#1f77b4;stroke:#1f77b4;" x="640.967627" xlink:href="#m74da7607c3" y="151.310454"/>
     <use style="fill:#1f77b4;stroke:#1f77b4;" x="647.116387" xlink:href="#m74da7607c3" y="126.359004"/>
     <use style="fill:#1f77b4;stroke:#1f77b4;" x="653.265147" xlink:href="#m74da7607c3" y="101.709092"/>
     <use style="fill:#1f77b4;stroke:#1f77b4;" x="659.413908" xlink:href="#m74da7607c3" y="78.940843"/>
     <use style="fill:#1f77b4;stroke:#1f77b4;" x="665.562668" xlink:href="#m74da7607c3" y="59.51376"/>
     <use style="fill:#1f77b4;stroke:#1f77b4;" x="671.711428" xlink:href="#m74da7607c3" y="44.67317"/>
     <use style="fill:#1f77b4;stroke:#1f77b4;" x="677.860189" xlink:href="#m74da7607c3" y="35.370393"/>
     <use style="fill:#1f77b4;stroke:#1f77b4;" x="684.008949" xlink:href="#m74da7607c3" y="32.201761"/>
    </g>
   </g>
   <g id="line2d_18">
    <path clip-path="url(#pcc9423d2d8)" d="M 75.281676 131.063011 
L 684.008949 131.063011 
" style="fill:none;stroke:#d62728;stroke-linecap:square;stroke-width:1.5;"/>
   </g>
   <g id="patch_3">
    <path d="M 44.845313 239.758125 
L 44.845313 22.318125 
" style="fill:none;stroke:#000000;stroke-linecap:square;stroke-linejoin:miter;stroke-width:0.8;"/>
   </g>
   <g id="patch_4">
    <path d="M 714.445312 239.758125 
L 714.445312 22.318125 
" style="fill:none;stroke:#000000;stroke-linecap:square;stroke-linejoin:miter;stroke-width:0.8;"/>
   </g>
   <g id="patch_5">
    <path d="M 44.845313 239.758125 
L 714.445312 239.758125 
" style="fill:none;stroke:#000000;stroke-linecap:square;stroke-linejoin:miter;stroke-width:0.8;"/>
   </g>
   <g id="patch_6">
    <path d="M 44.845313 22.318125 
L 714.445312 22.318125 
" style="fill:none;stroke:#000000;stroke-linecap:square;stroke-linejoin:miter;stroke-width:0.8;"/>
   </g>
   <g id="text_17">
    <!-- Sampled Function -->
    <g transform="translate(325.913438 16.318125)scale(0.12 -0.12)">
     <defs>
      <path d="M 9.8125 72.90625 
L 51.703125 72.90625 
L 51.703125 64.59375 
L 19.671875 64.59375 
L 19.671875 43.109375 
L 48.578125 43.109375 
L 48.578125 34.8125 
L 19.671875 34.8125 
L 19.671875 0 
L 9.8125 0 
z
" id="DejaVuSans-70"/>
      <path d="M 8.5 21.578125 
L 8.5 54.6875 
L 17.484375 54.6875 
L 17.484375 21.921875 
Q 17.484375 14.15625 20.5 10.265625 
Q 23.53125 6.390625 29.59375 6.390625 
Q 36.859375 6.390625 41.078125 11.03125 
Q 45.3125 15.671875 45.3125 23.6875 
L 45.3125 54.6875 
L 54.296875 54.6875 
L 54.296875 0 
L 45.3125 0 
L 45.3125 8.40625 
Q 42.046875 3.421875 37.71875 1 
Q 33.40625 -1.421875 27.6875 -1.421875 
Q 18.265625 -1.421875 13.375 4.4375 
Q 8.5 10.296875 8.5 21.578125 
z
M 31.109375 56 
z
" id="DejaVuSans-117"/>
      <path d="M 48.78125 52.59375 
L 48.78125 44.1875 
Q 44.96875 46.296875 41.140625 47.34375 
Q 37.3125 48.390625 33.40625 48.390625 
Q 24.65625 48.390625 19.8125 42.84375 
Q 14.984375 37.3125 14.984375 27.296875 
Q 14.984375 17.28125 19.8125 11.734375 
Q 24.65625 6.203125 33.40625 6.203125 
Q 37.3125 6.203125 41.140625 7.25 
Q 44.96875 8.296875 48.78125 10.40625 
L 48.78125 2.09375 
Q 45.015625 0.34375 40.984375 -0.53125 
Q 36.96875 -1.421875 32.421875 -1.421875 
Q 20.0625 -1.421875 12.78125 6.34375 
Q 5.515625 14.109375 5.515625 27.296875 
Q 5.515625 40.671875 12.859375 48.328125 
Q 20.21875 56 33.015625 56 
Q 37.15625 56 41.109375 55.140625 
Q 45.0625 54.296875 48.78125 52.59375 
z
" id="DejaVuSans-99"/>
      <path d="M 18.3125 70.21875 
L 18.3125 54.6875 
L 36.8125 54.6875 
L 36.8125 47.703125 
L 18.3125 47.703125 
L 18.3125 18.015625 
Q 18.3125 11.328125 20.140625 9.421875 
Q 21.96875 7.515625 27.59375 7.515625 
L 36.8125 7.515625 
L 36.8125 0 
L 27.59375 0 
Q 17.1875 0 13.234375 3.875 
Q 9.28125 7.765625 9.28125 18.015625 
L 9.28125 47.703125 
L 2.6875 47.703125 
L 2.6875 54.6875 
L 9.28125 54.6875 
L 9.28125 70.21875 
z
" id="DejaVuSans-116"/>
      <path d="M 9.421875 54.6875 
L 18.40625 54.6875 
L 18.40625 0 
L 9.421875 0 
z
M 9.421875 75.984375 
L 18.40625 75.984375 
L 18.40625 64.59375 
L 9.421875 64.59375 
z
" id="DejaVuSans-105"/>
      <path d="M 30.609375 48.390625 
Q 23.390625 48.390625 19.1875 42.75 
Q 14.984375 37.109375 14.984375 27.296875 
Q 14.984375 17.484375 19.15625 11.84375 
Q 23.34375 6.203125 30.609375 6.203125 
Q 37.796875 6.203125 41.984375 11.859375 
Q 46.1875 17.53125 46.1875 27.296875 
Q 46.1875 37.015625 41.984375 42.703125 
Q 37.796875 48.390625 30.609375 48.390625 
z
M 30.609375 56 
Q 42.328125 56 49.015625 48.375 
Q 55.71875 40.765625 55.71875 27.296875 
Q 55.71875 13.875 49.015625 6.21875 
Q 42.328125 -1.421875 30.609375 -1.421875 
Q 18.84375 -1.421875 12.171875 6.21875 
Q 5.515625 13.875 5.515625 27.296875 
Q 5.515625 40.765625 12.171875 48.375 
Q 18.84375 56 30.609375 56 
z
" id="DejaVuSans-111"/>
     </defs>
     <use xlink:href="#DejaVuSans-83"/>
     <use x="63.476562" xlink:href="#DejaVuSans-97"/>
     <use x="124.755859" xlink:href="#DejaVuSans-109"/>
     <use x="222.167969" xlink:href="#DejaVuSans-112"/>
     <use x="285.644531" xlink:href="#DejaVuSans-108"/>
     <use x="313.427734" xlink:href="#DejaVuSans-101"/>
     <use x="374.951172" xlink:href="#DejaVuSans-100"/>
     <use x="438.427734" xlink:href="#DejaVuSans-32"/>
     <use x="470.214844" xlink:href="#DejaVuSans-70"/>
     <use x="522.234375" xlink:href="#DejaVuSans-117"/>
     <use x="585.613281" xlink:href="#DejaVuSans-110"/>
     <use x="648.992188" xlink:href="#DejaVuSans-99"/>
     <use x="703.972656" xlink:href="#DejaVuSans-116"/>
     <use x="743.181641" xlink:href="#DejaVuSans-105"/>
     <use x="770.964844" xlink:href="#DejaVuSans-111"/>
     <use x="832.146484" xlink:href="#DejaVuSans-110"/>
    </g>
   </g>
  </g>
 </g>
 <defs>
  <clipPath id="pcc9423d2d8">
   <rect height="217.44" width="669.6" x="44.845313" y="22.318125"/>
  </clipPath>
 </defs>
</svg>
