<?xml version="1.0" encoding="UTF-8" standalone="no"?>
<!-- Created with matplotlib (http://matplotlib.org/) -->

<svg
   xmlns:dc="http://purl.org/dc/elements/1.1/"
   xmlns:cc="http://creativecommons.org/ns#"
   xmlns:rdf="http://www.w3.org/1999/02/22-rdf-syntax-ns#"
   xmlns:svg="http://www.w3.org/2000/svg"
   xmlns="http://www.w3.org/2000/svg"
   xmlns:sodipodi="http://sodipodi.sourceforge.net/DTD/sodipodi-0.dtd"
   xmlns:inkscape="http://www.inkscape.org/namespaces/inkscape"
   height="460.12152pt"
   version="1.1"
   viewBox="0 0 1162.8915 460.12152"
   width="1162.8915pt"
   id="svg1471"
   sodipodi:docname="TrendingExamples.svg"
   inkscape:version="0.92.5 (2060ec1f9f, 2020-04-08)">
  <metadata
     id="metadata1475">
    <rdf:RDF>
      <cc:Work
         rdf:about="">
        <dc:format>image/svg+xml</dc:format>
        <dc:type
           rdf:resource="http://purl.org/dc/dcmitype/StillImage" />
        <dc:title></dc:title>
      </cc:Work>
    </rdf:RDF>
  </metadata>
  <sodipodi:namedview
     pagecolor="#ffffff"
     bordercolor="#666666"
     borderopacity="1"
     objecttolerance="10"
     gridtolerance="10"
     guidetolerance="10"
     inkscape:pageopacity="0"
     inkscape:pageshadow="2"
     inkscape:window-width="1624"
     inkscape:window-height="747"
     id="namedview1473"
     showgrid="false"
     fit-margin-top="0"
     fit-margin-left="0"
     fit-margin-right="0"
     fit-margin-bottom="0"
     inkscape:zoom="0.58882979"
     inkscape:cx="798.31693"
     inkscape:cy="325.85867"
     inkscape:window-x="192"
     inkscape:window-y="144"
     inkscape:window-maximized="0"
     inkscape:current-layer="patch_1" />
  <defs
     id="defs4"
     style="stroke-linecap:butt;stroke-linejoin:round;stroke-miterlimit:100000">
    <style
       type="text/css"
       id="style2">
*{stroke-linecap:butt;stroke-linejoin:round;stroke-miterlimit:100000;}
  </style>
  </defs>
  <g
     id="figure_1"
     style="stroke-linecap:butt;stroke-linejoin:round;stroke-miterlimit:100000"
     transform="translate(248.54434,88.041256)">
    <g
       id="patch_1"
       style="stroke-linecap:butt;stroke-linejoin:round;stroke-miterlimit:100000">
      <text
         xml:space="preserve"
         style="font-style:normal;font-weight:normal;font-size:13.99999905px;line-height:1.25;font-family:sans-serif;letter-spacing:0px;word-spacing:0px;fill:#000000;fill-opacity:1;stroke:none;stroke-width:0.75;stroke-linecap:butt;stroke-linejoin:round;stroke-miterlimit:100000"
         x="-248.45059"
         y="-17.675835"
         id="text2554"><tspan
           sodipodi:role="line"
           id="tspan2552"
           style="font-size:32px;fill:#0000ff;fill-opacity:1;stroke-width:0.75;stroke-linecap:butt;stroke-linejoin:round;stroke-miterlimit:100000"
           x="-248.45059"
           y="-17.675835">Trending Up</tspan></text>
      <text
         xml:space="preserve"
         style="font-style:normal;font-weight:normal;font-size:13.99999905px;line-height:1.25;font-family:sans-serif;letter-spacing:0px;word-spacing:0px;fill:#000000;fill-opacity:1;stroke:none;stroke-width:0.75;stroke-linecap:butt;stroke-linejoin:round;stroke-miterlimit:100000"
         x="-248.07948"
         y="86.680748"
         id="text2554-3"><tspan
           sodipodi:role="line"
           id="tspan2552-6"
           style="font-size:32px;fill:#ff0000;fill-opacity:1;stroke-width:0.75;stroke-linecap:butt;stroke-linejoin:round;stroke-miterlimit:100000"
           x="-248.07948"
           y="86.680748">Trending Down</tspan></text>
      <text
         xml:space="preserve"
         style="font-style:normal;font-weight:normal;font-size:13.99999905px;line-height:1.25;font-family:sans-serif;letter-spacing:0px;word-spacing:0px;fill:#000000;fill-opacity:1;stroke:none;stroke-width:0.75;stroke-linecap:butt;stroke-linejoin:round;stroke-miterlimit:100000"
         x="-248.13704"
         y="210.23087"
         id="text2554-3-7"><tspan
           sodipodi:role="line"
           id="tspan2552-6-5"
           style="font-size:32px;fill:#009e00;fill-opacity:1;stroke-width:0.75;stroke-linecap:butt;stroke-linejoin:round;stroke-miterlimit:100000"
           x="-248.13704"
           y="210.23087">Down Modulating</tspan></text>
      <text
         xml:space="preserve"
         style="font-style:normal;font-weight:normal;font-size:13.99999905px;line-height:1.25;font-family:sans-serif;letter-spacing:0px;word-spacing:0px;fill:#000000;fill-opacity:1;stroke:none;stroke-width:0.75;stroke-linecap:butt;stroke-linejoin:round;stroke-miterlimit:100000"
         x="-246.10045"
         y="338.87585"
         id="text2554-3-7-3"><tspan
           sodipodi:role="line"
           id="tspan2552-6-5-5"
           style="font-size:32px;fill:#000000;fill-opacity:1;stroke-width:0.75;stroke-linecap:butt;stroke-linejoin:round;stroke-miterlimit:100000"
           x="-246.10045"
           y="338.87585">Up Modulating</tspan></text>
    </g>
    <g
       id="axes_1"
       style="stroke-linecap:butt;stroke-linejoin:round;stroke-miterlimit:100000">
      <g
         id="line2d_1"
         transform="translate(16.5,-88.5)"
         style="stroke-linecap:butt;stroke-linejoin:round;stroke-miterlimit:100000">
        <path
           clip-path="url(#pc21cc997d1)"
           d="m 40.339375,63.093832 2.049587,0.599982 2.049587,2.621328 2.049586,4.241129 2.049587,5.249705 2.049587,5.516495 2.049587,5.006966 2.049586,3.787074 2.049587,2.014735 2.049587,-0.08063 2.049587,-2.22777 2.049587,-4.148748 2.049586,-5.594893 2.049587,-6.379004 2.049587,-6.399578 2.049587,-5.653954 2.049586,-4.238648 2.049587,-2.336874 2.049587,-0.194812 2.049587,1.910252 2.049587,3.705819 2.049586,4.959455 2.049587,5.50888 2.049587,5.282969 2.049587,4.310969 2.049586,2.718702 2.049587,0.712285 2.049587,-1.448553 2.049587,-3.484094 2.049587,-5.130843 2.049588,-6.175627 2.04959,-6.483202 2.04958,-6.013752 2.04959,-4.828048 2.04958,-3.079577 2.04959,-0.994675 2.04959,1.156769 2.04959,3.096253 2.04958,4.572714 2.04959,5.395026 2.04959,5.456742 2.04958,4.749874 2.04959,3.365922 2.04959,1.48404 2.04958,-0.652166 2.04959,-2.766168 2.04959,-4.584311 2.04958,-5.871237 2.04959,-6.460357 2.04959,-6.275409 2.04958,-5.340337 2.04959,-3.77618 2.04959,-1.785421 2.04958,0.374242 2.04959,2.423242 2.04959,4.096341 2.04958,5.176955 2.04959,5.525204 2.04959,5.096003 2.04958,3.944916 2.04959,2.220947 2.04959,0.147262 2.04958,-2.007703 2.04959,-3.96499 2.04959,-5.471233 2.04958,-6.331448 2.04959,-6.434284 2.04959,-5.766427 2.04959,-4.414331 2.04958,-2.553024 2.04959,-0.423447 2.04959,1.698726 2.04958,3.538784 2.04959,4.858535 2.04959,5.487138 2.04958,5.343219 2.04959,4.445413 2.04959,2.909935 2.04958,0.935554 2.04959,-1.222151 2.04959,-3.283868 2.04958,-4.982709 2.04959,-6.098763 2.04959,-6.487557 2.04958,-6.098762 2.04959,-4.982709 2.04959,-3.283868 2.04958,-1.222151 2.04959,0.935553 2.04959,2.909936 2.04958,4.445412 2.04959,5.34322 2.04959,5.487137 2.04958,4.858535 2.04959,3.538785 2.04959,1.698726 2.04959,-0.423448 2.04958,-2.553023 2.04959,-4.414332 2.04959,-5.766427"
           style="fill:none;stroke:#0000ff;stroke-width:3;stroke-linecap:butt;stroke-linejoin:round;stroke-miterlimit:100;stroke-dasharray:none;stroke-dashoffset:0"
           id="path242"
           inkscape:connector-curvature="0"
           transform="translate(-16.558266)" />
      </g>
      <g
         id="line2d_12"
         transform="translate(0,-97.5)"
         style="stroke-linecap:butt;stroke-linejoin:round;stroke-miterlimit:100000">
        <path
           clip-path="url(#pc21cc997d1)"
           d="m 263.53937,63.093832 2.04959,-0.0047 2.04959,-0.01289 2.04958,-0.01703 2.04959,-0.01449 2.04959,-0.0026 2.04959,0.02123 2.04958,0.05955 2.04959,0.114749 2.04959,0.188984 2.04958,0.284064 2.04959,0.401295 2.04959,0.541296 2.04958,0.703792 2.04959,0.887371 2.04959,1.089237 2.04958,1.304958 2.04959,1.528236 2.04959,1.750732 2.04958,1.961976 2.04959,2.149386 2.04959,2.29848 2.04958,2.393284 2.04959,2.416992 2.04959,2.352922 2.04958,2.185765 2.04959,1.903111 2.04959,1.497217 2.04958,0.966905 2.04959,0.319461 2.04959,-0.427695 2.04959,-1.245787 2.04958,-2.094236 2.04959,-2.921254 2.04958,-3.665803 2.04959,-4.261094 2.04959,-4.639729 2.04959,-4.740372 2.04958,-4.515588 2.04959,-3.940217 2.04959,-3.019312 2.04958,-1.794471 2.04959,-0.347173 2.04959,1.202251 2.04958,2.701132 2.04959,3.977094 2.04959,4.856645 2.04958,5.188465 2.04959,4.869027 2.04959,3.866934 2.04958,2.241563 2.04959,0.151267 2.04959,-2.153082 2.04958,-4.351801 2.04959,-6.097443 2.04959,-7.069664 2.04958,-7.036721 2.04959,-5.912855 2.04959,-3.7989 2.04958,-0.993501 2.04959,2.034248 2.04959,4.713683 2.04959,6.47678 2.04958,6.881473 2.04959,5.729052 2.04958,3.14577 2.04959,-0.399287 2.04959,-4.15805 2.04959,-7.24935 2.04958,-8.864554 2.04959,-8.488673 2.04959,-6.078001 2.04958,-2.134794 2.04959,2.36285 2.04959,6.18235 2.04958,8.169506 2.04959,7.608753 2.04959,4.49984 2.04958,-0.355156 2.04959,-5.517382 2.04959,-9.316532 2.04958,-10.394823 2.04959,-8.217716 2.04959,-3.358381 2.04958,2.588298 2.04959,7.489765 2.04959,9.4328 2.04959,7.494706 2.04958,2.216554 2.04959,-4.464575 2.04958,-9.878471 2.04959,-11.682761 2.04959,-8.912758 2.04958,-2.545611 2.04959,4.751158 2.04959,9.68633 2.04959,9.833569 2.04958,4.876995 2.04959,-3.037439 2.04959,-10.144802"
           style="fill:none;stroke:#0000ff;stroke-width:3;stroke-linecap:butt;stroke-linejoin:round;stroke-miterlimit:100;stroke-dasharray:none;stroke-dashoffset:0"
           id="path275"
           inkscape:connector-curvature="0" />
      </g>
      <g
         id="line2d_25"
         transform="translate(0,-100.5)"
         style="stroke-width:3;stroke-linecap:butt;stroke-linejoin:round;stroke-miterlimit:100;stroke-dasharray:none">
        <path
           clip-path="url(#pc21cc997d1)"
           d="m 486.73937,63.093832 2.04959,26.889387 2.04959,-23.11878 2.04958,-12.033849 2.04959,5.223253 2.04959,12.271594 2.04959,9.454229 2.04958,1.971957 2.04959,-5.341123 2.04959,-9.696629 2.04958,-10.346908 2.04959,-7.945415 2.04959,-3.81459 2.04958,0.639083 2.04959,4.292311 2.04959,6.469585 2.04958,6.955484 2.04959,5.91223 2.04959,3.752951 2.04958,1.008475 2.04959,-1.788004 2.04959,-4.185791 2.04958,-5.867437 2.04959,-6.667932 2.04959,-6.568356 2.04958,-5.671641 2.04959,-4.168043 2.04959,-2.29708 2.04958,-0.311276 2.04959,1.554622 2.04959,3.106716 2.04958,4.20656 2.04959,4.777503 2.04959,4.803801 2.04959,4.323982 2.04958,3.420174 2.04959,2.205099 2.04959,0.808304 2.04958,-0.637039 2.04959,-2.005755 2.04959,-3.190031 2.04958,-4.106108 2.04959,-4.698211 2.04959,-4.939853 2.04958,-4.832777 2.04959,-4.403977 2.04959,-3.701294 2.04958,-2.788058 2.04959,-1.737315 2.04959,-0.62604 2.04958,0.470249 2.04959,1.482212 2.04959,2.350505 2.04958,3.028584 2.04959,3.484458 2.04959,3.701381 2.04959,3.6776 2.04958,3.425262 2.04959,2.968648 2.04958,2.341892 2.04959,1.586384 2.04959,0.748008 2.04959,-0.125591 2.04958,-0.987612 2.04959,-1.794422 2.04959,-2.507526 2.04958,-3.095117 2.04959,-3.533173 2.04959,-3.806097 2.04958,-3.90689 2.04959,-3.836935 2.04959,-3.605387 2.04958,-3.228278 2.04959,-2.727372 2.04959,-2.128851 2.04958,-1.461921 2.04959,-0.757365 2.04959,-0.04616 2.04958,0.641835 2.04959,1.279048 2.04959,1.841187 2.04958,2.308029 2.04959,2.66401 2.04959,2.898569 2.04958,3.0063 2.04959,2.98688 2.04959,2.844813 2.04958,2.589012 2.04959,2.232243 2.04959,1.790462 2.04958,1.282077 2.04959,0.72717 2.04959,0.146695 2.04959,-0.438282 2.04958,-1.007336 2.04959,-1.541336 2.04959,-2.023049 2.04958,-2.437615 2.04959,-2.772938 2.04959,-3.019964"
           style="fill:none;stroke:#0000ff;stroke-width:3;stroke-linecap:butt;stroke-linejoin:round;stroke-miterlimit:100;stroke-dasharray:none;stroke-dashoffset:0"
           id="path314"
           inkscape:connector-curvature="0" />
      </g>
      <g
         id="line2d_36"
         transform="translate(0,-108)"
         style="stroke-width:3;stroke-linecap:butt;stroke-linejoin:round;stroke-miterlimit:100;stroke-dasharray:none">
        <path
           clip-path="url(#pc21cc997d1)"
           d="m 709.93938,63.093832 2.04958,18.093693 2.04959,9.035043 2.04958,2.115614 2.04959,-2.365259 2.04959,-4.960419 2.04959,-6.151671 2.04958,-6.33347 2.04959,-5.821822 2.04959,-4.866133 2.04958,-3.6604 2.04959,-2.353032 2.04959,-1.055213 2.04958,0.152073 2.04959,1.21224 2.04959,2.0883 2.04958,2.758958 2.04959,3.215427 2.04959,3.458862 2.04958,3.498278 2.04959,3.348894 2.04959,3.030764 2.04958,2.567687 2.04959,1.986283 2.04959,1.315217 2.04958,0.584496 2.04959,-0.175168 2.04959,-0.932987 2.04958,-1.658728 2.04959,-2.323379 2.04959,-2.899835 2.04959,-3.363652 2.04958,-3.693818 2.04959,-3.873569 2.04958,-3.8912 2.04959,-3.740864 2.04959,-3.423285 2.04959,-2.946372 2.04958,-2.325638 2.04959,-1.584371 2.04959,-0.753479 2.04958,0.129051 2.04959,1.019178 2.04959,1.868332 2.04958,2.625494 2.04959,3.239812 2.04959,3.663713 2.04958,3.856396 2.04959,3.787545 2.04959,3.441017 2.04958,2.818199 2.04959,1.940667 2.04959,0.851739 2.04958,-0.383507 2.04959,-1.680129 2.04959,-2.937431 2.04958,-4.045445 2.04959,-4.893674 2.04959,-5.381768 2.04959,-5.431376 2.04958,-4.998112 2.04959,-4.082233 2.04958,-2.736323 2.04959,-1.068264 2.04959,0.762159 2.04958,2.554182 2.04959,4.0849 2.04959,5.135293 2.04959,5.521352 2.04958,5.126705 2.04959,3.93182 2.04959,2.03403 2.04958,-0.347514 2.04959,-2.886712 2.04959,-5.187563 2.04958,-6.842038 2.04959,-7.502705 2.04959,-6.959079 2.04958,-5.202619 2.04959,-2.463374 2.04959,0.797161 2.04958,3.946391 2.04959,6.293222 2.04959,7.238345 2.04958,6.433462 2.04959,3.909971 2.04959,0.134713 2.04958,-4.040796 2.04959,-7.549302 2.04959,-9.373725 2.04959,-8.852357 2.04958,-5.93653 2.04959,-1.305489 2.04958,3.73438 2.04959,7.58255 2.04959,8.846001 2.04959,6.864967 2.04958,2.069382 2.04959,-4.012511 2.04959,-9.177335"
           style="fill:none;stroke:#0000ff;stroke-width:3;stroke-linecap:butt;stroke-linejoin:round;stroke-miterlimit:100;stroke-dasharray:none;stroke-dashoffset:0"
           id="path347"
           inkscape:connector-curvature="0" />
      </g>
    </g>
    <g
       id="axes_2"
       style="stroke-linecap:butt;stroke-linejoin:round;stroke-miterlimit:100000">
      <g
         id="line2d_47"
         style="stroke-width:3;stroke-linecap:butt;stroke-linejoin:round;stroke-miterlimit:100;stroke-dasharray:none"
         transform="translate(0,-88.5)">
        <path
           clip-path="url(#pb2cfe18bd4)"
           d="m 40.339375,157.57481 2.049587,5.76643 2.049587,4.41433 2.049586,2.55302 2.049587,0.42345 2.049587,-1.69873 2.049587,-3.53878 2.049586,-4.85854 2.049587,-5.48713 2.049587,-5.34322 2.049587,-4.44541 2.049587,-2.90994 2.049586,-0.93555 2.049587,1.22215 2.049587,3.28386 2.049587,4.98271 2.049586,6.09877 2.049587,6.48755 2.049587,6.09877 2.049587,4.98271 2.049587,3.28386 2.049586,1.22215 2.049587,-0.93555 2.049587,-2.90993 2.049587,-4.44542 2.049586,-5.34322 2.049587,-5.48713 2.049587,-4.85854 2.049587,-3.53878 2.049587,-1.69873 2.049588,0.42345 2.04959,2.55302 2.04958,4.41433 2.04959,5.76643 2.04958,6.43428 2.04959,6.33145 2.04959,5.47123 2.04959,3.96499 2.04958,2.00771 2.04959,-0.14726 2.04959,-2.22095 2.04958,-3.94492 2.04959,-5.096 2.04959,-5.5252 2.04958,-5.17696 2.04959,-4.09634 2.04959,-2.42324 2.04958,-0.37425 2.04959,1.78543 2.04959,3.77618 2.04958,5.34033 2.04959,6.27541 2.04959,6.46036 2.04958,5.87124 2.04959,4.58431 2.04959,2.76616 2.04958,0.65217 2.04959,-1.48404 2.04959,-3.36592 2.04958,-4.74987 2.04959,-5.45675 2.04959,-5.39502 2.04958,-4.57272 2.04959,-3.09625 2.04959,-1.15677 2.04958,0.99468 2.04959,3.07957 2.04959,4.82805 2.04959,6.01375 2.04958,6.48321 2.04959,6.17562 2.04959,5.13085 2.04958,3.48409 2.04959,1.44855 2.04959,-0.71228 2.04958,-2.71871 2.04959,-4.31096 2.04959,-5.28297 2.04958,-5.50888 2.04959,-4.95946 2.04959,-3.70582 2.04958,-1.91025 2.04959,0.19481 2.04959,2.33688 2.04958,4.23865 2.04959,5.65395 2.04959,6.39958 2.04958,6.379 2.04959,5.59489 2.04959,4.14875 2.04958,2.22777 2.04959,0.0806 2.04959,-2.01473 2.04958,-3.78708 2.04959,-5.00696 2.04959,-5.5165 2.04959,-5.2497 2.04958,-4.24113 2.04959,-2.62133 2.04959,-0.59998"
           style="fill:none;stroke:#ff0000;stroke-width:3;stroke-linecap:butt;stroke-linejoin:round;stroke-miterlimit:100;stroke-dasharray:none;stroke-dashoffset:0"
           id="path611"
           inkscape:connector-curvature="0" />
      </g>
      <g
         id="line2d_58"
         transform="translate(0,-88.5)"
         style="stroke-linecap:butt;stroke-linejoin:round;stroke-miterlimit:100000">
        <path
           clip-path="url(#pb2cfe18bd4)"
           d="m 263.53937,157.57481 2.04959,10.1448 2.04959,3.03744 2.04958,-4.87699 2.04959,-9.83357 2.04959,-9.68633 2.04959,-4.75116 2.04958,2.54561 2.04959,8.91276 2.04959,11.68276 2.04958,9.87847 2.04959,4.46458 2.04959,-2.21656 2.04958,-7.4947 2.04959,-9.43281 2.04959,-7.48976 2.04958,-2.5883 2.04959,3.35838 2.04959,8.21772 2.04958,10.39482 2.04959,9.31653 2.04959,5.51739 2.04958,0.35515 2.04959,-4.49984 2.04959,-7.60875 2.04958,-8.16951 2.04959,-6.18235 2.04959,-2.36285 2.04958,2.1348 2.04959,6.078 2.04959,8.48867 2.04959,8.86456 2.04958,7.24935 2.04959,4.15804 2.04958,0.39929 2.04959,-3.14577 2.04959,-5.72905 2.04959,-6.88147 2.04958,-6.47678 2.04959,-4.71369 2.04959,-2.03424 2.04958,0.9935 2.04959,3.7989 2.04959,5.91285 2.04958,7.03672 2.04959,7.06967 2.04959,6.09744 2.04958,4.3518 2.04959,2.15308 2.04959,-0.15126 2.04958,-2.24157 2.04959,-3.86693 2.04959,-4.86903 2.04958,-5.18846 2.04959,-4.85665 2.04959,-3.97709 2.04958,-2.70113 2.04959,-1.20225 2.04959,0.34717 2.04958,1.79447 2.04959,3.01931 2.04959,3.94022 2.04959,4.51559 2.04958,4.74037 2.04959,4.63973 2.04958,4.26109 2.04959,3.6658 2.04959,2.92126 2.04959,2.09423 2.04958,1.24579 2.04959,0.4277 2.04959,-0.31946 2.04958,-0.96691 2.04959,-1.49722 2.04959,-1.90311 2.04958,-2.18576 2.04959,-2.35293 2.04959,-2.41699 2.04958,-2.39328 2.04959,-2.29848 2.04959,-2.14939 2.04958,-1.96197 2.04959,-1.75073 2.04959,-1.52824 2.04958,-1.30496 2.04959,-1.08924 2.04959,-0.88737 2.04959,-0.70379 2.04958,-0.54129 2.04959,-0.4013 2.04958,-0.28406 2.04959,-0.18899 2.04959,-0.11475 2.04958,-0.0596 2.04959,-0.0212 2.04959,0.003 2.04959,0.0145 2.04958,0.017 2.04959,0.0129 2.04959,0.005"
           style="fill:none;stroke:#ff0000;stroke-width:3;stroke-linecap:butt;stroke-linejoin:round;stroke-miterlimit:100;stroke-dasharray:none;stroke-dashoffset:0"
           id="path644"
           inkscape:connector-curvature="0" />
      </g>
      <g
         id="line2d_71"
         style="stroke-width:3;stroke-linecap:butt;stroke-linejoin:round;stroke-miterlimit:100;stroke-dasharray:none"
         transform="translate(0,-88.5)">
        <path
           clip-path="url(#pb2cfe18bd4)"
           d="m 486.73937,157.57481 2.04959,3.01996 2.04959,2.77294 2.04958,2.43762 2.04959,2.02305 2.04959,1.54133 2.04959,1.00734 2.04958,0.43828 2.04959,-0.1467 2.04959,-0.72716 2.04958,-1.28208 2.04959,-1.79046 2.04959,-2.23225 2.04958,-2.58901 2.04959,-2.84481 2.04959,-2.98688 2.04958,-3.0063 2.04959,-2.89857 2.04959,-2.66401 2.04958,-2.30803 2.04959,-1.84119 2.04959,-1.27904 2.04958,-0.64184 2.04959,0.0462 2.04959,0.75737 2.04958,1.46192 2.04959,2.12885 2.04959,2.72737 2.04958,3.22828 2.04959,3.60539 2.04959,3.83693 2.04958,3.90689 2.04959,3.8061 2.04959,3.53317 2.04959,3.09512 2.04958,2.50752 2.04959,1.79443 2.04959,0.98761 2.04958,0.12559 2.04959,-0.74801 2.04959,-1.58638 2.04958,-2.3419 2.04959,-2.96864 2.04959,-3.42527 2.04958,-3.6776 2.04959,-3.70138 2.04959,-3.48445 2.04958,-3.02859 2.04959,-2.3505 2.04959,-1.48221 2.04958,-0.47026 2.04959,0.62604 2.04959,1.73732 2.04958,2.78806 2.04959,3.70129 2.04959,4.40398 2.04959,4.83278 2.04958,4.93985 2.04959,4.69821 2.04958,4.10611 2.04959,3.19003 2.04959,2.00575 2.04959,0.63704 2.04958,-0.8083 2.04959,-2.2051 2.04959,-3.42017 2.04958,-4.32399 2.04959,-4.8038 2.04959,-4.7775 2.04958,-4.20656 2.04959,-3.10672 2.04959,-1.55462 2.04958,0.31128 2.04959,2.29708 2.04959,4.16804 2.04958,5.67164 2.04959,6.56836 2.04959,6.66793 2.04958,5.86744 2.04959,4.18579 2.04959,1.788 2.04958,-1.00847 2.04959,-3.75295 2.04959,-5.91223 2.04958,-6.95549 2.04959,-6.46958 2.04959,-4.29231 2.04958,-0.63909 2.04959,3.81459 2.04959,7.94542 2.04958,10.34691 2.04959,9.69662 2.04959,5.34113 2.04959,-1.97196 2.04958,-9.45423 2.04959,-12.27159 2.04959,-5.22325 2.04958,12.03384 2.04959,23.11878 2.04959,-26.88938"
           style="fill:none;stroke:#ff0000;stroke-width:3;stroke-linecap:butt;stroke-linejoin:round;stroke-miterlimit:100;stroke-dasharray:none;stroke-dashoffset:0"
           id="path683"
           inkscape:connector-curvature="0" />
      </g>
      <g
         id="line2d_82"
         style="stroke-width:3;stroke-linecap:butt;stroke-linejoin:round;stroke-miterlimit:100;stroke-dasharray:none"
         transform="translate(0,-88.5)">
        <path
           clip-path="url(#pb2cfe18bd4)"
           d="m 709.93938,157.57481 2.04958,9.17734 2.04959,4.01251 2.04958,-2.06939 2.04959,-6.86496 2.04959,-8.846 2.04959,-7.58255 2.04958,-3.73438 2.04959,1.30549 2.04959,5.93652 2.04958,8.85236 2.04959,9.37373 2.04959,7.5493 2.04958,4.04079 2.04959,-0.13471 2.04959,-3.90997 2.04958,-6.43346 2.04959,-7.23835 2.04959,-6.29322 2.04958,-3.94639 2.04959,-0.79716 2.04959,2.46337 2.04958,5.20262 2.04959,6.95908 2.04959,7.50271 2.04958,6.84204 2.04959,5.18756 2.04959,2.88671 2.04958,0.34751 2.04959,-2.03403 2.04959,-3.93182 2.04959,-5.1267 2.04958,-5.52135 2.04959,-5.1353 2.04958,-4.08489 2.04959,-2.55419 2.04959,-0.76216 2.04959,1.06827 2.04958,2.73632 2.04959,4.08223 2.04959,4.99812 2.04958,5.43137 2.04959,5.38177 2.04959,4.89367 2.04958,4.04545 2.04959,2.93743 2.04959,1.68013 2.04958,0.38351 2.04959,-0.85174 2.04959,-1.94067 2.04958,-2.8182 2.04959,-3.44102 2.04959,-3.78754 2.04958,-3.8564 2.04959,-3.66371 2.04959,-3.23981 2.04958,-2.6255 2.04959,-1.86833 2.04959,-1.01918 2.04959,-0.12905 2.04958,0.75348 2.04959,1.58437 2.04958,2.32564 2.04959,2.94637 2.04959,3.42329 2.04958,3.74086 2.04959,3.8912 2.04959,3.87357 2.04959,3.69382 2.04958,3.36365 2.04959,2.89984 2.04959,2.32337 2.04958,1.65873 2.04959,0.93299 2.04959,0.17517 2.04958,-0.5845 2.04959,-1.31522 2.04959,-1.98628 2.04958,-2.56769 2.04959,-3.03076 2.04959,-3.34889 2.04958,-3.49828 2.04959,-3.45886 2.04959,-3.21543 2.04958,-2.75896 2.04959,-2.0883 2.04959,-1.21224 2.04958,-0.15207 2.04959,1.05521 2.04959,2.35303 2.04959,3.6604 2.04958,4.86614 2.04959,5.82182 2.04958,6.33347 2.04959,6.15167 2.04959,4.96042 2.04959,2.36526 2.04958,-2.11562 2.04959,-9.03504 2.04959,-18.09369"
           style="fill:none;stroke:#ff0000;stroke-width:3;stroke-linecap:butt;stroke-linejoin:round;stroke-miterlimit:100;stroke-dasharray:none;stroke-dashoffset:0"
           id="path716"
           inkscape:connector-curvature="0" />
      </g>
    </g>
    <g
       id="axes_3"
       transform="translate(0,6)"
       style="stroke-linecap:butt;stroke-linejoin:round;stroke-miterlimit:100000">
      <g
         id="line2d_93"
         style="stroke-width:3;stroke-linecap:butt;stroke-linejoin:round;stroke-miterlimit:100;stroke-dasharray:none"
         transform="translate(0,-105)">
        <path
           clip-path="url(#p4b6d7cec3a)"
           d="m 40.339375,264.48982 2.049587,2.53098 2.049587,7.26033 2.049586,11.03616 2.049587,13.36423 2.049587,13.94248 2.049587,12.70076 2.049586,9.80924 2.049587,5.65502 2.049587,0.7896 2.049587,-4.14507 2.049587,-8.50234 2.049586,-11.71655 2.049587,-13.37729 2.049587,-13.28242 2.049587,-11.46273 2.049586,-8.17554 2.049587,-3.86805 2.049587,0.88403 2.049587,5.45422 2.049587,9.24876 2.049586,11.78444 2.049587,12.75088 2.049587,12.04859 2.049587,9.79859 2.049586,6.32262 2.049587,2.09696 2.049587,-2.31321 2.049587,-6.33015 2.049587,-9.43977 2.049588,-11.25805 2.04959,-11.57863 2.04958,-10.39585 2.04959,-7.90072 2.04958,-4.45092 2.04959,-0.51955 2.04959,3.37 2.04959,6.71424 2.04958,9.09509 2.04959,10.23229 2.04959,10.0162 2.04958,8.51696 2.04959,5.96976 2.04959,2.73874 2.04958,-0.73485 2.04959,-3.9931 2.04959,-6.622 2.04958,-8.30403 2.04959,-8.85637 2.04959,-8.24986 2.04958,-6.60715 2.04959,-4.18086 2.04959,-1.31553 2.04958,1.60104 2.04959,4.19023 2.04959,6.13164 2.04958,7.20257 2.04959,7.30284 2.04959,6.46263 2.04958,4.83278 2.04959,2.65961 2.04959,0.24856 2.04958,-2.07851 2.04959,-4.02594 2.04959,-5.36162 2.04958,-5.9441 2.04959,-5.73653 2.04959,-4.80619 2.04959,-3.31042 2.04958,-1.47147 2.04959,0.45579 2.04959,2.21887 2.04958,3.60026 2.04959,4.44384 2.04959,4.67179 2.04958,4.29023 2.04959,3.38364 2.04959,2.0994 2.04958,0.62488 2.04959,-0.83921 2.04959,-2.10571 2.04958,-3.02447 2.04959,-3.49951 2.04959,-3.49819 2.04958,-3.0513 2.04959,-2.24515 2.04959,-1.20666 2.04958,-0.0843 2.04959,0.97244 2.04959,1.83284 2.04958,2.40024 2.04959,2.62242 2.04959,2.49527 2.04958,2.05991 2.04959,1.39418 2.04959,0.6 2.04959,-0.21167 2.04958,-0.93576 2.04959,-1.48627 2.04959,-1.80595"
           style="fill:none;stroke:#008000;stroke-width:3;stroke-linecap:butt;stroke-linejoin:round;stroke-miterlimit:100;stroke-dasharray:none;stroke-dashoffset:0"
           id="path970"
           inkscape:connector-curvature="0" />
      </g>
      <g
         id="line2d_104"
         style="stroke-width:3;stroke-linecap:butt;stroke-linejoin:round;stroke-miterlimit:100;stroke-dasharray:none"
         transform="translate(0,-105)">
        <path
           clip-path="url(#p4b6d7cec3a)"
           d="m 263.53937,264.6155 2.04959,2.7e-4 2.04959,0.004 2.04958,0.0169 2.04959,0.0456 2.04959,0.0961 2.04959,0.17455 2.04958,0.28687 2.04959,0.43864 2.04959,0.6349 2.04958,0.87985 2.04959,1.17648 2.04959,1.52618 2.04958,1.92822 2.04959,2.37914 2.04959,2.87227 2.04958,3.397 2.04959,3.93844 2.04959,4.47679 2.04958,4.98738 2.04959,5.44061 2.04959,5.80252 2.04958,6.03588 2.04959,6.10169 2.04959,5.96162 2.04958,5.58091 2.04959,4.93206 2.04959,3.99891 2.04958,2.78115 2.04959,1.29847 2.04959,-0.40558 2.04959,-2.26132 2.04958,-4.17215 2.04959,-6.01677 2.04958,-7.65422 2.04959,-8.93283 2.04959,-9.70261 2.04959,-9.83105 2.04958,-9.22105 2.04959,-7.82956 2.04959,-5.68423 2.04958,-2.89577 2.04959,0.33759 2.04959,3.73597 2.04958,6.95626 2.04959,9.62389 2.04959,11.3764 2.04958,11.91526 2.04959,11.05958 2.04959,8.79336 2.04958,5.29643 2.04959,0.9499 2.04959,-3.6911 2.04958,-7.96024 2.04959,-11.17449 2.04959,-12.74962 2.04958,-12.31826 2.04959,-9.82761 2.04959,-5.5922 2.04958,-0.2812 2.04959,5.16947 2.04959,9.71598 2.04959,12.41307 2.04958,12.62929 2.04959,10.2212 2.04958,5.61692 2.04959,-0.22682 2.04959,-6.0036 2.04959,-10.3471 2.04958,-12.17069 2.04959,-10.97176 2.04959,-7.01029 2.04958,-1.2941 2.04959,4.65052 2.04959,9.18095 2.04958,11.01105 2.04959,9.61544 2.04959,5.42879 2.04958,-0.24586 2.04959,-5.61804 2.04959,-8.97771 2.04958,-9.26995 2.04959,-6.4736 2.04959,-1.63276 2.04958,3.49601 2.04959,7.07325 2.04959,7.85953 2.04959,5.68796 2.04958,1.52808 2.04959,-2.9027 2.04958,-5.83783 2.04959,-6.18681 2.04959,-3.97735 2.04958,-0.31549 2.04959,3.12674 2.04959,4.86984 2.04959,4.28453 2.04958,1.84117 2.04959,-1.16509 2.04959,-3.27432"
           style="fill:none;stroke:#008000;stroke-width:3;stroke-linecap:butt;stroke-linejoin:round;stroke-miterlimit:100;stroke-dasharray:none;stroke-dashoffset:0"
           id="path1003"
           inkscape:connector-curvature="0" />
      </g>
      <g
         id="line2d_115"
         style="stroke-width:3;stroke-linecap:butt;stroke-linejoin:round;stroke-miterlimit:100;stroke-dasharray:none"
         transform="translate(0,-105)">
        <path
           clip-path="url(#p4b6d7cec3a)"
           d="m 486.73937,264.57284 2.04959,73.18455 2.04959,-48.04242 2.04958,-22.80825 2.04959,14.72828 2.04959,28.69491 2.04959,21.51004 2.04958,5.32791 2.04959,-9.53945 2.04959,-17.74596 2.04958,-18.36998 2.04959,-13.22273 2.04959,-5.18732 2.04958,2.96838 2.04959,9.23964 2.04959,12.59298 2.04958,12.8822 2.04959,10.61194 2.04959,6.65534 2.04958,1.99558 2.04959,-2.47183 2.04959,-6.06364 2.04958,-8.36462 2.04959,-9.22762 2.04959,-8.73492 2.04958,-7.13764 2.04959,-4.78761 2.04959,-2.07252 2.04958,0.63837 2.04959,3.03415 2.04959,4.8868 2.04958,6.06131 2.04959,6.51367 2.04959,6.27981 2.04959,5.45851 2.04958,4.19159 2.04959,2.6435 2.04959,0.98268 2.04958,-0.63408 2.04959,-2.07366 2.04959,-3.23426 2.04958,-4.04941 2.04959,-4.48822 2.04959,-4.55282 2.04958,-4.27364 2.04959,-3.70327 2.04959,-2.9096 2.04958,-1.96889 2.04959,-0.95932 2.04959,0.0447 2.04958,0.97712 2.04959,1.78352 2.04959,2.42335 2.04958,2.87074 2.04959,3.11441 2.04959,3.15667 2.04959,3.0116 2.04958,2.70299 2.04959,2.26168 2.04958,1.7231 2.04959,1.12477 2.04959,0.50388 2.04959,-0.10464 2.04958,-0.66973 2.04959,-1.16549 2.04959,-1.57196 2.04958,-1.87551 2.04959,-2.0689 2.04959,-2.15094 2.04958,-2.12597 2.04959,-2.00309 2.04959,-1.79519 2.04958,-1.51804 2.04959,-1.18924 2.04959,-0.82722 2.04958,-0.45036 2.04959,-0.0761 2.04959,0.27953 2.04958,0.60284 2.04959,0.88247 2.04959,1.1099 2.04958,1.27942 2.04959,1.38816 2.04959,1.43593 2.04958,1.425 2.04959,1.35979 2.04959,1.24643 2.04958,1.09251 2.04959,0.90652 2.04959,0.69751 2.04958,0.47472 2.04959,0.24716 2.04959,0.0234 2.04959,-0.18896 2.04958,-0.38304 2.04959,-0.5533 2.04959,-0.69538 2.04958,-0.80625 2.04959,-0.88412 2.04959,-0.92851"
           style="fill:none;stroke:#008000;stroke-width:3;stroke-linecap:butt;stroke-linejoin:round;stroke-miterlimit:100;stroke-dasharray:none;stroke-dashoffset:0"
           id="path1036"
           inkscape:connector-curvature="0" />
      </g>
      <g
         id="line2d_126"
         style="stroke-width:3;stroke-linecap:butt;stroke-linejoin:round;stroke-miterlimit:100;stroke-dasharray:none"
         transform="translate(0,-105)">
        <path
           clip-path="url(#p4b6d7cec3a)"
           d="m 709.93938,264.69334 2.04958,47.66843 2.04959,23.07259 2.04958,6.43753 2.04959,-4.12759 2.04959,-10.1526 2.04959,-12.86338 2.04958,-13.23266 2.04959,-12.02432 2.04959,-9.83113 2.04958,-7.10646 2.04959,-4.191 2.04959,-1.33467 2.04958,1.28517 2.04959,3.54892 2.04959,5.38263 2.04958,6.74829 2.04959,7.63592 2.04959,8.05728 2.04958,8.04086 2.04959,7.62774 2.04959,6.86849 2.04958,5.82041 2.04959,4.54543 2.04959,3.10827 2.04958,1.57484 2.04959,0.0108 2.04959,-1.5199 2.04958,-2.95615 2.04959,-4.2413 2.04959,-5.32433 2.04959,-6.16135 2.04958,-6.71695 2.04959,-6.96567 2.04958,-6.89316 2.04959,-6.49749 2.04959,-5.78996 2.04959,-4.79575 2.04958,-3.55406 2.04959,-2.11763 2.04959,-0.55182 2.04958,1.06746 2.04959,2.65618 2.04959,4.12593 2.04958,5.38815 2.04959,6.35926 2.04959,6.96633 2.04958,7.1529 2.04959,6.88478 2.04959,6.15525 2.04958,4.98898 2.04959,3.44443 2.04959,1.61366 2.04958,-0.38043 2.04959,-2.39027 2.04959,-4.25298 2.04958,-5.80294 2.04959,-6.88666 2.04959,-7.37934 2.04959,-7.20108 2.04958,-6.33128 2.04959,-4.81876 2.04958,-2.78572 2.04959,-0.42336 2.04959,2.02164 2.04958,4.27031 2.04959,6.0428 2.04959,7.09516 2.04959,7.25739 2.04958,6.46663 2.04959,4.78979 2.04959,2.42916 2.04958,-0.29296 2.04959,-2.97241 2.04959,-5.18129 2.04958,-6.53956 2.04959,-6.7883 2.04959,-5.85074 2.04958,-3.86619 2.04959,-1.18449 2.04959,1.68452 2.04958,4.16334 2.04959,5.72651 2.04959,6.02358 2.04958,4.97586 2.04959,2.81748 2.04959,0.0619 2.04958,-2.60844 2.04959,-4.51118 2.04959,-5.14948 2.04959,-4.36371 2.04958,-2.39715 2.04959,0.15525 2.04958,2.51338 2.04959,3.95202 2.04959,4.04071 2.04959,2.7994 2.04958,0.70462 2.04959,-1.47053 2.04959,-2.93631"
           style="fill:none;stroke:#008000;stroke-width:3;stroke-linecap:butt;stroke-linejoin:round;stroke-miterlimit:100;stroke-dasharray:none;stroke-dashoffset:0"
           id="path1069"
           inkscape:connector-curvature="0" />
      </g>
    </g>
    <g
       id="axes_4"
       style="stroke-linecap:butt;stroke-linejoin:round;stroke-miterlimit:100000">
      <g
         id="line2d_137"
         style="stroke-width:3;stroke-linecap:butt;stroke-linejoin:round;stroke-miterlimit:100;stroke-dasharray:none"
         transform="translate(0,-91.5)">
        <path
           clip-path="url(#p9dad443693)"
           d="m 40.339375,425.31803 2.049587,1.80596 2.049587,1.48626 2.049586,0.93576 2.049587,0.21168 2.049587,-0.6 2.049587,-1.39419 2.049586,-2.0599 2.049587,-2.49527 2.049587,-2.62242 2.049587,-2.40024 2.049587,-1.83284 2.049586,-0.97245 2.049587,0.0843 2.049587,1.20666 2.049587,2.24515 2.049586,3.05131 2.049587,3.49819 2.049587,3.49951 2.049587,3.02446 2.049587,2.10571 2.049586,0.83922 2.049587,-0.62488 2.049587,-2.0994 2.049587,-3.38364 2.049586,-4.29023 2.049587,-4.67179 2.049587,-4.44385 2.049587,-3.60026 2.049587,-2.21886 2.049588,-0.4558 2.04959,1.47148 2.04958,3.31042 2.04959,4.80618 2.04958,5.73653 2.04959,5.94411 2.04959,5.36162 2.04959,4.02594 2.04958,2.07851 2.04959,-0.24856 2.04959,-2.65962 2.04958,-4.83277 2.04959,-6.46264 2.04959,-7.30284 2.04958,-7.20256 2.04959,-6.13165 2.04959,-4.19022 2.04958,-1.60104 2.04959,1.31553 2.04959,4.18086 2.04958,6.60715 2.04959,8.24986 2.04959,8.85636 2.04958,8.30404 2.04959,6.622 2.04959,3.9931 2.04958,0.73484 2.04959,-2.73874 2.04959,-5.96975 2.04958,-8.51696 2.04959,-10.0162 2.04959,-10.2323 2.04958,-9.09508 2.04959,-6.71424 2.04959,-3.37 2.04958,0.51955 2.04959,4.45091 2.04959,7.90072 2.04959,10.39586 2.04958,11.57863 2.04959,11.25805 2.04959,9.43977 2.04958,6.33014 2.04959,2.31322 2.04959,-2.09696 2.04958,-6.32262 2.04959,-9.79859 2.04959,-12.04859 2.04958,-12.75088 2.04959,-11.78445 2.04959,-9.24875 2.04958,-5.45423 2.04959,-0.88403 2.04959,3.86806 2.04958,8.17554 2.04959,11.46273 2.04959,13.28241 2.04958,13.3773 2.04959,11.71655 2.04959,8.50234 2.04958,4.14507 2.04959,-0.7896 2.04959,-5.65502 2.04958,-9.80924 2.04959,-12.70076 2.04959,-13.94249 2.04959,-13.36422 2.04958,-11.03616 2.04959,-7.26034 2.04959,-2.53097"
           style="fill:none;stroke:#000000;stroke-width:3;stroke-linecap:butt;stroke-linejoin:round;stroke-miterlimit:100;stroke-dasharray:none;stroke-dashoffset:0"
           id="path1323"
           inkscape:connector-curvature="0" />
      </g>
      <g
         id="line2d_148"
         style="stroke-width:3;stroke-linecap:butt;stroke-linejoin:round;stroke-miterlimit:100;stroke-dasharray:none"
         transform="translate(0,-91.5)">
        <path
           clip-path="url(#p9dad443693)"
           d="m 263.53937,425.37825 2.04959,3.27432 2.04959,1.16509 2.04958,-1.84117 2.04959,-4.28454 2.04959,-4.86984 2.04959,-3.12673 2.04958,0.31548 2.04959,3.97736 2.04959,6.1868 2.04958,5.83783 2.04959,2.9027 2.04959,-1.52808 2.04958,-5.68795 2.04959,-7.85954 2.04959,-7.07325 2.04958,-3.496 2.04959,1.63275 2.04959,6.47361 2.04958,9.26994 2.04959,8.97772 2.04959,5.61803 2.04958,0.24586 2.04959,-5.42879 2.04959,-9.61544 2.04958,-11.01105 2.04959,-9.18094 2.04959,-4.65052 2.04958,1.2941 2.04959,7.01029 2.04959,10.97175 2.04959,12.1707 2.04958,10.34709 2.04959,6.0036 2.04958,0.22682 2.04959,-5.61691 2.04959,-10.22121 2.04959,-12.62929 2.04958,-12.41306 2.04959,-9.71598 2.04959,-5.16947 2.04958,0.2812 2.04959,5.59219 2.04959,9.82762 2.04958,12.31825 2.04959,12.74962 2.04959,11.1745 2.04958,7.96024 2.04959,3.6911 2.04959,-0.94991 2.04958,-5.29642 2.04959,-8.79336 2.04959,-11.05959 2.04958,-11.91525 2.04959,-11.3764 2.04959,-9.62389 2.04958,-6.95626 2.04959,-3.73597 2.04959,-0.3376 2.04958,2.89577 2.04959,5.68424 2.04959,7.82955 2.04959,9.22106 2.04958,9.83104 2.04959,9.70261 2.04958,8.93283 2.04959,7.65423 2.04959,6.01676 2.04959,4.17216 2.04958,2.26131 2.04959,0.40559 2.04959,-1.29848 2.04958,-2.78114 2.04959,-3.99892 2.04959,-4.93205 2.04958,-5.58092 2.04959,-5.96162 2.04959,-6.10169 2.04958,-6.03587 2.04959,-5.80253 2.04959,-5.4406 2.04958,-4.98739 2.04959,-4.47679 2.04959,-3.93843 2.04958,-3.39701 2.04959,-2.87226 2.04959,-2.37915 2.04959,-1.92821 2.04958,-1.52619 2.04959,-1.17648 2.04958,-0.87985 2.04959,-0.6349 2.04959,-0.43864 2.04958,-0.28686 2.04959,-0.17455 2.04959,-0.0961 2.04959,-0.0456 2.04958,-0.017 2.04959,-0.004 2.04959,-2.6e-4"
           style="fill:none;stroke:#000000;stroke-width:3;stroke-linecap:butt;stroke-linejoin:round;stroke-miterlimit:100;stroke-dasharray:none;stroke-dashoffset:0"
           id="path1356"
           inkscape:connector-curvature="0" />
      </g>
      <g
         id="line2d_159"
         style="stroke-width:3;stroke-linecap:butt;stroke-linejoin:round;stroke-miterlimit:100;stroke-dasharray:none"
         transform="translate(0,-91.5)">
        <path
           clip-path="url(#p9dad443693)"
           d="m 486.73937,425.35781 2.04959,0.92851 2.04959,0.88412 2.04958,0.80624 2.04959,0.69538 2.04959,0.55331 2.04959,0.38304 2.04958,0.18896 2.04959,-0.0234 2.04959,-0.24716 2.04958,-0.47472 2.04959,-0.69751 2.04959,-0.90652 2.04958,-1.09251 2.04959,-1.24644 2.04959,-1.35978 2.04958,-1.42501 2.04959,-1.43593 2.04959,-1.38815 2.04958,-1.27942 2.04959,-1.1099 2.04959,-0.88248 2.04958,-0.60283 2.04959,-0.27954 2.04959,0.0761 2.04958,0.45036 2.04959,0.82722 2.04959,1.18924 2.04958,1.51804 2.04959,1.79519 2.04959,2.00308 2.04958,2.12598 2.04959,2.15094 2.04959,2.0689 2.04959,1.87551 2.04958,1.57196 2.04959,1.16549 2.04959,0.66972 2.04958,0.10464 2.04959,-0.50387 2.04959,-1.12477 2.04958,-1.72311 2.04959,-2.26167 2.04959,-2.70299 2.04958,-3.01161 2.04959,-3.15666 2.04959,-3.11442 2.04958,-2.87073 2.04959,-2.42335 2.04959,-1.78352 2.04958,-0.97712 2.04959,-0.0447 2.04959,0.95933 2.04958,1.96889 2.04959,2.9096 2.04959,3.70327 2.04959,4.27364 2.04958,4.55281 2.04959,4.48823 2.04958,4.04941 2.04959,3.23426 2.04959,2.07365 2.04959,0.63409 2.04958,-0.98269 2.04959,-2.64349 2.04959,-4.19159 2.04958,-5.45852 2.04959,-6.2798 2.04959,-6.51368 2.04958,-6.0613 2.04959,-4.8868 2.04959,-3.03415 2.04958,-0.63837 2.04959,2.07252 2.04959,4.7876 2.04958,7.13764 2.04959,8.73492 2.04959,9.22763 2.04958,8.36462 2.04959,6.06364 2.04959,2.47182 2.04958,-1.99558 2.04959,-6.65533 2.04959,-10.61194 2.04958,-12.8822 2.04959,-12.59299 2.04959,-9.23964 2.04958,-2.96837 2.04959,5.18731 2.04959,13.22273 2.04958,18.36999 2.04959,17.74595 2.04959,9.53946 2.04959,-5.32792 2.04958,-21.51004 2.04959,-28.6949 2.04959,-14.72828 2.04958,22.80825 2.04959,48.04242 2.04959,-73.18455"
           style="fill:none;stroke:#000000;stroke-width:3;stroke-linecap:butt;stroke-linejoin:round;stroke-miterlimit:100;stroke-dasharray:none;stroke-dashoffset:0"
           id="path1389"
           inkscape:connector-curvature="0" />
      </g>
      <g
         id="line2d_170"
         style="stroke-width:3;stroke-linecap:butt;stroke-linejoin:round;stroke-miterlimit:100;stroke-dasharray:none"
         transform="translate(0,-91.5)">
        <path
           clip-path="url(#p9dad443693)"
           d="m 709.93938,425.41554 2.04958,2.9363 2.04959,1.47054 2.04958,-0.70462 2.04959,-2.79941 2.04959,-4.04071 2.04959,-3.95201 2.04958,-2.51339 2.04959,-0.15524 2.04959,2.39715 2.04958,4.3637 2.04959,5.14948 2.04959,4.51118 2.04958,2.60845 2.04959,-0.062 2.04959,-2.81747 2.04958,-4.97586 2.04959,-6.02359 2.04959,-5.7265 2.04958,-4.16334 2.04959,-1.68452 2.04959,1.18449 2.04958,3.86619 2.04959,5.85074 2.04959,6.78829 2.04958,6.53957 2.04959,5.18129 2.04959,2.9724 2.04958,0.29297 2.04959,-2.42917 2.04959,-4.78979 2.04959,-6.46663 2.04958,-7.25738 2.04959,-7.09517 2.04958,-6.04279 2.04959,-4.27031 2.04959,-2.02164 2.04959,0.42336 2.04958,2.78571 2.04959,4.81877 2.04959,6.33128 2.04958,7.20108 2.04959,7.37934 2.04959,6.88666 2.04958,5.80293 2.04959,4.25299 2.04959,2.39026 2.04958,0.38043 2.04959,-1.61366 2.04959,-3.44442 2.04958,-4.98899 2.04959,-6.15524 2.04959,-6.88479 2.04958,-7.15289 2.04959,-6.96633 2.04959,-6.35927 2.04958,-5.38814 2.04959,-4.12593 2.04959,-2.65619 2.04959,-1.06745 2.04958,0.55181 2.04959,2.11764 2.04958,3.55405 2.04959,4.79575 2.04959,5.78996 2.04958,6.49749 2.04959,6.89317 2.04959,6.96566 2.04959,6.71696 2.04958,6.16135 2.04959,5.32432 2.04959,4.2413 2.04958,2.95616 2.04959,1.51989 2.04959,-0.0108 2.04958,-1.57483 2.04959,-3.10827 2.04959,-4.54543 2.04958,-5.82041 2.04959,-6.86849 2.04959,-7.62775 2.04958,-8.04085 2.04959,-8.05729 2.04959,-7.63591 2.04958,-6.74829 2.04959,-5.38263 2.04959,-3.54892 2.04958,-1.28517 2.04959,1.33467 2.04959,4.191 2.04959,7.10646 2.04958,9.83112 2.04959,12.02433 2.04958,13.23265 2.04959,12.86338 2.04959,10.15261 2.04959,4.12758 2.04958,-6.43752 2.04959,-23.07259 2.04959,-47.66843"
           style="fill:none;stroke:#000000;stroke-width:3;stroke-linecap:butt;stroke-linejoin:round;stroke-miterlimit:100;stroke-dasharray:none;stroke-dashoffset:0"
           id="path1422"
           inkscape:connector-curvature="0" />
      </g>
    </g>
  </g>
  <defs
     id="defs1469">
    <clipPath
       id="p4b6d7cec3a"
       style="stroke-linecap:butt;stroke-linejoin:round;stroke-miterlimit:100000">
      <rect
         height="100.17391"
         width="892.79999"
         x="40.339375"
         y="253.42427"
         id="rect1457"
         style="stroke-linecap:butt;stroke-linejoin:round;stroke-miterlimit:100000" />
    </clipPath>
    <clipPath
       id="pb2cfe18bd4"
       style="stroke-linecap:butt;stroke-linejoin:round;stroke-miterlimit:100000">
      <rect
         height="100.17391"
         width="892.79999"
         x="40.339375"
         y="133.21558"
         id="rect1460"
         style="stroke-linecap:butt;stroke-linejoin:round;stroke-miterlimit:100000" />
    </clipPath>
    <clipPath
       id="pc21cc997d1"
       style="stroke-linecap:butt;stroke-linejoin:round;stroke-miterlimit:100000">
      <rect
         height="100.17391"
         width="892.79999"
         x="40.339375"
         y="13.006875"
         id="rect1463"
         style="stroke-linecap:butt;stroke-linejoin:round;stroke-miterlimit:100000" />
    </clipPath>
    <clipPath
       id="p9dad443693"
       style="stroke-linecap:butt;stroke-linejoin:round;stroke-miterlimit:100000">
      <rect
         height="100.17391"
         width="892.79999"
         x="40.339375"
         y="373.63297"
         id="rect1466"
         style="stroke-linecap:butt;stroke-linejoin:round;stroke-miterlimit:100000" />
    </clipPath>
  </defs>
</svg>
