<?xml version="1.0" encoding="utf-8" standalone="no"?>
<!DOCTYPE svg PUBLIC "-//W3C//DTD SVG 1.1//EN"
  "http://www.w3.org/Graphics/SVG/1.1/DTD/svg11.dtd">
<svg height="385.529583pt" version="1.1" viewBox="0 0 568.792187 385.529583" width="568.792187pt" xmlns="http://www.w3.org/2000/svg" xmlns:xlink="http://www.w3.org/1999/xlink">
 <metadata>
  <rdf:RDF xmlns:cc="http://creativecommons.org/ns#" xmlns:dc="http://purl.org/dc/elements/1.1/" xmlns:rdf="http://www.w3.org/1999/02/22-rdf-syntax-ns#">
   <cc:Work>
    <dc:type rdf:resource="http://purl.org/dc/dcmitype/StillImage"/>
    <dc:date>2022-11-29T14:02:35.383548</dc:date>
    <dc:format>image/svg+xml</dc:format>
    <dc:creator>
     <cc:Agent>
      <dc:title>Matplotlib v3.4.3, https://matplotlib.org/</dc:title>
     </cc:Agent>
    </dc:creator>
   </cc:Work>
  </rdf:RDF>
 </metadata>
 <defs>
  <style type="text/css">*{stroke-linecap:butt;stroke-linejoin:round;}</style>
 </defs>
 <g id="figure_1">
  <g id="patch_1">
   <path d="M 0 385.529583 
L 568.792187 385.529583 
L 568.792187 0 
L 0 0 
z
" style="fill:#ffffff;"/>
  </g>
  <g id="axes_1">
   <g id="patch_2">
    <path d="M 28.942188 361.651458 
L 184.792187 361.651458 
L 184.792187 221.384792 
L 28.942188 221.384792 
z
" style="fill:#ffffff;"/>
   </g>
   <g id="matplotlib.axis_1">
    <g id="xtick_1">
     <g id="line2d_1">
      <defs>
       <path d="M 0 0 
L 0 3.5 
" id="m5d4b0079a4" style="stroke:#000000;stroke-width:0.8;"/>
      </defs>
      <g>
       <use style="stroke:#000000;stroke-width:0.8;" x="36.026278" xlink:href="#m5d4b0079a4" y="361.651458"/>
      </g>
     </g>
     <g id="text_1">
      <!-- 0 -->
      <g transform="translate(32.845028 376.249896)scale(0.1 -0.1)">
       <defs>
        <path d="M 2034 4250 
Q 1547 4250 1301 3770 
Q 1056 3291 1056 2328 
Q 1056 1369 1301 889 
Q 1547 409 2034 409 
Q 2525 409 2770 889 
Q 3016 1369 3016 2328 
Q 3016 3291 2770 3770 
Q 2525 4250 2034 4250 
z
M 2034 4750 
Q 2819 4750 3233 4129 
Q 3647 3509 3647 2328 
Q 3647 1150 3233 529 
Q 2819 -91 2034 -91 
Q 1250 -91 836 529 
Q 422 1150 422 2328 
Q 422 3509 836 4129 
Q 1250 4750 2034 4750 
z
" id="DejaVuSans-30" transform="scale(0.015625)"/>
       </defs>
       <use xlink:href="#DejaVuSans-30"/>
      </g>
     </g>
    </g>
    <g id="xtick_2">
     <g id="line2d_2">
      <g>
       <use style="stroke:#000000;stroke-width:0.8;" x="83.253551" xlink:href="#m5d4b0079a4" y="361.651458"/>
      </g>
     </g>
     <g id="text_2">
      <!-- 2 -->
      <g transform="translate(80.072301 376.249896)scale(0.1 -0.1)">
       <defs>
        <path d="M 1228 531 
L 3431 531 
L 3431 0 
L 469 0 
L 469 531 
Q 828 903 1448 1529 
Q 2069 2156 2228 2338 
Q 2531 2678 2651 2914 
Q 2772 3150 2772 3378 
Q 2772 3750 2511 3984 
Q 2250 4219 1831 4219 
Q 1534 4219 1204 4116 
Q 875 4013 500 3803 
L 500 4441 
Q 881 4594 1212 4672 
Q 1544 4750 1819 4750 
Q 2544 4750 2975 4387 
Q 3406 4025 3406 3419 
Q 3406 3131 3298 2873 
Q 3191 2616 2906 2266 
Q 2828 2175 2409 1742 
Q 1991 1309 1228 531 
z
" id="DejaVuSans-32" transform="scale(0.015625)"/>
       </defs>
       <use xlink:href="#DejaVuSans-32"/>
      </g>
     </g>
    </g>
    <g id="xtick_3">
     <g id="line2d_3">
      <g>
       <use style="stroke:#000000;stroke-width:0.8;" x="130.480824" xlink:href="#m5d4b0079a4" y="361.651458"/>
      </g>
     </g>
     <g id="text_3">
      <!-- 4 -->
      <g transform="translate(127.299574 376.249896)scale(0.1 -0.1)">
       <defs>
        <path d="M 2419 4116 
L 825 1625 
L 2419 1625 
L 2419 4116 
z
M 2253 4666 
L 3047 4666 
L 3047 1625 
L 3713 1625 
L 3713 1100 
L 3047 1100 
L 3047 0 
L 2419 0 
L 2419 1100 
L 313 1100 
L 313 1709 
L 2253 4666 
z
" id="DejaVuSans-34" transform="scale(0.015625)"/>
       </defs>
       <use xlink:href="#DejaVuSans-34"/>
      </g>
     </g>
    </g>
    <g id="xtick_4">
     <g id="line2d_4">
      <g>
       <use style="stroke:#000000;stroke-width:0.8;" x="177.708097" xlink:href="#m5d4b0079a4" y="361.651458"/>
      </g>
     </g>
     <g id="text_4">
      <!-- 6 -->
      <g transform="translate(174.526847 376.249896)scale(0.1 -0.1)">
       <defs>
        <path d="M 2113 2584 
Q 1688 2584 1439 2293 
Q 1191 2003 1191 1497 
Q 1191 994 1439 701 
Q 1688 409 2113 409 
Q 2538 409 2786 701 
Q 3034 994 3034 1497 
Q 3034 2003 2786 2293 
Q 2538 2584 2113 2584 
z
M 3366 4563 
L 3366 3988 
Q 3128 4100 2886 4159 
Q 2644 4219 2406 4219 
Q 1781 4219 1451 3797 
Q 1122 3375 1075 2522 
Q 1259 2794 1537 2939 
Q 1816 3084 2150 3084 
Q 2853 3084 3261 2657 
Q 3669 2231 3669 1497 
Q 3669 778 3244 343 
Q 2819 -91 2113 -91 
Q 1303 -91 875 529 
Q 447 1150 447 2328 
Q 447 3434 972 4092 
Q 1497 4750 2381 4750 
Q 2619 4750 2861 4703 
Q 3103 4656 3366 4563 
z
" id="DejaVuSans-36" transform="scale(0.015625)"/>
       </defs>
       <use xlink:href="#DejaVuSans-36"/>
      </g>
     </g>
    </g>
   </g>
   <g id="matplotlib.axis_2">
    <g id="ytick_1">
     <g id="line2d_5">
      <defs>
       <path d="M 0 0 
L -3.5 0 
" id="md5380fd947" style="stroke:#000000;stroke-width:0.8;"/>
      </defs>
      <g>
       <use style="stroke:#000000;stroke-width:0.8;" x="28.942188" xlink:href="#md5380fd947" y="340.508321"/>
      </g>
     </g>
     <g id="text_5">
      <!-- −1 -->
      <g transform="translate(7.2 344.30754)scale(0.1 -0.1)">
       <defs>
        <path d="M 678 2272 
L 4684 2272 
L 4684 1741 
L 678 1741 
L 678 2272 
z
" id="DejaVuSans-2212" transform="scale(0.015625)"/>
        <path d="M 794 531 
L 1825 531 
L 1825 4091 
L 703 3866 
L 703 4441 
L 1819 4666 
L 2450 4666 
L 2450 531 
L 3481 531 
L 3481 0 
L 794 0 
L 794 531 
z
" id="DejaVuSans-31" transform="scale(0.015625)"/>
       </defs>
       <use xlink:href="#DejaVuSans-2212"/>
       <use x="83.789062" xlink:href="#DejaVuSans-31"/>
      </g>
     </g>
    </g>
    <g id="ytick_2">
     <g id="line2d_6">
      <g>
       <use style="stroke:#000000;stroke-width:0.8;" x="28.942188" xlink:href="#md5380fd947" y="309.81271"/>
      </g>
     </g>
     <g id="text_6">
      <!-- 0 -->
      <g transform="translate(15.579688 313.611928)scale(0.1 -0.1)">
       <use xlink:href="#DejaVuSans-30"/>
      </g>
     </g>
    </g>
    <g id="ytick_3">
     <g id="line2d_7">
      <g>
       <use style="stroke:#000000;stroke-width:0.8;" x="28.942188" xlink:href="#md5380fd947" y="279.117098"/>
      </g>
     </g>
     <g id="text_7">
      <!-- 1 -->
      <g transform="translate(15.579688 282.916317)scale(0.1 -0.1)">
       <use xlink:href="#DejaVuSans-31"/>
      </g>
     </g>
    </g>
    <g id="ytick_4">
     <g id="line2d_8">
      <g>
       <use style="stroke:#000000;stroke-width:0.8;" x="28.942188" xlink:href="#md5380fd947" y="248.421486"/>
      </g>
     </g>
     <g id="text_8">
      <!-- 2 -->
      <g transform="translate(15.579688 252.220705)scale(0.1 -0.1)">
       <use xlink:href="#DejaVuSans-32"/>
      </g>
     </g>
    </g>
   </g>
   <g id="line2d_9">
    <path clip-path="url(#p5f6168162d)" d="M 36.026278 300.358461 
L 59.639915 279.117098 
L 83.253551 345.235445 
L 106.867188 342.871883 
L 130.480824 349.962569 
L 154.09446 233.073681 
L 177.708097 349.962569 
" style="fill:none;stroke:#1f77b4;stroke-linecap:square;stroke-width:1.5;"/>
   </g>
   <g id="patch_3">
    <path d="M 28.942188 361.651458 
L 28.942188 221.384792 
" style="fill:none;stroke:#000000;stroke-linecap:square;stroke-linejoin:miter;stroke-width:0.8;"/>
   </g>
   <g id="patch_4">
    <path d="M 184.792187 361.651458 
L 184.792187 221.384792 
" style="fill:none;stroke:#000000;stroke-linecap:square;stroke-linejoin:miter;stroke-width:0.8;"/>
   </g>
   <g id="patch_5">
    <path d="M 28.942188 361.651458 
L 184.792187 361.651458 
" style="fill:none;stroke:#000000;stroke-linecap:square;stroke-linejoin:miter;stroke-width:0.8;"/>
   </g>
   <g id="patch_6">
    <path d="M 28.942188 221.384792 
L 184.792187 221.384792 
" style="fill:none;stroke:#000000;stroke-linecap:square;stroke-linejoin:miter;stroke-width:0.8;"/>
   </g>
   <g id="text_9">
    <!-- x critical points -->
    <g transform="translate(60.980312 201.947417)scale(0.12 -0.12)">
     <defs>
      <path d="M 3513 3500 
L 2247 1797 
L 3578 0 
L 2900 0 
L 1881 1375 
L 863 0 
L 184 0 
L 1544 1831 
L 300 3500 
L 978 3500 
L 1906 2253 
L 2834 3500 
L 3513 3500 
z
" id="DejaVuSans-78" transform="scale(0.015625)"/>
      <path id="DejaVuSans-20" transform="scale(0.015625)"/>
      <path d="M 3122 3366 
L 3122 2828 
Q 2878 2963 2633 3030 
Q 2388 3097 2138 3097 
Q 1578 3097 1268 2742 
Q 959 2388 959 1747 
Q 959 1106 1268 751 
Q 1578 397 2138 397 
Q 2388 397 2633 464 
Q 2878 531 3122 666 
L 3122 134 
Q 2881 22 2623 -34 
Q 2366 -91 2075 -91 
Q 1284 -91 818 406 
Q 353 903 353 1747 
Q 353 2603 823 3093 
Q 1294 3584 2113 3584 
Q 2378 3584 2631 3529 
Q 2884 3475 3122 3366 
z
" id="DejaVuSans-63" transform="scale(0.015625)"/>
      <path d="M 2631 2963 
Q 2534 3019 2420 3045 
Q 2306 3072 2169 3072 
Q 1681 3072 1420 2755 
Q 1159 2438 1159 1844 
L 1159 0 
L 581 0 
L 581 3500 
L 1159 3500 
L 1159 2956 
Q 1341 3275 1631 3429 
Q 1922 3584 2338 3584 
Q 2397 3584 2469 3576 
Q 2541 3569 2628 3553 
L 2631 2963 
z
" id="DejaVuSans-72" transform="scale(0.015625)"/>
      <path d="M 603 3500 
L 1178 3500 
L 1178 0 
L 603 0 
L 603 3500 
z
M 603 4863 
L 1178 4863 
L 1178 4134 
L 603 4134 
L 603 4863 
z
" id="DejaVuSans-69" transform="scale(0.015625)"/>
      <path d="M 1172 4494 
L 1172 3500 
L 2356 3500 
L 2356 3053 
L 1172 3053 
L 1172 1153 
Q 1172 725 1289 603 
Q 1406 481 1766 481 
L 2356 481 
L 2356 0 
L 1766 0 
Q 1100 0 847 248 
Q 594 497 594 1153 
L 594 3053 
L 172 3053 
L 172 3500 
L 594 3500 
L 594 4494 
L 1172 4494 
z
" id="DejaVuSans-74" transform="scale(0.015625)"/>
      <path d="M 2194 1759 
Q 1497 1759 1228 1600 
Q 959 1441 959 1056 
Q 959 750 1161 570 
Q 1363 391 1709 391 
Q 2188 391 2477 730 
Q 2766 1069 2766 1631 
L 2766 1759 
L 2194 1759 
z
M 3341 1997 
L 3341 0 
L 2766 0 
L 2766 531 
Q 2569 213 2275 61 
Q 1981 -91 1556 -91 
Q 1019 -91 701 211 
Q 384 513 384 1019 
Q 384 1609 779 1909 
Q 1175 2209 1959 2209 
L 2766 2209 
L 2766 2266 
Q 2766 2663 2505 2880 
Q 2244 3097 1772 3097 
Q 1472 3097 1187 3025 
Q 903 2953 641 2809 
L 641 3341 
Q 956 3463 1253 3523 
Q 1550 3584 1831 3584 
Q 2591 3584 2966 3190 
Q 3341 2797 3341 1997 
z
" id="DejaVuSans-61" transform="scale(0.015625)"/>
      <path d="M 603 4863 
L 1178 4863 
L 1178 0 
L 603 0 
L 603 4863 
z
" id="DejaVuSans-6c" transform="scale(0.015625)"/>
      <path d="M 1159 525 
L 1159 -1331 
L 581 -1331 
L 581 3500 
L 1159 3500 
L 1159 2969 
Q 1341 3281 1617 3432 
Q 1894 3584 2278 3584 
Q 2916 3584 3314 3078 
Q 3713 2572 3713 1747 
Q 3713 922 3314 415 
Q 2916 -91 2278 -91 
Q 1894 -91 1617 61 
Q 1341 213 1159 525 
z
M 3116 1747 
Q 3116 2381 2855 2742 
Q 2594 3103 2138 3103 
Q 1681 3103 1420 2742 
Q 1159 2381 1159 1747 
Q 1159 1113 1420 752 
Q 1681 391 2138 391 
Q 2594 391 2855 752 
Q 3116 1113 3116 1747 
z
" id="DejaVuSans-70" transform="scale(0.015625)"/>
      <path d="M 1959 3097 
Q 1497 3097 1228 2736 
Q 959 2375 959 1747 
Q 959 1119 1226 758 
Q 1494 397 1959 397 
Q 2419 397 2687 759 
Q 2956 1122 2956 1747 
Q 2956 2369 2687 2733 
Q 2419 3097 1959 3097 
z
M 1959 3584 
Q 2709 3584 3137 3096 
Q 3566 2609 3566 1747 
Q 3566 888 3137 398 
Q 2709 -91 1959 -91 
Q 1206 -91 779 398 
Q 353 888 353 1747 
Q 353 2609 779 3096 
Q 1206 3584 1959 3584 
z
" id="DejaVuSans-6f" transform="scale(0.015625)"/>
      <path d="M 3513 2113 
L 3513 0 
L 2938 0 
L 2938 2094 
Q 2938 2591 2744 2837 
Q 2550 3084 2163 3084 
Q 1697 3084 1428 2787 
Q 1159 2491 1159 1978 
L 1159 0 
L 581 0 
L 581 3500 
L 1159 3500 
L 1159 2956 
Q 1366 3272 1645 3428 
Q 1925 3584 2291 3584 
Q 2894 3584 3203 3211 
Q 3513 2838 3513 2113 
z
" id="DejaVuSans-6e" transform="scale(0.015625)"/>
      <path d="M 2834 3397 
L 2834 2853 
Q 2591 2978 2328 3040 
Q 2066 3103 1784 3103 
Q 1356 3103 1142 2972 
Q 928 2841 928 2578 
Q 928 2378 1081 2264 
Q 1234 2150 1697 2047 
L 1894 2003 
Q 2506 1872 2764 1633 
Q 3022 1394 3022 966 
Q 3022 478 2636 193 
Q 2250 -91 1575 -91 
Q 1294 -91 989 -36 
Q 684 19 347 128 
L 347 722 
Q 666 556 975 473 
Q 1284 391 1588 391 
Q 1994 391 2212 530 
Q 2431 669 2431 922 
Q 2431 1156 2273 1281 
Q 2116 1406 1581 1522 
L 1381 1569 
Q 847 1681 609 1914 
Q 372 2147 372 2553 
Q 372 3047 722 3315 
Q 1072 3584 1716 3584 
Q 2034 3584 2315 3537 
Q 2597 3491 2834 3397 
z
" id="DejaVuSans-73" transform="scale(0.015625)"/>
     </defs>
     <use xlink:href="#DejaVuSans-78"/>
     <use x="59.179688" xlink:href="#DejaVuSans-20"/>
     <use x="90.966797" xlink:href="#DejaVuSans-63"/>
     <use x="145.947266" xlink:href="#DejaVuSans-72"/>
     <use x="187.060547" xlink:href="#DejaVuSans-69"/>
     <use x="214.84375" xlink:href="#DejaVuSans-74"/>
     <use x="254.052734" xlink:href="#DejaVuSans-69"/>
     <use x="281.835938" xlink:href="#DejaVuSans-63"/>
     <use x="336.816406" xlink:href="#DejaVuSans-61"/>
     <use x="398.095703" xlink:href="#DejaVuSans-6c"/>
     <use x="425.878906" xlink:href="#DejaVuSans-20"/>
     <use x="457.666016" xlink:href="#DejaVuSans-70"/>
     <use x="521.142578" xlink:href="#DejaVuSans-6f"/>
     <use x="582.324219" xlink:href="#DejaVuSans-69"/>
     <use x="610.107422" xlink:href="#DejaVuSans-6e"/>
     <use x="673.486328" xlink:href="#DejaVuSans-74"/>
     <use x="712.695312" xlink:href="#DejaVuSans-73"/>
    </g>
    <!-- Deletion Cost=0.23 -->
    <g transform="translate(48.070937 215.384792)scale(0.12 -0.12)">
     <defs>
      <path d="M 1259 4147 
L 1259 519 
L 2022 519 
Q 2988 519 3436 956 
Q 3884 1394 3884 2338 
Q 3884 3275 3436 3711 
Q 2988 4147 2022 4147 
L 1259 4147 
z
M 628 4666 
L 1925 4666 
Q 3281 4666 3915 4102 
Q 4550 3538 4550 2338 
Q 4550 1131 3912 565 
Q 3275 0 1925 0 
L 628 0 
L 628 4666 
z
" id="DejaVuSans-44" transform="scale(0.015625)"/>
      <path d="M 3597 1894 
L 3597 1613 
L 953 1613 
Q 991 1019 1311 708 
Q 1631 397 2203 397 
Q 2534 397 2845 478 
Q 3156 559 3463 722 
L 3463 178 
Q 3153 47 2828 -22 
Q 2503 -91 2169 -91 
Q 1331 -91 842 396 
Q 353 884 353 1716 
Q 353 2575 817 3079 
Q 1281 3584 2069 3584 
Q 2775 3584 3186 3129 
Q 3597 2675 3597 1894 
z
M 3022 2063 
Q 3016 2534 2758 2815 
Q 2500 3097 2075 3097 
Q 1594 3097 1305 2825 
Q 1016 2553 972 2059 
L 3022 2063 
z
" id="DejaVuSans-65" transform="scale(0.015625)"/>
      <path d="M 4122 4306 
L 4122 3641 
Q 3803 3938 3442 4084 
Q 3081 4231 2675 4231 
Q 1875 4231 1450 3742 
Q 1025 3253 1025 2328 
Q 1025 1406 1450 917 
Q 1875 428 2675 428 
Q 3081 428 3442 575 
Q 3803 722 4122 1019 
L 4122 359 
Q 3791 134 3420 21 
Q 3050 -91 2638 -91 
Q 1578 -91 968 557 
Q 359 1206 359 2328 
Q 359 3453 968 4101 
Q 1578 4750 2638 4750 
Q 3056 4750 3426 4639 
Q 3797 4528 4122 4306 
z
" id="DejaVuSans-43" transform="scale(0.015625)"/>
      <path d="M 678 2906 
L 4684 2906 
L 4684 2381 
L 678 2381 
L 678 2906 
z
M 678 1631 
L 4684 1631 
L 4684 1100 
L 678 1100 
L 678 1631 
z
" id="DejaVuSans-3d" transform="scale(0.015625)"/>
      <path d="M 684 794 
L 1344 794 
L 1344 0 
L 684 0 
L 684 794 
z
" id="DejaVuSans-2e" transform="scale(0.015625)"/>
      <path d="M 2597 2516 
Q 3050 2419 3304 2112 
Q 3559 1806 3559 1356 
Q 3559 666 3084 287 
Q 2609 -91 1734 -91 
Q 1441 -91 1130 -33 
Q 819 25 488 141 
L 488 750 
Q 750 597 1062 519 
Q 1375 441 1716 441 
Q 2309 441 2620 675 
Q 2931 909 2931 1356 
Q 2931 1769 2642 2001 
Q 2353 2234 1838 2234 
L 1294 2234 
L 1294 2753 
L 1863 2753 
Q 2328 2753 2575 2939 
Q 2822 3125 2822 3475 
Q 2822 3834 2567 4026 
Q 2313 4219 1838 4219 
Q 1578 4219 1281 4162 
Q 984 4106 628 3988 
L 628 4550 
Q 988 4650 1302 4700 
Q 1616 4750 1894 4750 
Q 2613 4750 3031 4423 
Q 3450 4097 3450 3541 
Q 3450 3153 3228 2886 
Q 3006 2619 2597 2516 
z
" id="DejaVuSans-33" transform="scale(0.015625)"/>
     </defs>
     <use xlink:href="#DejaVuSans-44"/>
     <use x="77.001953" xlink:href="#DejaVuSans-65"/>
     <use x="138.525391" xlink:href="#DejaVuSans-6c"/>
     <use x="166.308594" xlink:href="#DejaVuSans-65"/>
     <use x="227.832031" xlink:href="#DejaVuSans-74"/>
     <use x="267.041016" xlink:href="#DejaVuSans-69"/>
     <use x="294.824219" xlink:href="#DejaVuSans-6f"/>
     <use x="356.005859" xlink:href="#DejaVuSans-6e"/>
     <use x="419.384766" xlink:href="#DejaVuSans-20"/>
     <use x="451.171875" xlink:href="#DejaVuSans-43"/>
     <use x="520.996094" xlink:href="#DejaVuSans-6f"/>
     <use x="582.177734" xlink:href="#DejaVuSans-73"/>
     <use x="634.277344" xlink:href="#DejaVuSans-74"/>
     <use x="673.486328" xlink:href="#DejaVuSans-3d"/>
     <use x="757.275391" xlink:href="#DejaVuSans-30"/>
     <use x="820.898438" xlink:href="#DejaVuSans-2e"/>
     <use x="852.685547" xlink:href="#DejaVuSans-32"/>
     <use x="916.308594" xlink:href="#DejaVuSans-33"/>
    </g>
   </g>
   <g id="PathCollection_1">
    <defs>
     <path d="M -3 3 
L 3 -3 
M -3 -3 
L 3 3 
" id="m5a72eb218f" style="stroke:#d62728;stroke-width:1.5;"/>
    </defs>
    <g clip-path="url(#p5f6168162d)">
     <use style="fill:#d62728;stroke:#d62728;stroke-width:1.5;" x="106.867188" xlink:href="#m5a72eb218f" y="342.871883"/>
     <use style="fill:#d62728;stroke:#d62728;stroke-width:1.5;" x="130.480824" xlink:href="#m5a72eb218f" y="349.962569"/>
    </g>
   </g>
  </g>
  <g id="axes_2">
   <g id="patch_7">
    <path d="M 217.342188 361.651458 
L 373.192187 361.651458 
L 373.192187 221.384792 
L 217.342188 221.384792 
z
" style="fill:#ffffff;"/>
   </g>
   <g id="matplotlib.axis_3">
    <g id="xtick_5">
     <g id="line2d_10">
      <g>
       <use style="stroke:#000000;stroke-width:0.8;" x="224.426278" xlink:href="#m5d4b0079a4" y="361.651458"/>
      </g>
     </g>
     <g id="text_10">
      <!-- 0 -->
      <g transform="translate(221.245028 376.249896)scale(0.1 -0.1)">
       <use xlink:href="#DejaVuSans-30"/>
      </g>
     </g>
    </g>
    <g id="xtick_6">
     <g id="line2d_11">
      <g>
       <use style="stroke:#000000;stroke-width:0.8;" x="283.460369" xlink:href="#m5d4b0079a4" y="361.651458"/>
      </g>
     </g>
     <g id="text_11">
      <!-- 5 -->
      <g transform="translate(280.279119 376.249896)scale(0.1 -0.1)">
       <defs>
        <path d="M 691 4666 
L 3169 4666 
L 3169 4134 
L 1269 4134 
L 1269 2991 
Q 1406 3038 1543 3061 
Q 1681 3084 1819 3084 
Q 2600 3084 3056 2656 
Q 3513 2228 3513 1497 
Q 3513 744 3044 326 
Q 2575 -91 1722 -91 
Q 1428 -91 1123 -41 
Q 819 9 494 109 
L 494 744 
Q 775 591 1075 516 
Q 1375 441 1709 441 
Q 2250 441 2565 725 
Q 2881 1009 2881 1497 
Q 2881 1984 2565 2268 
Q 2250 2553 1709 2553 
Q 1456 2553 1204 2497 
Q 953 2441 691 2322 
L 691 4666 
z
" id="DejaVuSans-35" transform="scale(0.015625)"/>
       </defs>
       <use xlink:href="#DejaVuSans-35"/>
      </g>
     </g>
    </g>
    <g id="xtick_7">
     <g id="line2d_12">
      <g>
       <use style="stroke:#000000;stroke-width:0.8;" x="342.49446" xlink:href="#m5d4b0079a4" y="361.651458"/>
      </g>
     </g>
     <g id="text_12">
      <!-- 10 -->
      <g transform="translate(336.13196 376.249896)scale(0.1 -0.1)">
       <use xlink:href="#DejaVuSans-31"/>
       <use x="63.623047" xlink:href="#DejaVuSans-30"/>
      </g>
     </g>
    </g>
   </g>
   <g id="matplotlib.axis_4">
    <g id="ytick_5">
     <g id="line2d_13">
      <g>
       <use style="stroke:#000000;stroke-width:0.8;" x="217.342188" xlink:href="#md5380fd947" y="340.508321"/>
      </g>
     </g>
     <g id="text_13">
      <!-- −1 -->
      <g transform="translate(195.6 344.30754)scale(0.1 -0.1)">
       <use xlink:href="#DejaVuSans-2212"/>
       <use x="83.789062" xlink:href="#DejaVuSans-31"/>
      </g>
     </g>
    </g>
    <g id="ytick_6">
     <g id="line2d_14">
      <g>
       <use style="stroke:#000000;stroke-width:0.8;" x="217.342188" xlink:href="#md5380fd947" y="309.81271"/>
      </g>
     </g>
     <g id="text_14">
      <!-- 0 -->
      <g transform="translate(203.979688 313.611928)scale(0.1 -0.1)">
       <use xlink:href="#DejaVuSans-30"/>
      </g>
     </g>
    </g>
    <g id="ytick_7">
     <g id="line2d_15">
      <g>
       <use style="stroke:#000000;stroke-width:0.8;" x="217.342188" xlink:href="#md5380fd947" y="279.117098"/>
      </g>
     </g>
     <g id="text_15">
      <!-- 1 -->
      <g transform="translate(203.979688 282.916317)scale(0.1 -0.1)">
       <use xlink:href="#DejaVuSans-31"/>
      </g>
     </g>
    </g>
    <g id="ytick_8">
     <g id="line2d_16">
      <g>
       <use style="stroke:#000000;stroke-width:0.8;" x="217.342188" xlink:href="#md5380fd947" y="248.421486"/>
      </g>
     </g>
     <g id="text_16">
      <!-- 2 -->
      <g transform="translate(203.979688 252.220705)scale(0.1 -0.1)">
       <use xlink:href="#DejaVuSans-32"/>
      </g>
     </g>
    </g>
   </g>
   <g id="line2d_17">
    <path clip-path="url(#p2dbf8ac47e)" d="M 224.426278 310.979143 
L 236.233097 309.81271 
L 248.039915 316.903396 
L 259.846733 270.859978 
L 271.653551 329.887639 
L 283.460369 328.690511 
L 295.267188 331.054073 
L 307.074006 329.887639 
L 318.880824 331.054073 
L 330.687642 275.587103 
L 342.49446 318.069829 
L 354.301278 301.55559 
L 366.108097 305.085585 
" style="fill:none;stroke:#ff7f0e;stroke-linecap:square;stroke-width:1.5;"/>
   </g>
   <g id="patch_8">
    <path d="M 217.342188 361.651458 
L 217.342188 221.384792 
" style="fill:none;stroke:#000000;stroke-linecap:square;stroke-linejoin:miter;stroke-width:0.8;"/>
   </g>
   <g id="patch_9">
    <path d="M 373.192187 361.651458 
L 373.192187 221.384792 
" style="fill:none;stroke:#000000;stroke-linecap:square;stroke-linejoin:miter;stroke-width:0.8;"/>
   </g>
   <g id="patch_10">
    <path d="M 217.342188 361.651458 
L 373.192188 361.651458 
" style="fill:none;stroke:#000000;stroke-linecap:square;stroke-linejoin:miter;stroke-width:0.8;"/>
   </g>
   <g id="patch_11">
    <path d="M 217.342188 221.384792 
L 373.192188 221.384792 
" style="fill:none;stroke:#000000;stroke-linecap:square;stroke-linejoin:miter;stroke-width:0.8;"/>
   </g>
   <g id="text_17">
    <!-- y critical points -->
    <g transform="translate(249.380312 201.947417)scale(0.12 -0.12)">
     <defs>
      <path d="M 2059 -325 
Q 1816 -950 1584 -1140 
Q 1353 -1331 966 -1331 
L 506 -1331 
L 506 -850 
L 844 -850 
Q 1081 -850 1212 -737 
Q 1344 -625 1503 -206 
L 1606 56 
L 191 3500 
L 800 3500 
L 1894 763 
L 2988 3500 
L 3597 3500 
L 2059 -325 
z
" id="DejaVuSans-79" transform="scale(0.015625)"/>
     </defs>
     <use xlink:href="#DejaVuSans-79"/>
     <use x="59.179688" xlink:href="#DejaVuSans-20"/>
     <use x="90.966797" xlink:href="#DejaVuSans-63"/>
     <use x="145.947266" xlink:href="#DejaVuSans-72"/>
     <use x="187.060547" xlink:href="#DejaVuSans-69"/>
     <use x="214.84375" xlink:href="#DejaVuSans-74"/>
     <use x="254.052734" xlink:href="#DejaVuSans-69"/>
     <use x="281.835938" xlink:href="#DejaVuSans-63"/>
     <use x="336.816406" xlink:href="#DejaVuSans-61"/>
     <use x="398.095703" xlink:href="#DejaVuSans-6c"/>
     <use x="425.878906" xlink:href="#DejaVuSans-20"/>
     <use x="457.666016" xlink:href="#DejaVuSans-70"/>
     <use x="521.142578" xlink:href="#DejaVuSans-6f"/>
     <use x="582.324219" xlink:href="#DejaVuSans-69"/>
     <use x="610.107422" xlink:href="#DejaVuSans-6e"/>
     <use x="673.486328" xlink:href="#DejaVuSans-74"/>
     <use x="712.695312" xlink:href="#DejaVuSans-73"/>
    </g>
    <!-- Deletion Cost=0.42 -->
    <g transform="translate(236.470937 215.384792)scale(0.12 -0.12)">
     <use xlink:href="#DejaVuSans-44"/>
     <use x="77.001953" xlink:href="#DejaVuSans-65"/>
     <use x="138.525391" xlink:href="#DejaVuSans-6c"/>
     <use x="166.308594" xlink:href="#DejaVuSans-65"/>
     <use x="227.832031" xlink:href="#DejaVuSans-74"/>
     <use x="267.041016" xlink:href="#DejaVuSans-69"/>
     <use x="294.824219" xlink:href="#DejaVuSans-6f"/>
     <use x="356.005859" xlink:href="#DejaVuSans-6e"/>
     <use x="419.384766" xlink:href="#DejaVuSans-20"/>
     <use x="451.171875" xlink:href="#DejaVuSans-43"/>
     <use x="520.996094" xlink:href="#DejaVuSans-6f"/>
     <use x="582.177734" xlink:href="#DejaVuSans-73"/>
     <use x="634.277344" xlink:href="#DejaVuSans-74"/>
     <use x="673.486328" xlink:href="#DejaVuSans-3d"/>
     <use x="757.275391" xlink:href="#DejaVuSans-30"/>
     <use x="820.898438" xlink:href="#DejaVuSans-2e"/>
     <use x="852.685547" xlink:href="#DejaVuSans-34"/>
     <use x="916.308594" xlink:href="#DejaVuSans-32"/>
    </g>
   </g>
   <g id="PathCollection_2">
    <g clip-path="url(#p2dbf8ac47e)">
     <use style="fill:#d62728;stroke:#d62728;stroke-width:1.5;" x="236.233097" xlink:href="#m5a72eb218f" y="309.81271"/>
     <use style="fill:#d62728;stroke:#d62728;stroke-width:1.5;" x="248.039915" xlink:href="#m5a72eb218f" y="316.903396"/>
    </g>
   </g>
   <g id="PathCollection_3">
    <g clip-path="url(#p2dbf8ac47e)">
     <use style="fill:#d62728;stroke:#d62728;stroke-width:1.5;" x="271.653551" xlink:href="#m5a72eb218f" y="329.887639"/>
     <use style="fill:#d62728;stroke:#d62728;stroke-width:1.5;" x="283.460369" xlink:href="#m5a72eb218f" y="328.690511"/>
    </g>
   </g>
   <g id="PathCollection_4">
    <g clip-path="url(#p2dbf8ac47e)">
     <use style="fill:#d62728;stroke:#d62728;stroke-width:1.5;" x="307.074006" xlink:href="#m5a72eb218f" y="329.887639"/>
     <use style="fill:#d62728;stroke:#d62728;stroke-width:1.5;" x="318.880824" xlink:href="#m5a72eb218f" y="331.054073"/>
    </g>
   </g>
   <g id="PathCollection_5">
    <g clip-path="url(#p2dbf8ac47e)">
     <use style="fill:#d62728;stroke:#d62728;stroke-width:1.5;" x="354.301278" xlink:href="#m5a72eb218f" y="301.55559"/>
     <use style="fill:#d62728;stroke:#d62728;stroke-width:1.5;" x="366.108097" xlink:href="#m5a72eb218f" y="305.085585"/>
    </g>
   </g>
  </g>
  <g id="axes_3">
   <g id="patch_12">
    <path d="M 405.742188 361.651458 
L 561.592188 361.651458 
L 561.592188 221.384792 
L 405.742188 221.384792 
z
" style="fill:#ffffff;"/>
   </g>
   <g id="matplotlib.axis_5">
    <g id="xtick_8">
     <g id="line2d_18">
      <g>
       <use style="stroke:#000000;stroke-width:0.8;" x="412.826278" xlink:href="#m5d4b0079a4" y="361.651458"/>
      </g>
     </g>
     <g id="text_18">
      <!-- 0 -->
      <g transform="translate(409.645028 376.249896)scale(0.1 -0.1)">
       <use xlink:href="#DejaVuSans-30"/>
      </g>
     </g>
    </g>
    <g id="xtick_9">
     <g id="line2d_19">
      <g>
       <use style="stroke:#000000;stroke-width:0.8;" x="448.246733" xlink:href="#m5d4b0079a4" y="361.651458"/>
      </g>
     </g>
     <g id="text_19">
      <!-- 1 -->
      <g transform="translate(445.065483 376.249896)scale(0.1 -0.1)">
       <use xlink:href="#DejaVuSans-31"/>
      </g>
     </g>
    </g>
    <g id="xtick_10">
     <g id="line2d_20">
      <g>
       <use style="stroke:#000000;stroke-width:0.8;" x="483.667188" xlink:href="#m5d4b0079a4" y="361.651458"/>
      </g>
     </g>
     <g id="text_20">
      <!-- 2 -->
      <g transform="translate(480.485938 376.249896)scale(0.1 -0.1)">
       <use xlink:href="#DejaVuSans-32"/>
      </g>
     </g>
    </g>
    <g id="xtick_11">
     <g id="line2d_21">
      <g>
       <use style="stroke:#000000;stroke-width:0.8;" x="519.087642" xlink:href="#m5d4b0079a4" y="361.651458"/>
      </g>
     </g>
     <g id="text_21">
      <!-- 3 -->
      <g transform="translate(515.906392 376.249896)scale(0.1 -0.1)">
       <use xlink:href="#DejaVuSans-33"/>
      </g>
     </g>
    </g>
    <g id="xtick_12">
     <g id="line2d_22">
      <g>
       <use style="stroke:#000000;stroke-width:0.8;" x="554.508097" xlink:href="#m5d4b0079a4" y="361.651458"/>
      </g>
     </g>
     <g id="text_22">
      <!-- 4 -->
      <g transform="translate(551.326847 376.249896)scale(0.1 -0.1)">
       <use xlink:href="#DejaVuSans-34"/>
      </g>
     </g>
    </g>
   </g>
   <g id="matplotlib.axis_6">
    <g id="ytick_9">
     <g id="line2d_23">
      <g>
       <use style="stroke:#000000;stroke-width:0.8;" x="405.742188" xlink:href="#md5380fd947" y="340.508321"/>
      </g>
     </g>
     <g id="text_23">
      <!-- −1 -->
      <g transform="translate(384 344.30754)scale(0.1 -0.1)">
       <use xlink:href="#DejaVuSans-2212"/>
       <use x="83.789062" xlink:href="#DejaVuSans-31"/>
      </g>
     </g>
    </g>
    <g id="ytick_10">
     <g id="line2d_24">
      <g>
       <use style="stroke:#000000;stroke-width:0.8;" x="405.742188" xlink:href="#md5380fd947" y="309.81271"/>
      </g>
     </g>
     <g id="text_24">
      <!-- 0 -->
      <g transform="translate(392.379688 313.611928)scale(0.1 -0.1)">
       <use xlink:href="#DejaVuSans-30"/>
      </g>
     </g>
    </g>
    <g id="ytick_11">
     <g id="line2d_25">
      <g>
       <use style="stroke:#000000;stroke-width:0.8;" x="405.742188" xlink:href="#md5380fd947" y="279.117098"/>
      </g>
     </g>
     <g id="text_25">
      <!-- 1 -->
      <g transform="translate(392.379688 282.916317)scale(0.1 -0.1)">
       <use xlink:href="#DejaVuSans-31"/>
      </g>
     </g>
    </g>
    <g id="ytick_12">
     <g id="line2d_26">
      <g>
       <use style="stroke:#000000;stroke-width:0.8;" x="405.742188" xlink:href="#md5380fd947" y="248.421486"/>
      </g>
     </g>
     <g id="text_26">
      <!-- 2 -->
      <g transform="translate(392.379688 252.220705)scale(0.1 -0.1)">
       <use xlink:href="#DejaVuSans-32"/>
      </g>
     </g>
    </g>
   </g>
   <g id="line2d_27">
    <path clip-path="url(#pb1d8d233ab)" d="M 412.826278 300.358461 
L 448.246733 279.117098 
L 483.667188 345.235445 
L 519.087642 233.073681 
L 554.508097 349.962569 
" style="fill:none;stroke:#1f77b4;stroke-linecap:square;stroke-width:1.5;"/>
   </g>
   <g id="line2d_28">
    <path clip-path="url(#pb1d8d233ab)" d="M 412.826278 310.979143 
L 448.246733 270.859978 
L 483.667188 331.054073 
L 519.087642 275.587103 
L 554.508097 318.069829 
" style="fill:none;stroke:#ff7f0e;stroke-dasharray:5.55,2.4;stroke-dashoffset:0;stroke-width:1.5;"/>
   </g>
   <g id="line2d_29">
    <path clip-path="url(#pb1d8d233ab)" d="M 412.826278 300.358461 
L 412.826278 310.979143 
" style="fill:none;stroke:#000000;stroke-dasharray:5.55,2.4;stroke-dashoffset:0;stroke-width:1.5;"/>
   </g>
   <g id="line2d_30">
    <path clip-path="url(#pb1d8d233ab)" d="M 448.246733 279.117098 
L 448.246733 270.859978 
" style="fill:none;stroke:#000000;stroke-dasharray:5.55,2.4;stroke-dashoffset:0;stroke-width:1.5;"/>
   </g>
   <g id="line2d_31">
    <path clip-path="url(#pb1d8d233ab)" d="M 483.667188 345.235445 
L 483.667188 331.054073 
" style="fill:none;stroke:#000000;stroke-dasharray:5.55,2.4;stroke-dashoffset:0;stroke-width:1.5;"/>
   </g>
   <g id="line2d_32">
    <path clip-path="url(#pb1d8d233ab)" d="M 519.087642 233.073681 
L 519.087642 275.587103 
" style="fill:none;stroke:#000000;stroke-dasharray:5.55,2.4;stroke-dashoffset:0;stroke-width:1.5;"/>
   </g>
   <g id="line2d_33">
    <path clip-path="url(#pb1d8d233ab)" d="M 554.508097 349.962569 
L 554.508097 318.069829 
" style="fill:none;stroke:#000000;stroke-dasharray:5.55,2.4;stroke-dashoffset:0;stroke-width:1.5;"/>
   </g>
   <g id="patch_13">
    <path d="M 405.742188 361.651458 
L 405.742188 221.384792 
" style="fill:none;stroke:#000000;stroke-linecap:square;stroke-linejoin:miter;stroke-width:0.8;"/>
   </g>
   <g id="patch_14">
    <path d="M 561.592188 361.651458 
L 561.592188 221.384792 
" style="fill:none;stroke:#000000;stroke-linecap:square;stroke-linejoin:miter;stroke-width:0.8;"/>
   </g>
   <g id="patch_15">
    <path d="M 405.742188 361.651458 
L 561.592188 361.651458 
" style="fill:none;stroke:#000000;stroke-linecap:square;stroke-linejoin:miter;stroke-width:0.8;"/>
   </g>
   <g id="patch_16">
    <path d="M 405.742188 221.384792 
L 561.592188 221.384792 
" style="fill:none;stroke:#000000;stroke-linecap:square;stroke-linejoin:miter;stroke-width:0.8;"/>
   </g>
   <g id="text_27">
    <!-- L1 Matched Points -->
    <g transform="translate(428.865625 201.947417)scale(0.12 -0.12)">
     <defs>
      <path d="M 628 4666 
L 1259 4666 
L 1259 531 
L 3531 531 
L 3531 0 
L 628 0 
L 628 4666 
z
" id="DejaVuSans-4c" transform="scale(0.015625)"/>
      <path d="M 628 4666 
L 1569 4666 
L 2759 1491 
L 3956 4666 
L 4897 4666 
L 4897 0 
L 4281 0 
L 4281 4097 
L 3078 897 
L 2444 897 
L 1241 4097 
L 1241 0 
L 628 0 
L 628 4666 
z
" id="DejaVuSans-4d" transform="scale(0.015625)"/>
      <path d="M 3513 2113 
L 3513 0 
L 2938 0 
L 2938 2094 
Q 2938 2591 2744 2837 
Q 2550 3084 2163 3084 
Q 1697 3084 1428 2787 
Q 1159 2491 1159 1978 
L 1159 0 
L 581 0 
L 581 4863 
L 1159 4863 
L 1159 2956 
Q 1366 3272 1645 3428 
Q 1925 3584 2291 3584 
Q 2894 3584 3203 3211 
Q 3513 2838 3513 2113 
z
" id="DejaVuSans-68" transform="scale(0.015625)"/>
      <path d="M 2906 2969 
L 2906 4863 
L 3481 4863 
L 3481 0 
L 2906 0 
L 2906 525 
Q 2725 213 2448 61 
Q 2172 -91 1784 -91 
Q 1150 -91 751 415 
Q 353 922 353 1747 
Q 353 2572 751 3078 
Q 1150 3584 1784 3584 
Q 2172 3584 2448 3432 
Q 2725 3281 2906 2969 
z
M 947 1747 
Q 947 1113 1208 752 
Q 1469 391 1925 391 
Q 2381 391 2643 752 
Q 2906 1113 2906 1747 
Q 2906 2381 2643 2742 
Q 2381 3103 1925 3103 
Q 1469 3103 1208 2742 
Q 947 2381 947 1747 
z
" id="DejaVuSans-64" transform="scale(0.015625)"/>
      <path d="M 1259 4147 
L 1259 2394 
L 2053 2394 
Q 2494 2394 2734 2622 
Q 2975 2850 2975 3272 
Q 2975 3691 2734 3919 
Q 2494 4147 2053 4147 
L 1259 4147 
z
M 628 4666 
L 2053 4666 
Q 2838 4666 3239 4311 
Q 3641 3956 3641 3272 
Q 3641 2581 3239 2228 
Q 2838 1875 2053 1875 
L 1259 1875 
L 1259 0 
L 628 0 
L 628 4666 
z
" id="DejaVuSans-50" transform="scale(0.015625)"/>
     </defs>
     <use xlink:href="#DejaVuSans-4c"/>
     <use x="55.712891" xlink:href="#DejaVuSans-31"/>
     <use x="119.335938" xlink:href="#DejaVuSans-20"/>
     <use x="151.123047" xlink:href="#DejaVuSans-4d"/>
     <use x="237.402344" xlink:href="#DejaVuSans-61"/>
     <use x="298.681641" xlink:href="#DejaVuSans-74"/>
     <use x="337.890625" xlink:href="#DejaVuSans-63"/>
     <use x="392.871094" xlink:href="#DejaVuSans-68"/>
     <use x="456.25" xlink:href="#DejaVuSans-65"/>
     <use x="517.773438" xlink:href="#DejaVuSans-64"/>
     <use x="581.25" xlink:href="#DejaVuSans-20"/>
     <use x="613.037109" xlink:href="#DejaVuSans-50"/>
     <use x="669.714844" xlink:href="#DejaVuSans-6f"/>
     <use x="730.896484" xlink:href="#DejaVuSans-69"/>
     <use x="758.679688" xlink:href="#DejaVuSans-6e"/>
     <use x="822.058594" xlink:href="#DejaVuSans-74"/>
     <use x="861.267578" xlink:href="#DejaVuSans-73"/>
    </g>
    <!--  L1 Cost=3.50 -->
    <g transform="translate(440.966875 215.384792)scale(0.12 -0.12)">
     <use xlink:href="#DejaVuSans-20"/>
     <use x="31.787109" xlink:href="#DejaVuSans-4c"/>
     <use x="87.5" xlink:href="#DejaVuSans-31"/>
     <use x="151.123047" xlink:href="#DejaVuSans-20"/>
     <use x="182.910156" xlink:href="#DejaVuSans-43"/>
     <use x="252.734375" xlink:href="#DejaVuSans-6f"/>
     <use x="313.916016" xlink:href="#DejaVuSans-73"/>
     <use x="366.015625" xlink:href="#DejaVuSans-74"/>
     <use x="405.224609" xlink:href="#DejaVuSans-3d"/>
     <use x="489.013672" xlink:href="#DejaVuSans-33"/>
     <use x="552.636719" xlink:href="#DejaVuSans-2e"/>
     <use x="584.423828" xlink:href="#DejaVuSans-35"/>
     <use x="648.046875" xlink:href="#DejaVuSans-30"/>
    </g>
   </g>
   <g id="PathCollection_6">
    <defs>
     <path d="M 0 2.236068 
C 0.593012 2.236068 1.161816 2.000462 1.581139 1.581139 
C 2.000462 1.161816 2.236068 0.593012 2.236068 0 
C 2.236068 -0.593012 2.000462 -1.161816 1.581139 -1.581139 
C 1.161816 -2.000462 0.593012 -2.236068 0 -2.236068 
C -0.593012 -2.236068 -1.161816 -2.000462 -1.581139 -1.581139 
C -2.000462 -1.161816 -2.236068 -0.593012 -2.236068 0 
C -2.236068 0.593012 -2.000462 1.161816 -1.581139 1.581139 
C -1.161816 2.000462 -0.593012 2.236068 0 2.236068 
z
" id="me1bbdd5c5d" style="stroke:#000000;"/>
    </defs>
    <g clip-path="url(#pb1d8d233ab)">
     <use style="stroke:#000000;" x="412.826278" xlink:href="#me1bbdd5c5d" y="300.358461"/>
     <use style="stroke:#000000;" x="412.826278" xlink:href="#me1bbdd5c5d" y="310.979143"/>
    </g>
   </g>
   <g id="PathCollection_7">
    <g clip-path="url(#pb1d8d233ab)">
     <use style="stroke:#000000;" x="448.246733" xlink:href="#me1bbdd5c5d" y="279.117098"/>
     <use style="stroke:#000000;" x="448.246733" xlink:href="#me1bbdd5c5d" y="270.859978"/>
    </g>
   </g>
   <g id="PathCollection_8">
    <g clip-path="url(#pb1d8d233ab)">
     <use style="stroke:#000000;" x="483.667188" xlink:href="#me1bbdd5c5d" y="345.235445"/>
     <use style="stroke:#000000;" x="483.667188" xlink:href="#me1bbdd5c5d" y="331.054073"/>
    </g>
   </g>
   <g id="PathCollection_9">
    <g clip-path="url(#pb1d8d233ab)">
     <use style="stroke:#000000;" x="519.087642" xlink:href="#me1bbdd5c5d" y="233.073681"/>
     <use style="stroke:#000000;" x="519.087642" xlink:href="#me1bbdd5c5d" y="275.587103"/>
    </g>
   </g>
   <g id="PathCollection_10">
    <g clip-path="url(#pb1d8d233ab)">
     <use style="stroke:#000000;" x="554.508097" xlink:href="#me1bbdd5c5d" y="349.962569"/>
     <use style="stroke:#000000;" x="554.508097" xlink:href="#me1bbdd5c5d" y="318.069829"/>
    </g>
   </g>
  </g>
  <g id="axes_4">
   <g id="patch_17">
    <path d="M 28.942188 162.584792 
L 561.592188 162.584792 
L 561.592188 22.318125 
L 28.942188 22.318125 
z
" style="fill:#ffffff;"/>
   </g>
   <g id="matplotlib.axis_7">
    <g id="xtick_13">
     <g id="line2d_34">
      <g>
       <use style="stroke:#000000;stroke-width:0.8;" x="53.153551" xlink:href="#m5d4b0079a4" y="162.584792"/>
      </g>
     </g>
     <g id="text_28">
      <!-- 0 -->
      <g transform="translate(49.972301 177.183229)scale(0.1 -0.1)">
       <use xlink:href="#DejaVuSans-30"/>
      </g>
     </g>
    </g>
    <g id="xtick_14">
     <g id="line2d_35">
      <g>
       <use style="stroke:#000000;stroke-width:0.8;" x="121.935834" xlink:href="#m5d4b0079a4" y="162.584792"/>
      </g>
     </g>
     <g id="text_29">
      <!-- 25 -->
      <g transform="translate(115.573334 177.183229)scale(0.1 -0.1)">
       <use xlink:href="#DejaVuSans-32"/>
       <use x="63.623047" xlink:href="#DejaVuSans-35"/>
      </g>
     </g>
    </g>
    <g id="xtick_15">
     <g id="line2d_36">
      <g>
       <use style="stroke:#000000;stroke-width:0.8;" x="190.718117" xlink:href="#m5d4b0079a4" y="162.584792"/>
      </g>
     </g>
     <g id="text_30">
      <!-- 50 -->
      <g transform="translate(184.355617 177.183229)scale(0.1 -0.1)">
       <use xlink:href="#DejaVuSans-35"/>
       <use x="63.623047" xlink:href="#DejaVuSans-30"/>
      </g>
     </g>
    </g>
    <g id="xtick_16">
     <g id="line2d_37">
      <g>
       <use style="stroke:#000000;stroke-width:0.8;" x="259.5004" xlink:href="#m5d4b0079a4" y="162.584792"/>
      </g>
     </g>
     <g id="text_31">
      <!-- 75 -->
      <g transform="translate(253.1379 177.183229)scale(0.1 -0.1)">
       <defs>
        <path d="M 525 4666 
L 3525 4666 
L 3525 4397 
L 1831 0 
L 1172 0 
L 2766 4134 
L 525 4134 
L 525 4666 
z
" id="DejaVuSans-37" transform="scale(0.015625)"/>
       </defs>
       <use xlink:href="#DejaVuSans-37"/>
       <use x="63.623047" xlink:href="#DejaVuSans-35"/>
      </g>
     </g>
    </g>
    <g id="xtick_17">
     <g id="line2d_38">
      <g>
       <use style="stroke:#000000;stroke-width:0.8;" x="328.282683" xlink:href="#m5d4b0079a4" y="162.584792"/>
      </g>
     </g>
     <g id="text_32">
      <!-- 100 -->
      <g transform="translate(318.738933 177.183229)scale(0.1 -0.1)">
       <use xlink:href="#DejaVuSans-31"/>
       <use x="63.623047" xlink:href="#DejaVuSans-30"/>
       <use x="127.246094" xlink:href="#DejaVuSans-30"/>
      </g>
     </g>
    </g>
    <g id="xtick_18">
     <g id="line2d_39">
      <g>
       <use style="stroke:#000000;stroke-width:0.8;" x="397.064966" xlink:href="#m5d4b0079a4" y="162.584792"/>
      </g>
     </g>
     <g id="text_33">
      <!-- 125 -->
      <g transform="translate(387.521216 177.183229)scale(0.1 -0.1)">
       <use xlink:href="#DejaVuSans-31"/>
       <use x="63.623047" xlink:href="#DejaVuSans-32"/>
       <use x="127.246094" xlink:href="#DejaVuSans-35"/>
      </g>
     </g>
    </g>
    <g id="xtick_19">
     <g id="line2d_40">
      <g>
       <use style="stroke:#000000;stroke-width:0.8;" x="465.847249" xlink:href="#m5d4b0079a4" y="162.584792"/>
      </g>
     </g>
     <g id="text_34">
      <!-- 150 -->
      <g transform="translate(456.303499 177.183229)scale(0.1 -0.1)">
       <use xlink:href="#DejaVuSans-31"/>
       <use x="63.623047" xlink:href="#DejaVuSans-35"/>
       <use x="127.246094" xlink:href="#DejaVuSans-30"/>
      </g>
     </g>
    </g>
    <g id="xtick_20">
     <g id="line2d_41">
      <g>
       <use style="stroke:#000000;stroke-width:0.8;" x="534.629533" xlink:href="#m5d4b0079a4" y="162.584792"/>
      </g>
     </g>
     <g id="text_35">
      <!-- 175 -->
      <g transform="translate(525.085783 177.183229)scale(0.1 -0.1)">
       <use xlink:href="#DejaVuSans-31"/>
       <use x="63.623047" xlink:href="#DejaVuSans-37"/>
       <use x="127.246094" xlink:href="#DejaVuSans-35"/>
      </g>
     </g>
    </g>
   </g>
   <g id="matplotlib.axis_8">
    <g id="ytick_13">
     <g id="line2d_42">
      <g>
       <use style="stroke:#000000;stroke-width:0.8;" x="28.942188" xlink:href="#md5380fd947" y="141.441654"/>
      </g>
     </g>
     <g id="text_36">
      <!-- −1 -->
      <g transform="translate(7.2 145.240873)scale(0.1 -0.1)">
       <use xlink:href="#DejaVuSans-2212"/>
       <use x="83.789062" xlink:href="#DejaVuSans-31"/>
      </g>
     </g>
    </g>
    <g id="ytick_14">
     <g id="line2d_43">
      <g>
       <use style="stroke:#000000;stroke-width:0.8;" x="28.942188" xlink:href="#md5380fd947" y="110.746043"/>
      </g>
     </g>
     <g id="text_37">
      <!-- 0 -->
      <g transform="translate(15.579688 114.545262)scale(0.1 -0.1)">
       <use xlink:href="#DejaVuSans-30"/>
      </g>
     </g>
    </g>
    <g id="ytick_15">
     <g id="line2d_44">
      <g>
       <use style="stroke:#000000;stroke-width:0.8;" x="28.942188" xlink:href="#md5380fd947" y="80.050431"/>
      </g>
     </g>
     <g id="text_38">
      <!-- 1 -->
      <g transform="translate(15.579688 83.84965)scale(0.1 -0.1)">
       <use xlink:href="#DejaVuSans-31"/>
      </g>
     </g>
    </g>
    <g id="ytick_16">
     <g id="line2d_45">
      <g>
       <use style="stroke:#000000;stroke-width:0.8;" x="28.942188" xlink:href="#md5380fd947" y="49.35482"/>
      </g>
     </g>
     <g id="text_39">
      <!-- 2 -->
      <g transform="translate(15.579688 53.154038)scale(0.1 -0.1)">
       <use xlink:href="#DejaVuSans-32"/>
      </g>
     </g>
    </g>
   </g>
   <g id="line2d_46">
    <path clip-path="url(#p59951ed08b)" d="M 53.153551 101.291794 
L 55.904842 96.56467 
L 58.656134 93.034675 
L 61.407425 93.034675 
L 64.158716 89.50468 
L 66.910008 87.141118 
L 69.661299 87.141118 
L 72.41259 87.141118 
L 75.163882 83.580427 
L 77.915173 83.580427 
L 80.666464 81.216864 
L 83.417756 80.050431 
L 86.169047 81.216864 
L 88.920338 84.777555 
L 91.67163 89.50468 
L 94.422921 94.231804 
L 97.174212 94.231804 
L 99.925504 101.291794 
L 102.676795 107.216048 
L 105.428086 111.912476 
L 108.179378 117.836729 
L 110.930669 117.836729 
L 113.68196 121.366724 
L 116.433252 124.927415 
L 119.184543 129.623844 
L 121.935834 129.623844 
L 124.687126 130.820973 
L 127.438417 134.350968 
L 130.189708 136.71453 
L 132.940999 139.078092 
L 135.692291 139.078092 
L 138.443582 139.078092 
L 141.194873 139.078092 
L 143.946165 139.078092 
L 146.697456 139.078092 
L 149.448747 140.275221 
L 152.200039 141.441654 
L 154.95133 141.441654 
L 157.702621 142.608088 
L 160.453913 142.608088 
L 163.205204 144.97165 
L 165.956495 146.168779 
L 168.707787 144.97165 
L 171.459078 143.805217 
L 174.210369 143.805217 
L 176.961661 143.805217 
L 179.712952 143.805217 
L 182.464243 144.97165 
L 185.215535 148.532341 
L 187.966826 150.895903 
L 190.718117 150.895903 
L 193.469409 149.698774 
L 196.2207 148.532341 
L 198.971991 144.97165 
L 201.723283 144.97165 
L 204.474574 142.608088 
L 207.225865 140.275221 
L 209.977157 136.71453 
L 212.728448 134.350968 
L 215.479739 133.184535 
L 218.23103 133.184535 
L 220.982322 130.820973 
L 223.733613 128.457411 
L 226.484904 124.927415 
L 229.236196 120.200291 
L 231.987487 117.836729 
L 234.738778 117.836729 
L 237.49007 113.109605 
L 240.241361 108.382481 
L 242.992652 106.018919 
L 245.743944 104.852485 
L 248.495235 102.488923 
L 251.246526 100.125361 
L 253.997818 100.125361 
L 256.749109 96.56467 
L 259.5004 91.868242 
L 262.251692 87.141118 
L 265.002983 82.413993 
L 267.754274 77.686869 
L 270.505566 77.686869 
L 273.256857 72.959745 
L 276.008148 67.066188 
L 278.75944 59.975501 
L 281.510731 52.884815 
L 284.262022 46.991258 
L 287.013314 46.991258 
L 289.764605 42.264133 
L 292.515896 39.900571 
L 295.267187 37.537009 
L 298.018479 35.173447 
L 300.76977 34.007014 
L 303.521061 34.007014 
L 306.272353 37.537009 
L 309.023644 44.627695 
L 311.774935 57.611939 
L 314.526227 69.42975 
L 317.277518 81.216864 
L 320.028809 81.216864 
L 322.780101 94.231804 
L 325.531392 106.018919 
L 328.282683 119.003162 
L 331.033975 133.184535 
L 333.785266 143.805217 
L 336.536557 143.805217 
L 339.287849 148.532341 
L 342.03914 149.698774 
L 344.790431 150.895903 
L 347.541723 149.698774 
L 350.293014 148.532341 
L 353.044305 148.532341 
L 355.795597 144.97165 
" style="fill:none;stroke:#1f77b4;stroke-linecap:square;stroke-width:1.5;"/>
   </g>
   <g id="line2d_47">
    <path clip-path="url(#p59951ed08b)" d="M 53.153551 110.746043 
L 55.904842 111.912476 
L 58.656134 110.746043 
L 61.407425 110.746043 
L 66.910008 113.109605 
L 69.661299 113.109605 
L 72.41259 114.276038 
L 77.915173 114.276038 
L 80.666464 115.473167 
L 83.417756 115.473167 
L 86.169047 116.6396 
L 102.676795 116.6396 
L 105.428086 117.836729 
L 113.68196 117.836729 
L 119.184543 115.473167 
L 121.935834 115.473167 
L 124.687126 114.276038 
L 130.189708 114.276038 
L 132.940999 113.109605 
L 135.692291 113.109605 
L 138.443582 109.57961 
L 141.194873 109.57961 
L 143.946165 104.852485 
L 152.200039 80.050431 
L 154.95133 74.156874 
L 157.702621 71.793312 
L 163.205204 71.793312 
L 165.956495 74.156874 
L 168.707787 77.686869 
L 174.210369 89.50468 
L 176.961661 94.231804 
L 179.712952 94.231804 
L 182.464243 98.928232 
L 193.469409 122.563853 
L 196.2207 127.260282 
L 198.971991 129.623844 
L 207.225865 129.623844 
L 209.977157 130.820973 
L 212.728448 129.623844 
L 215.479739 130.820973 
L 223.733613 130.820973 
L 226.484904 131.987406 
L 229.236196 131.987406 
L 231.987487 130.820973 
L 234.738778 130.820973 
L 237.49007 131.987406 
L 240.241361 131.987406 
L 242.992652 130.820973 
L 248.495235 130.820973 
L 253.997818 128.457411 
L 262.251692 121.366724 
L 265.002983 117.836729 
L 267.754274 117.836729 
L 270.505566 114.276038 
L 276.008148 104.852485 
L 281.510731 97.761799 
L 284.262022 97.761799 
L 289.764605 90.671113 
L 295.267187 85.943989 
L 298.018479 84.777555 
L 300.76977 84.777555 
L 306.272353 82.413993 
L 309.023644 80.050431 
L 311.774935 78.883998 
L 314.526227 78.883998 
L 317.277518 77.686869 
L 320.028809 77.686869 
L 322.780101 76.520436 
L 333.785266 76.520436 
L 339.287849 81.216864 
L 342.03914 84.777555 
L 344.790431 87.141118 
L 347.541723 87.141118 
L 350.293014 90.671113 
L 358.546888 97.761799 
L 361.298179 98.928232 
L 364.049471 102.488923 
L 366.800762 102.488923 
L 372.303345 109.57961 
L 375.054636 111.912476 
L 377.805927 113.109605 
L 380.557218 115.473167 
L 383.30851 115.473167 
L 388.811092 117.836729 
L 391.562384 117.836729 
L 394.313675 119.003162 
L 405.31884 119.003162 
L 408.070132 117.836729 
L 413.572714 117.836729 
L 416.324006 116.6396 
L 419.075297 116.6396 
L 427.329171 113.109605 
L 430.080462 113.109605 
L 432.831754 111.912476 
L 435.583045 111.912476 
L 443.836919 108.382481 
L 446.58821 108.382481 
L 449.339502 107.216048 
L 454.842084 107.216048 
L 460.344667 104.852485 
L 463.095958 104.852485 
L 465.847249 103.655357 
L 485.106289 103.655357 
L 487.85758 102.488923 
L 493.360163 102.488923 
L 496.111454 103.655357 
L 515.370493 103.655357 
L 518.121785 104.852485 
L 531.878241 104.852485 
L 534.629533 106.018919 
L 537.380824 106.018919 
L 537.380824 106.018919 
" style="fill:none;stroke:#ff7f0e;stroke-linecap:square;stroke-width:1.5;"/>
   </g>
   <g id="line2d_48">
    <path clip-path="url(#p59951ed08b)" d="M 53.153551 101.291794 
L 55.904842 111.912476 
" style="fill:none;stroke:#000000;stroke-dasharray:5.55,2.4;stroke-dashoffset:0;stroke-width:1.5;"/>
   </g>
   <g id="line2d_49">
    <path clip-path="url(#p59951ed08b)" d="M 83.417756 80.050431 
L 157.702621 71.793312 
" style="fill:none;stroke:#000000;stroke-dasharray:5.55,2.4;stroke-dashoffset:0;stroke-width:1.5;"/>
   </g>
   <g id="line2d_50">
    <path clip-path="url(#p59951ed08b)" d="M 165.956495 146.168779 
L 226.484904 131.987406 
" style="fill:none;stroke:#000000;stroke-dasharray:5.55,2.4;stroke-dashoffset:0;stroke-width:1.5;"/>
   </g>
   <g id="line2d_51">
    <path clip-path="url(#p59951ed08b)" d="M 300.76977 34.007014 
L 322.780101 76.520436 
" style="fill:none;stroke:#000000;stroke-dasharray:5.55,2.4;stroke-dashoffset:0;stroke-width:1.5;"/>
   </g>
   <g id="line2d_52">
    <path clip-path="url(#p59951ed08b)" d="M 344.790431 150.895903 
L 394.313675 119.003162 
" style="fill:none;stroke:#000000;stroke-dasharray:5.55,2.4;stroke-dashoffset:0;stroke-width:1.5;"/>
   </g>
   <g id="patch_18">
    <path d="M 28.942188 162.584792 
L 28.942188 22.318125 
" style="fill:none;stroke:#000000;stroke-linecap:square;stroke-linejoin:miter;stroke-width:0.8;"/>
   </g>
   <g id="patch_19">
    <path d="M 561.592188 162.584792 
L 561.592188 22.318125 
" style="fill:none;stroke:#000000;stroke-linecap:square;stroke-linejoin:miter;stroke-width:0.8;"/>
   </g>
   <g id="patch_20">
    <path d="M 28.942187 162.584792 
L 561.592187 162.584792 
" style="fill:none;stroke:#000000;stroke-linecap:square;stroke-linejoin:miter;stroke-width:0.8;"/>
   </g>
   <g id="patch_21">
    <path d="M 28.942187 22.318125 
L 561.592187 22.318125 
" style="fill:none;stroke:#000000;stroke-linecap:square;stroke-linejoin:miter;stroke-width:0.8;"/>
   </g>
   <g id="text_40">
    <!-- AllGestureWiimoteX Time Series, Dope Cost: 4.15 -->
    <g transform="translate(146.298437 16.318125)scale(0.12 -0.12)">
     <defs>
      <path d="M 2188 4044 
L 1331 1722 
L 3047 1722 
L 2188 4044 
z
M 1831 4666 
L 2547 4666 
L 4325 0 
L 3669 0 
L 3244 1197 
L 1141 1197 
L 716 0 
L 50 0 
L 1831 4666 
z
" id="DejaVuSans-41" transform="scale(0.015625)"/>
      <path d="M 3809 666 
L 3809 1919 
L 2778 1919 
L 2778 2438 
L 4434 2438 
L 4434 434 
Q 4069 175 3628 42 
Q 3188 -91 2688 -91 
Q 1594 -91 976 548 
Q 359 1188 359 2328 
Q 359 3472 976 4111 
Q 1594 4750 2688 4750 
Q 3144 4750 3555 4637 
Q 3966 4525 4313 4306 
L 4313 3634 
Q 3963 3931 3569 4081 
Q 3175 4231 2741 4231 
Q 1884 4231 1454 3753 
Q 1025 3275 1025 2328 
Q 1025 1384 1454 906 
Q 1884 428 2741 428 
Q 3075 428 3337 486 
Q 3600 544 3809 666 
z
" id="DejaVuSans-47" transform="scale(0.015625)"/>
      <path d="M 544 1381 
L 544 3500 
L 1119 3500 
L 1119 1403 
Q 1119 906 1312 657 
Q 1506 409 1894 409 
Q 2359 409 2629 706 
Q 2900 1003 2900 1516 
L 2900 3500 
L 3475 3500 
L 3475 0 
L 2900 0 
L 2900 538 
Q 2691 219 2414 64 
Q 2138 -91 1772 -91 
Q 1169 -91 856 284 
Q 544 659 544 1381 
z
M 1991 3584 
L 1991 3584 
z
" id="DejaVuSans-75" transform="scale(0.015625)"/>
      <path d="M 213 4666 
L 850 4666 
L 1831 722 
L 2809 4666 
L 3519 4666 
L 4500 722 
L 5478 4666 
L 6119 4666 
L 4947 0 
L 4153 0 
L 3169 4050 
L 2175 0 
L 1381 0 
L 213 4666 
z
" id="DejaVuSans-57" transform="scale(0.015625)"/>
      <path d="M 3328 2828 
Q 3544 3216 3844 3400 
Q 4144 3584 4550 3584 
Q 5097 3584 5394 3201 
Q 5691 2819 5691 2113 
L 5691 0 
L 5113 0 
L 5113 2094 
Q 5113 2597 4934 2840 
Q 4756 3084 4391 3084 
Q 3944 3084 3684 2787 
Q 3425 2491 3425 1978 
L 3425 0 
L 2847 0 
L 2847 2094 
Q 2847 2600 2669 2842 
Q 2491 3084 2119 3084 
Q 1678 3084 1418 2786 
Q 1159 2488 1159 1978 
L 1159 0 
L 581 0 
L 581 3500 
L 1159 3500 
L 1159 2956 
Q 1356 3278 1631 3431 
Q 1906 3584 2284 3584 
Q 2666 3584 2933 3390 
Q 3200 3197 3328 2828 
z
" id="DejaVuSans-6d" transform="scale(0.015625)"/>
      <path d="M 403 4666 
L 1081 4666 
L 2241 2931 
L 3406 4666 
L 4084 4666 
L 2584 2425 
L 4184 0 
L 3506 0 
L 2194 1984 
L 872 0 
L 191 0 
L 1856 2491 
L 403 4666 
z
" id="DejaVuSans-58" transform="scale(0.015625)"/>
      <path d="M -19 4666 
L 3928 4666 
L 3928 4134 
L 2272 4134 
L 2272 0 
L 1638 0 
L 1638 4134 
L -19 4134 
L -19 4666 
z
" id="DejaVuSans-54" transform="scale(0.015625)"/>
      <path d="M 3425 4513 
L 3425 3897 
Q 3066 4069 2747 4153 
Q 2428 4238 2131 4238 
Q 1616 4238 1336 4038 
Q 1056 3838 1056 3469 
Q 1056 3159 1242 3001 
Q 1428 2844 1947 2747 
L 2328 2669 
Q 3034 2534 3370 2195 
Q 3706 1856 3706 1288 
Q 3706 609 3251 259 
Q 2797 -91 1919 -91 
Q 1588 -91 1214 -16 
Q 841 59 441 206 
L 441 856 
Q 825 641 1194 531 
Q 1563 422 1919 422 
Q 2459 422 2753 634 
Q 3047 847 3047 1241 
Q 3047 1584 2836 1778 
Q 2625 1972 2144 2069 
L 1759 2144 
Q 1053 2284 737 2584 
Q 422 2884 422 3419 
Q 422 4038 858 4394 
Q 1294 4750 2059 4750 
Q 2388 4750 2728 4690 
Q 3069 4631 3425 4513 
z
" id="DejaVuSans-53" transform="scale(0.015625)"/>
      <path d="M 750 794 
L 1409 794 
L 1409 256 
L 897 -744 
L 494 -744 
L 750 256 
L 750 794 
z
" id="DejaVuSans-2c" transform="scale(0.015625)"/>
      <path d="M 750 794 
L 1409 794 
L 1409 0 
L 750 0 
L 750 794 
z
M 750 3309 
L 1409 3309 
L 1409 2516 
L 750 2516 
L 750 3309 
z
" id="DejaVuSans-3a" transform="scale(0.015625)"/>
     </defs>
     <use xlink:href="#DejaVuSans-41"/>
     <use x="68.408203" xlink:href="#DejaVuSans-6c"/>
     <use x="96.191406" xlink:href="#DejaVuSans-6c"/>
     <use x="123.974609" xlink:href="#DejaVuSans-47"/>
     <use x="201.464844" xlink:href="#DejaVuSans-65"/>
     <use x="262.988281" xlink:href="#DejaVuSans-73"/>
     <use x="315.087891" xlink:href="#DejaVuSans-74"/>
     <use x="354.296875" xlink:href="#DejaVuSans-75"/>
     <use x="417.675781" xlink:href="#DejaVuSans-72"/>
     <use x="456.539062" xlink:href="#DejaVuSans-65"/>
     <use x="518.0625" xlink:href="#DejaVuSans-57"/>
     <use x="614.689453" xlink:href="#DejaVuSans-69"/>
     <use x="642.472656" xlink:href="#DejaVuSans-69"/>
     <use x="670.255859" xlink:href="#DejaVuSans-6d"/>
     <use x="767.667969" xlink:href="#DejaVuSans-6f"/>
     <use x="828.849609" xlink:href="#DejaVuSans-74"/>
     <use x="868.058594" xlink:href="#DejaVuSans-65"/>
     <use x="929.582031" xlink:href="#DejaVuSans-58"/>
     <use x="998.087891" xlink:href="#DejaVuSans-20"/>
     <use x="1029.875" xlink:href="#DejaVuSans-54"/>
     <use x="1087.833984" xlink:href="#DejaVuSans-69"/>
     <use x="1115.617188" xlink:href="#DejaVuSans-6d"/>
     <use x="1213.029297" xlink:href="#DejaVuSans-65"/>
     <use x="1274.552734" xlink:href="#DejaVuSans-20"/>
     <use x="1306.339844" xlink:href="#DejaVuSans-53"/>
     <use x="1369.816406" xlink:href="#DejaVuSans-65"/>
     <use x="1431.339844" xlink:href="#DejaVuSans-72"/>
     <use x="1472.453125" xlink:href="#DejaVuSans-69"/>
     <use x="1500.236328" xlink:href="#DejaVuSans-65"/>
     <use x="1561.759766" xlink:href="#DejaVuSans-73"/>
     <use x="1613.859375" xlink:href="#DejaVuSans-2c"/>
     <use x="1645.646484" xlink:href="#DejaVuSans-20"/>
     <use x="1677.433594" xlink:href="#DejaVuSans-44"/>
     <use x="1754.435547" xlink:href="#DejaVuSans-6f"/>
     <use x="1815.617188" xlink:href="#DejaVuSans-70"/>
     <use x="1879.09375" xlink:href="#DejaVuSans-65"/>
     <use x="1940.617188" xlink:href="#DejaVuSans-20"/>
     <use x="1972.404297" xlink:href="#DejaVuSans-43"/>
     <use x="2042.228516" xlink:href="#DejaVuSans-6f"/>
     <use x="2103.410156" xlink:href="#DejaVuSans-73"/>
     <use x="2155.509766" xlink:href="#DejaVuSans-74"/>
     <use x="2194.71875" xlink:href="#DejaVuSans-3a"/>
     <use x="2228.410156" xlink:href="#DejaVuSans-20"/>
     <use x="2260.197266" xlink:href="#DejaVuSans-34"/>
     <use x="2323.820312" xlink:href="#DejaVuSans-2e"/>
     <use x="2355.607422" xlink:href="#DejaVuSans-31"/>
     <use x="2419.230469" xlink:href="#DejaVuSans-35"/>
    </g>
   </g>
   <g id="legend_1">
    <g id="patch_22">
     <path d="M 516.673437 59.674375 
L 554.592188 59.674375 
Q 556.592188 59.674375 556.592188 57.674375 
L 556.592188 29.318125 
Q 556.592188 27.318125 554.592188 27.318125 
L 516.673437 27.318125 
Q 514.673437 27.318125 514.673437 29.318125 
L 514.673437 57.674375 
Q 514.673437 59.674375 516.673437 59.674375 
z
" style="fill:#ffffff;opacity:0.8;stroke:#cccccc;stroke-linejoin:miter;"/>
    </g>
    <g id="line2d_53">
     <path d="M 518.673437 35.416562 
L 538.673437 35.416562 
" style="fill:none;stroke:#1f77b4;stroke-linecap:square;stroke-width:1.5;"/>
    </g>
    <g id="line2d_54"/>
    <g id="text_41">
     <!-- x -->
     <g transform="translate(546.673437 38.916562)scale(0.1 -0.1)">
      <use xlink:href="#DejaVuSans-78"/>
     </g>
    </g>
    <g id="line2d_55">
     <path d="M 518.673437 50.094687 
L 538.673437 50.094687 
" style="fill:none;stroke:#ff7f0e;stroke-linecap:square;stroke-width:1.5;"/>
    </g>
    <g id="line2d_56"/>
    <g id="text_42">
     <!-- y -->
     <g transform="translate(546.673437 53.594687)scale(0.1 -0.1)">
      <use xlink:href="#DejaVuSans-79"/>
     </g>
    </g>
   </g>
   <g id="PathCollection_11">
    <g clip-path="url(#p59951ed08b)">
     <use style="stroke:#000000;" x="53.153551" xlink:href="#me1bbdd5c5d" y="101.291794"/>
     <use style="stroke:#000000;" x="55.904842" xlink:href="#me1bbdd5c5d" y="111.912476"/>
    </g>
   </g>
   <g id="PathCollection_12">
    <g clip-path="url(#p59951ed08b)">
     <use style="stroke:#000000;" x="83.417756" xlink:href="#me1bbdd5c5d" y="80.050431"/>
     <use style="stroke:#000000;" x="157.702621" xlink:href="#me1bbdd5c5d" y="71.793312"/>
    </g>
   </g>
   <g id="PathCollection_13">
    <g clip-path="url(#p59951ed08b)">
     <use style="stroke:#000000;" x="165.956495" xlink:href="#me1bbdd5c5d" y="146.168779"/>
     <use style="stroke:#000000;" x="226.484904" xlink:href="#me1bbdd5c5d" y="131.987406"/>
    </g>
   </g>
   <g id="PathCollection_14">
    <g clip-path="url(#p59951ed08b)">
     <use style="stroke:#000000;" x="300.76977" xlink:href="#me1bbdd5c5d" y="34.007014"/>
     <use style="stroke:#000000;" x="322.780101" xlink:href="#me1bbdd5c5d" y="76.520436"/>
    </g>
   </g>
   <g id="PathCollection_15">
    <g clip-path="url(#p59951ed08b)">
     <use style="stroke:#000000;" x="344.790431" xlink:href="#me1bbdd5c5d" y="150.895903"/>
     <use style="stroke:#000000;" x="394.313675" xlink:href="#me1bbdd5c5d" y="119.003162"/>
    </g>
   </g>
  </g>
 </g>
 <defs>
  <clipPath id="p5f6168162d">
   <rect height="140.266667" width="155.85" x="28.942188" y="221.384792"/>
  </clipPath>
  <clipPath id="p2dbf8ac47e">
   <rect height="140.266667" width="155.85" x="217.342188" y="221.384792"/>
  </clipPath>
  <clipPath id="pb1d8d233ab">
   <rect height="140.266667" width="155.85" x="405.742188" y="221.384792"/>
  </clipPath>
  <clipPath id="p59951ed08b">
   <rect height="140.266667" width="532.65" x="28.942188" y="22.318125"/>
  </clipPath>
 </defs>
</svg>
