<?xml version="1.0" encoding="utf-8" standalone="no"?>
<!DOCTYPE svg PUBLIC "-//W3C//DTD SVG 1.1//EN"
  "http://www.w3.org/Graphics/SVG/1.1/DTD/svg11.dtd">
<svg height="385.529583pt" version="1.1" viewBox="0 0 559.167188 385.529583" width="559.167188pt" xmlns="http://www.w3.org/2000/svg" xmlns:xlink="http://www.w3.org/1999/xlink">
 <metadata>
  <rdf:RDF xmlns:cc="http://creativecommons.org/ns#" xmlns:dc="http://purl.org/dc/elements/1.1/" xmlns:rdf="http://www.w3.org/1999/02/22-rdf-syntax-ns#">
   <cc:Work>
    <dc:type rdf:resource="http://purl.org/dc/dcmitype/StillImage"/>
    <dc:date>2022-11-29T14:02:37.226607</dc:date>
    <dc:format>image/svg+xml</dc:format>
    <dc:creator>
     <cc:Agent>
      <dc:title>Matplotlib v3.4.3, https://matplotlib.org/</dc:title>
     </cc:Agent>
    </dc:creator>
   </cc:Work>
  </rdf:RDF>
 </metadata>
 <defs>
  <style type="text/css">*{stroke-linecap:butt;stroke-linejoin:round;}</style>
 </defs>
 <g id="figure_1">
  <g id="patch_1">
   <path d="M 0 385.529583 
L 559.167188 385.529583 
L 559.167188 0 
L 0 0 
z
" style="fill:#ffffff;"/>
  </g>
  <g id="axes_1">
   <g id="patch_2">
    <path d="M 28.942188 361.651458 
L 175.167187 361.651458 
L 175.167187 221.384792 
L 28.942188 221.384792 
z
" style="fill:#ffffff;"/>
   </g>
   <g id="matplotlib.axis_1">
    <g id="xtick_1">
     <g id="line2d_1">
      <defs>
       <path d="M 0 0 
L 0 3.5 
" id="m424fb96701" style="stroke:#000000;stroke-width:0.8;"/>
      </defs>
      <g>
       <use style="stroke:#000000;stroke-width:0.8;" x="35.588778" xlink:href="#m424fb96701" y="361.651458"/>
      </g>
     </g>
     <g id="text_1">
      <!-- 0 -->
      <g transform="translate(32.407528 376.249896)scale(0.1 -0.1)">
       <defs>
        <path d="M 2034 4250 
Q 1547 4250 1301 3770 
Q 1056 3291 1056 2328 
Q 1056 1369 1301 889 
Q 1547 409 2034 409 
Q 2525 409 2770 889 
Q 3016 1369 3016 2328 
Q 3016 3291 2770 3770 
Q 2525 4250 2034 4250 
z
M 2034 4750 
Q 2819 4750 3233 4129 
Q 3647 3509 3647 2328 
Q 3647 1150 3233 529 
Q 2819 -91 2034 -91 
Q 1250 -91 836 529 
Q 422 1150 422 2328 
Q 422 3509 836 4129 
Q 1250 4750 2034 4750 
z
" id="DejaVuSans-30" transform="scale(0.015625)"/>
       </defs>
       <use xlink:href="#DejaVuSans-30"/>
      </g>
     </g>
    </g>
    <g id="xtick_2">
     <g id="line2d_2">
      <g>
       <use style="stroke:#000000;stroke-width:0.8;" x="77.129972" xlink:href="#m424fb96701" y="361.651458"/>
      </g>
     </g>
     <g id="text_2">
      <!-- 10 -->
      <g transform="translate(70.767472 376.249896)scale(0.1 -0.1)">
       <defs>
        <path d="M 794 531 
L 1825 531 
L 1825 4091 
L 703 3866 
L 703 4441 
L 1819 4666 
L 2450 4666 
L 2450 531 
L 3481 531 
L 3481 0 
L 794 0 
L 794 531 
z
" id="DejaVuSans-31" transform="scale(0.015625)"/>
       </defs>
       <use xlink:href="#DejaVuSans-31"/>
       <use x="63.623047" xlink:href="#DejaVuSans-30"/>
      </g>
     </g>
    </g>
    <g id="xtick_3">
     <g id="line2d_3">
      <g>
       <use style="stroke:#000000;stroke-width:0.8;" x="118.671165" xlink:href="#m424fb96701" y="361.651458"/>
      </g>
     </g>
     <g id="text_3">
      <!-- 20 -->
      <g transform="translate(112.308665 376.249896)scale(0.1 -0.1)">
       <defs>
        <path d="M 1228 531 
L 3431 531 
L 3431 0 
L 469 0 
L 469 531 
Q 828 903 1448 1529 
Q 2069 2156 2228 2338 
Q 2531 2678 2651 2914 
Q 2772 3150 2772 3378 
Q 2772 3750 2511 3984 
Q 2250 4219 1831 4219 
Q 1534 4219 1204 4116 
Q 875 4013 500 3803 
L 500 4441 
Q 881 4594 1212 4672 
Q 1544 4750 1819 4750 
Q 2544 4750 2975 4387 
Q 3406 4025 3406 3419 
Q 3406 3131 3298 2873 
Q 3191 2616 2906 2266 
Q 2828 2175 2409 1742 
Q 1991 1309 1228 531 
z
" id="DejaVuSans-32" transform="scale(0.015625)"/>
       </defs>
       <use xlink:href="#DejaVuSans-32"/>
       <use x="63.623047" xlink:href="#DejaVuSans-30"/>
      </g>
     </g>
    </g>
    <g id="xtick_4">
     <g id="line2d_4">
      <g>
       <use style="stroke:#000000;stroke-width:0.8;" x="160.212358" xlink:href="#m424fb96701" y="361.651458"/>
      </g>
     </g>
     <g id="text_4">
      <!-- 30 -->
      <g transform="translate(153.849858 376.249896)scale(0.1 -0.1)">
       <defs>
        <path d="M 2597 2516 
Q 3050 2419 3304 2112 
Q 3559 1806 3559 1356 
Q 3559 666 3084 287 
Q 2609 -91 1734 -91 
Q 1441 -91 1130 -33 
Q 819 25 488 141 
L 488 750 
Q 750 597 1062 519 
Q 1375 441 1716 441 
Q 2309 441 2620 675 
Q 2931 909 2931 1356 
Q 2931 1769 2642 2001 
Q 2353 2234 1838 2234 
L 1294 2234 
L 1294 2753 
L 1863 2753 
Q 2328 2753 2575 2939 
Q 2822 3125 2822 3475 
Q 2822 3834 2567 4026 
Q 2313 4219 1838 4219 
Q 1578 4219 1281 4162 
Q 984 4106 628 3988 
L 628 4550 
Q 988 4650 1302 4700 
Q 1616 4750 1894 4750 
Q 2613 4750 3031 4423 
Q 3450 4097 3450 3541 
Q 3450 3153 3228 2886 
Q 3006 2619 2597 2516 
z
" id="DejaVuSans-33" transform="scale(0.015625)"/>
       </defs>
       <use xlink:href="#DejaVuSans-33"/>
       <use x="63.623047" xlink:href="#DejaVuSans-30"/>
      </g>
     </g>
    </g>
   </g>
   <g id="matplotlib.axis_2">
    <g id="ytick_1">
     <g id="line2d_5">
      <defs>
       <path d="M 0 0 
L -3.5 0 
" id="m2e6cba04e2" style="stroke:#000000;stroke-width:0.8;"/>
      </defs>
      <g>
       <use style="stroke:#000000;stroke-width:0.8;" x="28.942188" xlink:href="#m2e6cba04e2" y="358.875433"/>
      </g>
     </g>
     <g id="text_5">
      <!-- −4 -->
      <g transform="translate(7.2 362.674652)scale(0.1 -0.1)">
       <defs>
        <path d="M 678 2272 
L 4684 2272 
L 4684 1741 
L 678 1741 
L 678 2272 
z
" id="DejaVuSans-2212" transform="scale(0.015625)"/>
        <path d="M 2419 4116 
L 825 1625 
L 2419 1625 
L 2419 4116 
z
M 2253 4666 
L 3047 4666 
L 3047 1625 
L 3713 1625 
L 3713 1100 
L 3047 1100 
L 3047 0 
L 2419 0 
L 2419 1100 
L 313 1100 
L 313 1709 
L 2253 4666 
z
" id="DejaVuSans-34" transform="scale(0.015625)"/>
       </defs>
       <use xlink:href="#DejaVuSans-2212"/>
       <use x="83.789062" xlink:href="#DejaVuSans-34"/>
      </g>
     </g>
    </g>
    <g id="ytick_2">
     <g id="line2d_6">
      <g>
       <use style="stroke:#000000;stroke-width:0.8;" x="28.942188" xlink:href="#m2e6cba04e2" y="335.554129"/>
      </g>
     </g>
     <g id="text_6">
      <!-- −2 -->
      <g transform="translate(7.2 339.353348)scale(0.1 -0.1)">
       <use xlink:href="#DejaVuSans-2212"/>
       <use x="83.789062" xlink:href="#DejaVuSans-32"/>
      </g>
     </g>
    </g>
    <g id="ytick_3">
     <g id="line2d_7">
      <g>
       <use style="stroke:#000000;stroke-width:0.8;" x="28.942188" xlink:href="#m2e6cba04e2" y="312.232826"/>
      </g>
     </g>
     <g id="text_7">
      <!-- 0 -->
      <g transform="translate(15.579688 316.032045)scale(0.1 -0.1)">
       <use xlink:href="#DejaVuSans-30"/>
      </g>
     </g>
    </g>
    <g id="ytick_4">
     <g id="line2d_8">
      <g>
       <use style="stroke:#000000;stroke-width:0.8;" x="28.942188" xlink:href="#m2e6cba04e2" y="288.911523"/>
      </g>
     </g>
     <g id="text_8">
      <!-- 2 -->
      <g transform="translate(15.579688 292.710741)scale(0.1 -0.1)">
       <use xlink:href="#DejaVuSans-32"/>
      </g>
     </g>
    </g>
    <g id="ytick_5">
     <g id="line2d_9">
      <g>
       <use style="stroke:#000000;stroke-width:0.8;" x="28.942188" xlink:href="#m2e6cba04e2" y="265.590219"/>
      </g>
     </g>
     <g id="text_9">
      <!-- 4 -->
      <g transform="translate(15.579688 269.389438)scale(0.1 -0.1)">
       <use xlink:href="#DejaVuSans-34"/>
      </g>
     </g>
    </g>
    <g id="ytick_6">
     <g id="line2d_10">
      <g>
       <use style="stroke:#000000;stroke-width:0.8;" x="28.942188" xlink:href="#m2e6cba04e2" y="242.268916"/>
      </g>
     </g>
     <g id="text_10">
      <!-- 6 -->
      <g transform="translate(15.579688 246.068135)scale(0.1 -0.1)">
       <defs>
        <path d="M 2113 2584 
Q 1688 2584 1439 2293 
Q 1191 2003 1191 1497 
Q 1191 994 1439 701 
Q 1688 409 2113 409 
Q 2538 409 2786 701 
Q 3034 994 3034 1497 
Q 3034 2003 2786 2293 
Q 2538 2584 2113 2584 
z
M 3366 4563 
L 3366 3988 
Q 3128 4100 2886 4159 
Q 2644 4219 2406 4219 
Q 1781 4219 1451 3797 
Q 1122 3375 1075 2522 
Q 1259 2794 1537 2939 
Q 1816 3084 2150 3084 
Q 2853 3084 3261 2657 
Q 3669 2231 3669 1497 
Q 3669 778 3244 343 
Q 2819 -91 2113 -91 
Q 1303 -91 875 529 
Q 447 1150 447 2328 
Q 447 3434 972 4092 
Q 1497 4750 2381 4750 
Q 2619 4750 2861 4703 
Q 3103 4656 3366 4563 
z
" id="DejaVuSans-36" transform="scale(0.015625)"/>
       </defs>
       <use xlink:href="#DejaVuSans-36"/>
      </g>
     </g>
    </g>
   </g>
   <g id="line2d_11">
    <path clip-path="url(#p27cd16dafe)" d="M 35.588778 314.307601 
L 39.742898 314.195062 
L 43.897017 314.195122 
L 48.051136 314.195107 
L 52.205256 314.324021 
L 56.359375 314.292507 
L 60.513494 314.293939 
L 64.667614 314.162222 
L 68.821733 314.167932 
L 72.975852 314.167602 
L 77.129972 314.167727 
L 81.284091 310.373725 
L 85.43821 315.296138 
L 89.59233 315.294965 
L 93.746449 315.337302 
L 97.900568 315.336103 
L 102.054688 315.347119 
L 106.208807 315.304429 
L 110.362926 315.37616 
L 114.517045 314.866304 
L 118.671165 314.87399 
L 122.825284 233.073681 
L 126.979403 349.159001 
L 131.133523 314.481036 
L 135.287642 314.481649 
L 139.441761 314.468322 
L 143.595881 314.474584 
L 147.75 313.441535 
L 151.904119 313.764121 
L 156.058239 307.694553 
L 160.212358 307.694627 
L 164.366477 307.691019 
L 168.520597 313.541229 
" style="fill:none;stroke:#1f77b4;stroke-linecap:square;stroke-width:1.5;"/>
   </g>
   <g id="patch_3">
    <path d="M 28.942188 361.651458 
L 28.942188 221.384792 
" style="fill:none;stroke:#000000;stroke-linecap:square;stroke-linejoin:miter;stroke-width:0.8;"/>
   </g>
   <g id="patch_4">
    <path d="M 175.167187 361.651458 
L 175.167187 221.384792 
" style="fill:none;stroke:#000000;stroke-linecap:square;stroke-linejoin:miter;stroke-width:0.8;"/>
   </g>
   <g id="patch_5">
    <path d="M 28.942188 361.651458 
L 175.167187 361.651458 
" style="fill:none;stroke:#000000;stroke-linecap:square;stroke-linejoin:miter;stroke-width:0.8;"/>
   </g>
   <g id="patch_6">
    <path d="M 28.942188 221.384792 
L 175.167187 221.384792 
" style="fill:none;stroke:#000000;stroke-linecap:square;stroke-linejoin:miter;stroke-width:0.8;"/>
   </g>
   <g id="text_11">
    <!-- x critical points -->
    <g transform="translate(56.167812 201.947417)scale(0.12 -0.12)">
     <defs>
      <path d="M 3513 3500 
L 2247 1797 
L 3578 0 
L 2900 0 
L 1881 1375 
L 863 0 
L 184 0 
L 1544 1831 
L 300 3500 
L 978 3500 
L 1906 2253 
L 2834 3500 
L 3513 3500 
z
" id="DejaVuSans-78" transform="scale(0.015625)"/>
      <path id="DejaVuSans-20" transform="scale(0.015625)"/>
      <path d="M 3122 3366 
L 3122 2828 
Q 2878 2963 2633 3030 
Q 2388 3097 2138 3097 
Q 1578 3097 1268 2742 
Q 959 2388 959 1747 
Q 959 1106 1268 751 
Q 1578 397 2138 397 
Q 2388 397 2633 464 
Q 2878 531 3122 666 
L 3122 134 
Q 2881 22 2623 -34 
Q 2366 -91 2075 -91 
Q 1284 -91 818 406 
Q 353 903 353 1747 
Q 353 2603 823 3093 
Q 1294 3584 2113 3584 
Q 2378 3584 2631 3529 
Q 2884 3475 3122 3366 
z
" id="DejaVuSans-63" transform="scale(0.015625)"/>
      <path d="M 2631 2963 
Q 2534 3019 2420 3045 
Q 2306 3072 2169 3072 
Q 1681 3072 1420 2755 
Q 1159 2438 1159 1844 
L 1159 0 
L 581 0 
L 581 3500 
L 1159 3500 
L 1159 2956 
Q 1341 3275 1631 3429 
Q 1922 3584 2338 3584 
Q 2397 3584 2469 3576 
Q 2541 3569 2628 3553 
L 2631 2963 
z
" id="DejaVuSans-72" transform="scale(0.015625)"/>
      <path d="M 603 3500 
L 1178 3500 
L 1178 0 
L 603 0 
L 603 3500 
z
M 603 4863 
L 1178 4863 
L 1178 4134 
L 603 4134 
L 603 4863 
z
" id="DejaVuSans-69" transform="scale(0.015625)"/>
      <path d="M 1172 4494 
L 1172 3500 
L 2356 3500 
L 2356 3053 
L 1172 3053 
L 1172 1153 
Q 1172 725 1289 603 
Q 1406 481 1766 481 
L 2356 481 
L 2356 0 
L 1766 0 
Q 1100 0 847 248 
Q 594 497 594 1153 
L 594 3053 
L 172 3053 
L 172 3500 
L 594 3500 
L 594 4494 
L 1172 4494 
z
" id="DejaVuSans-74" transform="scale(0.015625)"/>
      <path d="M 2194 1759 
Q 1497 1759 1228 1600 
Q 959 1441 959 1056 
Q 959 750 1161 570 
Q 1363 391 1709 391 
Q 2188 391 2477 730 
Q 2766 1069 2766 1631 
L 2766 1759 
L 2194 1759 
z
M 3341 1997 
L 3341 0 
L 2766 0 
L 2766 531 
Q 2569 213 2275 61 
Q 1981 -91 1556 -91 
Q 1019 -91 701 211 
Q 384 513 384 1019 
Q 384 1609 779 1909 
Q 1175 2209 1959 2209 
L 2766 2209 
L 2766 2266 
Q 2766 2663 2505 2880 
Q 2244 3097 1772 3097 
Q 1472 3097 1187 3025 
Q 903 2953 641 2809 
L 641 3341 
Q 956 3463 1253 3523 
Q 1550 3584 1831 3584 
Q 2591 3584 2966 3190 
Q 3341 2797 3341 1997 
z
" id="DejaVuSans-61" transform="scale(0.015625)"/>
      <path d="M 603 4863 
L 1178 4863 
L 1178 0 
L 603 0 
L 603 4863 
z
" id="DejaVuSans-6c" transform="scale(0.015625)"/>
      <path d="M 1159 525 
L 1159 -1331 
L 581 -1331 
L 581 3500 
L 1159 3500 
L 1159 2969 
Q 1341 3281 1617 3432 
Q 1894 3584 2278 3584 
Q 2916 3584 3314 3078 
Q 3713 2572 3713 1747 
Q 3713 922 3314 415 
Q 2916 -91 2278 -91 
Q 1894 -91 1617 61 
Q 1341 213 1159 525 
z
M 3116 1747 
Q 3116 2381 2855 2742 
Q 2594 3103 2138 3103 
Q 1681 3103 1420 2742 
Q 1159 2381 1159 1747 
Q 1159 1113 1420 752 
Q 1681 391 2138 391 
Q 2594 391 2855 752 
Q 3116 1113 3116 1747 
z
" id="DejaVuSans-70" transform="scale(0.015625)"/>
      <path d="M 1959 3097 
Q 1497 3097 1228 2736 
Q 959 2375 959 1747 
Q 959 1119 1226 758 
Q 1494 397 1959 397 
Q 2419 397 2687 759 
Q 2956 1122 2956 1747 
Q 2956 2369 2687 2733 
Q 2419 3097 1959 3097 
z
M 1959 3584 
Q 2709 3584 3137 3096 
Q 3566 2609 3566 1747 
Q 3566 888 3137 398 
Q 2709 -91 1959 -91 
Q 1206 -91 779 398 
Q 353 888 353 1747 
Q 353 2609 779 3096 
Q 1206 3584 1959 3584 
z
" id="DejaVuSans-6f" transform="scale(0.015625)"/>
      <path d="M 3513 2113 
L 3513 0 
L 2938 0 
L 2938 2094 
Q 2938 2591 2744 2837 
Q 2550 3084 2163 3084 
Q 1697 3084 1428 2787 
Q 1159 2491 1159 1978 
L 1159 0 
L 581 0 
L 581 3500 
L 1159 3500 
L 1159 2956 
Q 1366 3272 1645 3428 
Q 1925 3584 2291 3584 
Q 2894 3584 3203 3211 
Q 3513 2838 3513 2113 
z
" id="DejaVuSans-6e" transform="scale(0.015625)"/>
      <path d="M 2834 3397 
L 2834 2853 
Q 2591 2978 2328 3040 
Q 2066 3103 1784 3103 
Q 1356 3103 1142 2972 
Q 928 2841 928 2578 
Q 928 2378 1081 2264 
Q 1234 2150 1697 2047 
L 1894 2003 
Q 2506 1872 2764 1633 
Q 3022 1394 3022 966 
Q 3022 478 2636 193 
Q 2250 -91 1575 -91 
Q 1294 -91 989 -36 
Q 684 19 347 128 
L 347 722 
Q 666 556 975 473 
Q 1284 391 1588 391 
Q 1994 391 2212 530 
Q 2431 669 2431 922 
Q 2431 1156 2273 1281 
Q 2116 1406 1581 1522 
L 1381 1569 
Q 847 1681 609 1914 
Q 372 2147 372 2553 
Q 372 3047 722 3315 
Q 1072 3584 1716 3584 
Q 2034 3584 2315 3537 
Q 2597 3491 2834 3397 
z
" id="DejaVuSans-73" transform="scale(0.015625)"/>
     </defs>
     <use xlink:href="#DejaVuSans-78"/>
     <use x="59.179688" xlink:href="#DejaVuSans-20"/>
     <use x="90.966797" xlink:href="#DejaVuSans-63"/>
     <use x="145.947266" xlink:href="#DejaVuSans-72"/>
     <use x="187.060547" xlink:href="#DejaVuSans-69"/>
     <use x="214.84375" xlink:href="#DejaVuSans-74"/>
     <use x="254.052734" xlink:href="#DejaVuSans-69"/>
     <use x="281.835938" xlink:href="#DejaVuSans-63"/>
     <use x="336.816406" xlink:href="#DejaVuSans-61"/>
     <use x="398.095703" xlink:href="#DejaVuSans-6c"/>
     <use x="425.878906" xlink:href="#DejaVuSans-20"/>
     <use x="457.666016" xlink:href="#DejaVuSans-70"/>
     <use x="521.142578" xlink:href="#DejaVuSans-6f"/>
     <use x="582.324219" xlink:href="#DejaVuSans-69"/>
     <use x="610.107422" xlink:href="#DejaVuSans-6e"/>
     <use x="673.486328" xlink:href="#DejaVuSans-74"/>
     <use x="712.695312" xlink:href="#DejaVuSans-73"/>
    </g>
    <!-- Deletion Cost=0.04 -->
    <g transform="translate(43.258437 215.384792)scale(0.12 -0.12)">
     <defs>
      <path d="M 1259 4147 
L 1259 519 
L 2022 519 
Q 2988 519 3436 956 
Q 3884 1394 3884 2338 
Q 3884 3275 3436 3711 
Q 2988 4147 2022 4147 
L 1259 4147 
z
M 628 4666 
L 1925 4666 
Q 3281 4666 3915 4102 
Q 4550 3538 4550 2338 
Q 4550 1131 3912 565 
Q 3275 0 1925 0 
L 628 0 
L 628 4666 
z
" id="DejaVuSans-44" transform="scale(0.015625)"/>
      <path d="M 3597 1894 
L 3597 1613 
L 953 1613 
Q 991 1019 1311 708 
Q 1631 397 2203 397 
Q 2534 397 2845 478 
Q 3156 559 3463 722 
L 3463 178 
Q 3153 47 2828 -22 
Q 2503 -91 2169 -91 
Q 1331 -91 842 396 
Q 353 884 353 1716 
Q 353 2575 817 3079 
Q 1281 3584 2069 3584 
Q 2775 3584 3186 3129 
Q 3597 2675 3597 1894 
z
M 3022 2063 
Q 3016 2534 2758 2815 
Q 2500 3097 2075 3097 
Q 1594 3097 1305 2825 
Q 1016 2553 972 2059 
L 3022 2063 
z
" id="DejaVuSans-65" transform="scale(0.015625)"/>
      <path d="M 4122 4306 
L 4122 3641 
Q 3803 3938 3442 4084 
Q 3081 4231 2675 4231 
Q 1875 4231 1450 3742 
Q 1025 3253 1025 2328 
Q 1025 1406 1450 917 
Q 1875 428 2675 428 
Q 3081 428 3442 575 
Q 3803 722 4122 1019 
L 4122 359 
Q 3791 134 3420 21 
Q 3050 -91 2638 -91 
Q 1578 -91 968 557 
Q 359 1206 359 2328 
Q 359 3453 968 4101 
Q 1578 4750 2638 4750 
Q 3056 4750 3426 4639 
Q 3797 4528 4122 4306 
z
" id="DejaVuSans-43" transform="scale(0.015625)"/>
      <path d="M 678 2906 
L 4684 2906 
L 4684 2381 
L 678 2381 
L 678 2906 
z
M 678 1631 
L 4684 1631 
L 4684 1100 
L 678 1100 
L 678 1631 
z
" id="DejaVuSans-3d" transform="scale(0.015625)"/>
      <path d="M 684 794 
L 1344 794 
L 1344 0 
L 684 0 
L 684 794 
z
" id="DejaVuSans-2e" transform="scale(0.015625)"/>
     </defs>
     <use xlink:href="#DejaVuSans-44"/>
     <use x="77.001953" xlink:href="#DejaVuSans-65"/>
     <use x="138.525391" xlink:href="#DejaVuSans-6c"/>
     <use x="166.308594" xlink:href="#DejaVuSans-65"/>
     <use x="227.832031" xlink:href="#DejaVuSans-74"/>
     <use x="267.041016" xlink:href="#DejaVuSans-69"/>
     <use x="294.824219" xlink:href="#DejaVuSans-6f"/>
     <use x="356.005859" xlink:href="#DejaVuSans-6e"/>
     <use x="419.384766" xlink:href="#DejaVuSans-20"/>
     <use x="451.171875" xlink:href="#DejaVuSans-43"/>
     <use x="520.996094" xlink:href="#DejaVuSans-6f"/>
     <use x="582.177734" xlink:href="#DejaVuSans-73"/>
     <use x="634.277344" xlink:href="#DejaVuSans-74"/>
     <use x="673.486328" xlink:href="#DejaVuSans-3d"/>
     <use x="757.275391" xlink:href="#DejaVuSans-30"/>
     <use x="820.898438" xlink:href="#DejaVuSans-2e"/>
     <use x="852.685547" xlink:href="#DejaVuSans-30"/>
     <use x="916.308594" xlink:href="#DejaVuSans-34"/>
    </g>
   </g>
   <g id="PathCollection_1">
    <defs>
     <path d="M -3 3 
L 3 -3 
M -3 -3 
L 3 3 
" id="m2e1219b1fe" style="stroke:#d62728;stroke-width:1.5;"/>
    </defs>
    <g clip-path="url(#p27cd16dafe)">
     <use style="fill:#d62728;stroke:#d62728;stroke-width:1.5;" x="35.588778" xlink:href="#m2e1219b1fe" y="314.307601"/>
     <use style="fill:#d62728;stroke:#d62728;stroke-width:1.5;" x="39.742898" xlink:href="#m2e1219b1fe" y="314.195062"/>
     <use style="fill:#d62728;stroke:#d62728;stroke-width:1.5;" x="43.897017" xlink:href="#m2e1219b1fe" y="314.195122"/>
     <use style="fill:#d62728;stroke:#d62728;stroke-width:1.5;" x="48.051136" xlink:href="#m2e1219b1fe" y="314.195107"/>
    </g>
   </g>
   <g id="PathCollection_2">
    <g clip-path="url(#p27cd16dafe)">
     <use style="fill:#d62728;stroke:#d62728;stroke-width:1.5;" x="56.359375" xlink:href="#m2e1219b1fe" y="314.292507"/>
     <use style="fill:#d62728;stroke:#d62728;stroke-width:1.5;" x="60.513494" xlink:href="#m2e1219b1fe" y="314.293939"/>
     <use style="fill:#d62728;stroke:#d62728;stroke-width:1.5;" x="64.667614" xlink:href="#m2e1219b1fe" y="314.162222"/>
     <use style="fill:#d62728;stroke:#d62728;stroke-width:1.5;" x="68.821733" xlink:href="#m2e1219b1fe" y="314.167932"/>
     <use style="fill:#d62728;stroke:#d62728;stroke-width:1.5;" x="72.975852" xlink:href="#m2e1219b1fe" y="314.167602"/>
     <use style="fill:#d62728;stroke:#d62728;stroke-width:1.5;" x="77.129972" xlink:href="#m2e1219b1fe" y="314.167727"/>
    </g>
   </g>
   <g id="PathCollection_3">
    <g clip-path="url(#p27cd16dafe)">
     <use style="fill:#d62728;stroke:#d62728;stroke-width:1.5;" x="85.43821" xlink:href="#m2e1219b1fe" y="315.296138"/>
     <use style="fill:#d62728;stroke:#d62728;stroke-width:1.5;" x="89.59233" xlink:href="#m2e1219b1fe" y="315.294965"/>
     <use style="fill:#d62728;stroke:#d62728;stroke-width:1.5;" x="93.746449" xlink:href="#m2e1219b1fe" y="315.337302"/>
     <use style="fill:#d62728;stroke:#d62728;stroke-width:1.5;" x="97.900568" xlink:href="#m2e1219b1fe" y="315.336103"/>
     <use style="fill:#d62728;stroke:#d62728;stroke-width:1.5;" x="102.054688" xlink:href="#m2e1219b1fe" y="315.347119"/>
     <use style="fill:#d62728;stroke:#d62728;stroke-width:1.5;" x="106.208807" xlink:href="#m2e1219b1fe" y="315.304429"/>
    </g>
   </g>
   <g id="PathCollection_4">
    <g clip-path="url(#p27cd16dafe)">
     <use style="fill:#d62728;stroke:#d62728;stroke-width:1.5;" x="114.517045" xlink:href="#m2e1219b1fe" y="314.866304"/>
     <use style="fill:#d62728;stroke:#d62728;stroke-width:1.5;" x="118.671165" xlink:href="#m2e1219b1fe" y="314.87399"/>
    </g>
   </g>
   <g id="PathCollection_5">
    <g clip-path="url(#p27cd16dafe)">
     <use style="fill:#d62728;stroke:#d62728;stroke-width:1.5;" x="131.133523" xlink:href="#m2e1219b1fe" y="314.481036"/>
     <use style="fill:#d62728;stroke:#d62728;stroke-width:1.5;" x="135.287642" xlink:href="#m2e1219b1fe" y="314.481649"/>
     <use style="fill:#d62728;stroke:#d62728;stroke-width:1.5;" x="139.441761" xlink:href="#m2e1219b1fe" y="314.468322"/>
     <use style="fill:#d62728;stroke:#d62728;stroke-width:1.5;" x="143.595881" xlink:href="#m2e1219b1fe" y="314.474584"/>
     <use style="fill:#d62728;stroke:#d62728;stroke-width:1.5;" x="147.75" xlink:href="#m2e1219b1fe" y="313.441535"/>
     <use style="fill:#d62728;stroke:#d62728;stroke-width:1.5;" x="151.904119" xlink:href="#m2e1219b1fe" y="313.764121"/>
     <use style="fill:#d62728;stroke:#d62728;stroke-width:1.5;" x="156.058239" xlink:href="#m2e1219b1fe" y="307.694553"/>
     <use style="fill:#d62728;stroke:#d62728;stroke-width:1.5;" x="160.212358" xlink:href="#m2e1219b1fe" y="307.694627"/>
    </g>
   </g>
  </g>
  <g id="axes_2">
   <g id="patch_7">
    <path d="M 217.342188 361.651458 
L 363.567187 361.651458 
L 363.567187 221.384792 
L 217.342188 221.384792 
z
" style="fill:#ffffff;"/>
   </g>
   <g id="matplotlib.axis_3">
    <g id="xtick_5">
     <g id="line2d_12">
      <g>
       <use style="stroke:#000000;stroke-width:0.8;" x="223.988778" xlink:href="#m424fb96701" y="361.651458"/>
      </g>
     </g>
     <g id="text_12">
      <!-- 0 -->
      <g transform="translate(220.807528 376.249896)scale(0.1 -0.1)">
       <use xlink:href="#DejaVuSans-30"/>
      </g>
     </g>
    </g>
    <g id="xtick_6">
     <g id="line2d_13">
      <g>
       <use style="stroke:#000000;stroke-width:0.8;" x="279.377036" xlink:href="#m424fb96701" y="361.651458"/>
      </g>
     </g>
     <g id="text_13">
      <!-- 10 -->
      <g transform="translate(273.014536 376.249896)scale(0.1 -0.1)">
       <use xlink:href="#DejaVuSans-31"/>
       <use x="63.623047" xlink:href="#DejaVuSans-30"/>
      </g>
     </g>
    </g>
    <g id="xtick_7">
     <g id="line2d_14">
      <g>
       <use style="stroke:#000000;stroke-width:0.8;" x="334.765294" xlink:href="#m424fb96701" y="361.651458"/>
      </g>
     </g>
     <g id="text_14">
      <!-- 20 -->
      <g transform="translate(328.402794 376.249896)scale(0.1 -0.1)">
       <use xlink:href="#DejaVuSans-32"/>
       <use x="63.623047" xlink:href="#DejaVuSans-30"/>
      </g>
     </g>
    </g>
   </g>
   <g id="matplotlib.axis_4">
    <g id="ytick_7">
     <g id="line2d_15">
      <g>
       <use style="stroke:#000000;stroke-width:0.8;" x="217.342188" xlink:href="#m2e6cba04e2" y="358.875433"/>
      </g>
     </g>
     <g id="text_15">
      <!-- −4 -->
      <g transform="translate(195.6 362.674652)scale(0.1 -0.1)">
       <use xlink:href="#DejaVuSans-2212"/>
       <use x="83.789062" xlink:href="#DejaVuSans-34"/>
      </g>
     </g>
    </g>
    <g id="ytick_8">
     <g id="line2d_16">
      <g>
       <use style="stroke:#000000;stroke-width:0.8;" x="217.342188" xlink:href="#m2e6cba04e2" y="335.554129"/>
      </g>
     </g>
     <g id="text_16">
      <!-- −2 -->
      <g transform="translate(195.6 339.353348)scale(0.1 -0.1)">
       <use xlink:href="#DejaVuSans-2212"/>
       <use x="83.789062" xlink:href="#DejaVuSans-32"/>
      </g>
     </g>
    </g>
    <g id="ytick_9">
     <g id="line2d_17">
      <g>
       <use style="stroke:#000000;stroke-width:0.8;" x="217.342188" xlink:href="#m2e6cba04e2" y="312.232826"/>
      </g>
     </g>
     <g id="text_17">
      <!-- 0 -->
      <g transform="translate(203.979688 316.032045)scale(0.1 -0.1)">
       <use xlink:href="#DejaVuSans-30"/>
      </g>
     </g>
    </g>
    <g id="ytick_10">
     <g id="line2d_18">
      <g>
       <use style="stroke:#000000;stroke-width:0.8;" x="217.342188" xlink:href="#m2e6cba04e2" y="288.911523"/>
      </g>
     </g>
     <g id="text_18">
      <!-- 2 -->
      <g transform="translate(203.979688 292.710741)scale(0.1 -0.1)">
       <use xlink:href="#DejaVuSans-32"/>
      </g>
     </g>
    </g>
    <g id="ytick_11">
     <g id="line2d_19">
      <g>
       <use style="stroke:#000000;stroke-width:0.8;" x="217.342188" xlink:href="#m2e6cba04e2" y="265.590219"/>
      </g>
     </g>
     <g id="text_19">
      <!-- 4 -->
      <g transform="translate(203.979688 269.389438)scale(0.1 -0.1)">
       <use xlink:href="#DejaVuSans-34"/>
      </g>
     </g>
    </g>
    <g id="ytick_12">
     <g id="line2d_20">
      <g>
       <use style="stroke:#000000;stroke-width:0.8;" x="217.342188" xlink:href="#m2e6cba04e2" y="242.268916"/>
      </g>
     </g>
     <g id="text_20">
      <!-- 6 -->
      <g transform="translate(203.979688 246.068135)scale(0.1 -0.1)">
       <use xlink:href="#DejaVuSans-36"/>
      </g>
     </g>
    </g>
   </g>
   <g id="line2d_21">
    <path clip-path="url(#pe5d200bede)" d="M 223.988778 314.89865 
L 229.527604 314.895259 
L 235.06643 314.957526 
L 240.605256 314.94846 
L 246.144081 315.500514 
L 251.682907 315.496808 
L 257.221733 315.529833 
L 262.760559 315.527819 
L 268.299384 315.762761 
L 273.83821 315.760444 
L 279.377036 315.787839 
L 284.915862 315.787542 
L 290.454687 315.788023 
L 295.993513 313.320937 
L 301.532339 313.472541 
L 307.071165 313.338907 
L 312.609991 317.038962 
L 318.148816 315.405101 
L 323.687642 315.408639 
L 329.226468 315.391014 
L 334.765294 315.894123 
L 340.304119 240.850983 
L 345.842945 349.962569 
L 351.381771 301.295026 
L 356.920597 313.263344 
" style="fill:none;stroke:#ff7f0e;stroke-linecap:square;stroke-width:1.5;"/>
   </g>
   <g id="patch_8">
    <path d="M 217.342188 361.651458 
L 217.342188 221.384792 
" style="fill:none;stroke:#000000;stroke-linecap:square;stroke-linejoin:miter;stroke-width:0.8;"/>
   </g>
   <g id="patch_9">
    <path d="M 363.567187 361.651458 
L 363.567187 221.384792 
" style="fill:none;stroke:#000000;stroke-linecap:square;stroke-linejoin:miter;stroke-width:0.8;"/>
   </g>
   <g id="patch_10">
    <path d="M 217.342188 361.651458 
L 363.567187 361.651458 
" style="fill:none;stroke:#000000;stroke-linecap:square;stroke-linejoin:miter;stroke-width:0.8;"/>
   </g>
   <g id="patch_11">
    <path d="M 217.342188 221.384792 
L 363.567187 221.384792 
" style="fill:none;stroke:#000000;stroke-linecap:square;stroke-linejoin:miter;stroke-width:0.8;"/>
   </g>
   <g id="text_21">
    <!-- y critical points -->
    <g transform="translate(244.567812 201.947417)scale(0.12 -0.12)">
     <defs>
      <path d="M 2059 -325 
Q 1816 -950 1584 -1140 
Q 1353 -1331 966 -1331 
L 506 -1331 
L 506 -850 
L 844 -850 
Q 1081 -850 1212 -737 
Q 1344 -625 1503 -206 
L 1606 56 
L 191 3500 
L 800 3500 
L 1894 763 
L 2988 3500 
L 3597 3500 
L 2059 -325 
z
" id="DejaVuSans-79" transform="scale(0.015625)"/>
     </defs>
     <use xlink:href="#DejaVuSans-79"/>
     <use x="59.179688" xlink:href="#DejaVuSans-20"/>
     <use x="90.966797" xlink:href="#DejaVuSans-63"/>
     <use x="145.947266" xlink:href="#DejaVuSans-72"/>
     <use x="187.060547" xlink:href="#DejaVuSans-69"/>
     <use x="214.84375" xlink:href="#DejaVuSans-74"/>
     <use x="254.052734" xlink:href="#DejaVuSans-69"/>
     <use x="281.835938" xlink:href="#DejaVuSans-63"/>
     <use x="336.816406" xlink:href="#DejaVuSans-61"/>
     <use x="398.095703" xlink:href="#DejaVuSans-6c"/>
     <use x="425.878906" xlink:href="#DejaVuSans-20"/>
     <use x="457.666016" xlink:href="#DejaVuSans-70"/>
     <use x="521.142578" xlink:href="#DejaVuSans-6f"/>
     <use x="582.324219" xlink:href="#DejaVuSans-69"/>
     <use x="610.107422" xlink:href="#DejaVuSans-6e"/>
     <use x="673.486328" xlink:href="#DejaVuSans-74"/>
     <use x="712.695312" xlink:href="#DejaVuSans-73"/>
    </g>
    <!-- Deletion Cost=0.08 -->
    <g transform="translate(231.658437 215.384792)scale(0.12 -0.12)">
     <defs>
      <path d="M 2034 2216 
Q 1584 2216 1326 1975 
Q 1069 1734 1069 1313 
Q 1069 891 1326 650 
Q 1584 409 2034 409 
Q 2484 409 2743 651 
Q 3003 894 3003 1313 
Q 3003 1734 2745 1975 
Q 2488 2216 2034 2216 
z
M 1403 2484 
Q 997 2584 770 2862 
Q 544 3141 544 3541 
Q 544 4100 942 4425 
Q 1341 4750 2034 4750 
Q 2731 4750 3128 4425 
Q 3525 4100 3525 3541 
Q 3525 3141 3298 2862 
Q 3072 2584 2669 2484 
Q 3125 2378 3379 2068 
Q 3634 1759 3634 1313 
Q 3634 634 3220 271 
Q 2806 -91 2034 -91 
Q 1263 -91 848 271 
Q 434 634 434 1313 
Q 434 1759 690 2068 
Q 947 2378 1403 2484 
z
M 1172 3481 
Q 1172 3119 1398 2916 
Q 1625 2713 2034 2713 
Q 2441 2713 2670 2916 
Q 2900 3119 2900 3481 
Q 2900 3844 2670 4047 
Q 2441 4250 2034 4250 
Q 1625 4250 1398 4047 
Q 1172 3844 1172 3481 
z
" id="DejaVuSans-38" transform="scale(0.015625)"/>
     </defs>
     <use xlink:href="#DejaVuSans-44"/>
     <use x="77.001953" xlink:href="#DejaVuSans-65"/>
     <use x="138.525391" xlink:href="#DejaVuSans-6c"/>
     <use x="166.308594" xlink:href="#DejaVuSans-65"/>
     <use x="227.832031" xlink:href="#DejaVuSans-74"/>
     <use x="267.041016" xlink:href="#DejaVuSans-69"/>
     <use x="294.824219" xlink:href="#DejaVuSans-6f"/>
     <use x="356.005859" xlink:href="#DejaVuSans-6e"/>
     <use x="419.384766" xlink:href="#DejaVuSans-20"/>
     <use x="451.171875" xlink:href="#DejaVuSans-43"/>
     <use x="520.996094" xlink:href="#DejaVuSans-6f"/>
     <use x="582.177734" xlink:href="#DejaVuSans-73"/>
     <use x="634.277344" xlink:href="#DejaVuSans-74"/>
     <use x="673.486328" xlink:href="#DejaVuSans-3d"/>
     <use x="757.275391" xlink:href="#DejaVuSans-30"/>
     <use x="820.898438" xlink:href="#DejaVuSans-2e"/>
     <use x="852.685547" xlink:href="#DejaVuSans-30"/>
     <use x="916.308594" xlink:href="#DejaVuSans-38"/>
    </g>
   </g>
   <g id="PathCollection_6">
    <g clip-path="url(#pe5d200bede)">
     <use style="fill:#d62728;stroke:#d62728;stroke-width:1.5;" x="223.988778" xlink:href="#m2e1219b1fe" y="314.89865"/>
     <use style="fill:#d62728;stroke:#d62728;stroke-width:1.5;" x="229.527604" xlink:href="#m2e1219b1fe" y="314.895259"/>
     <use style="fill:#d62728;stroke:#d62728;stroke-width:1.5;" x="235.06643" xlink:href="#m2e1219b1fe" y="314.957526"/>
     <use style="fill:#d62728;stroke:#d62728;stroke-width:1.5;" x="240.605256" xlink:href="#m2e1219b1fe" y="314.94846"/>
    </g>
   </g>
   <g id="PathCollection_7">
    <g clip-path="url(#pe5d200bede)">
     <use style="fill:#d62728;stroke:#d62728;stroke-width:1.5;" x="251.682907" xlink:href="#m2e1219b1fe" y="315.496808"/>
     <use style="fill:#d62728;stroke:#d62728;stroke-width:1.5;" x="257.221733" xlink:href="#m2e1219b1fe" y="315.529833"/>
     <use style="fill:#d62728;stroke:#d62728;stroke-width:1.5;" x="262.760559" xlink:href="#m2e1219b1fe" y="315.527819"/>
     <use style="fill:#d62728;stroke:#d62728;stroke-width:1.5;" x="268.299384" xlink:href="#m2e1219b1fe" y="315.762761"/>
     <use style="fill:#d62728;stroke:#d62728;stroke-width:1.5;" x="273.83821" xlink:href="#m2e1219b1fe" y="315.760444"/>
     <use style="fill:#d62728;stroke:#d62728;stroke-width:1.5;" x="279.377036" xlink:href="#m2e1219b1fe" y="315.787839"/>
     <use style="fill:#d62728;stroke:#d62728;stroke-width:1.5;" x="284.915862" xlink:href="#m2e1219b1fe" y="315.787542"/>
     <use style="fill:#d62728;stroke:#d62728;stroke-width:1.5;" x="290.454687" xlink:href="#m2e1219b1fe" y="315.788023"/>
    </g>
   </g>
   <g id="PathCollection_8">
    <g clip-path="url(#pe5d200bede)">
     <use style="fill:#d62728;stroke:#d62728;stroke-width:1.5;" x="301.532339" xlink:href="#m2e1219b1fe" y="313.472541"/>
     <use style="fill:#d62728;stroke:#d62728;stroke-width:1.5;" x="307.071165" xlink:href="#m2e1219b1fe" y="313.338907"/>
    </g>
   </g>
   <g id="PathCollection_9">
    <g clip-path="url(#pe5d200bede)">
     <use style="fill:#d62728;stroke:#d62728;stroke-width:1.5;" x="318.148816" xlink:href="#m2e1219b1fe" y="315.405101"/>
     <use style="fill:#d62728;stroke:#d62728;stroke-width:1.5;" x="323.687642" xlink:href="#m2e1219b1fe" y="315.408639"/>
     <use style="fill:#d62728;stroke:#d62728;stroke-width:1.5;" x="329.226468" xlink:href="#m2e1219b1fe" y="315.391014"/>
     <use style="fill:#d62728;stroke:#d62728;stroke-width:1.5;" x="334.765294" xlink:href="#m2e1219b1fe" y="315.894123"/>
    </g>
   </g>
  </g>
  <g id="axes_3">
   <g id="patch_12">
    <path d="M 405.742188 361.651458 
L 551.967188 361.651458 
L 551.967188 221.384792 
L 405.742188 221.384792 
z
" style="fill:#ffffff;"/>
   </g>
   <g id="matplotlib.axis_5">
    <g id="xtick_8">
     <g id="line2d_22">
      <g>
       <use style="stroke:#000000;stroke-width:0.8;" x="412.388778" xlink:href="#m424fb96701" y="361.651458"/>
      </g>
     </g>
     <g id="text_22">
      <!-- 0 -->
      <g transform="translate(409.207528 376.249896)scale(0.1 -0.1)">
       <use xlink:href="#DejaVuSans-30"/>
      </g>
     </g>
    </g>
    <g id="xtick_9">
     <g id="line2d_23">
      <g>
       <use style="stroke:#000000;stroke-width:0.8;" x="456.699384" xlink:href="#m424fb96701" y="361.651458"/>
      </g>
     </g>
     <g id="text_23">
      <!-- 2 -->
      <g transform="translate(453.518134 376.249896)scale(0.1 -0.1)">
       <use xlink:href="#DejaVuSans-32"/>
      </g>
     </g>
    </g>
    <g id="xtick_10">
     <g id="line2d_24">
      <g>
       <use style="stroke:#000000;stroke-width:0.8;" x="501.009991" xlink:href="#m424fb96701" y="361.651458"/>
      </g>
     </g>
     <g id="text_24">
      <!-- 4 -->
      <g transform="translate(497.828741 376.249896)scale(0.1 -0.1)">
       <use xlink:href="#DejaVuSans-34"/>
      </g>
     </g>
    </g>
    <g id="xtick_11">
     <g id="line2d_25">
      <g>
       <use style="stroke:#000000;stroke-width:0.8;" x="545.320597" xlink:href="#m424fb96701" y="361.651458"/>
      </g>
     </g>
     <g id="text_25">
      <!-- 6 -->
      <g transform="translate(542.139347 376.249896)scale(0.1 -0.1)">
       <use xlink:href="#DejaVuSans-36"/>
      </g>
     </g>
    </g>
   </g>
   <g id="matplotlib.axis_6">
    <g id="ytick_13">
     <g id="line2d_26">
      <g>
       <use style="stroke:#000000;stroke-width:0.8;" x="405.742188" xlink:href="#m2e6cba04e2" y="358.875433"/>
      </g>
     </g>
     <g id="text_26">
      <!-- −4 -->
      <g transform="translate(384 362.674652)scale(0.1 -0.1)">
       <use xlink:href="#DejaVuSans-2212"/>
       <use x="83.789062" xlink:href="#DejaVuSans-34"/>
      </g>
     </g>
    </g>
    <g id="ytick_14">
     <g id="line2d_27">
      <g>
       <use style="stroke:#000000;stroke-width:0.8;" x="405.742188" xlink:href="#m2e6cba04e2" y="335.554129"/>
      </g>
     </g>
     <g id="text_27">
      <!-- −2 -->
      <g transform="translate(384 339.353348)scale(0.1 -0.1)">
       <use xlink:href="#DejaVuSans-2212"/>
       <use x="83.789062" xlink:href="#DejaVuSans-32"/>
      </g>
     </g>
    </g>
    <g id="ytick_15">
     <g id="line2d_28">
      <g>
       <use style="stroke:#000000;stroke-width:0.8;" x="405.742188" xlink:href="#m2e6cba04e2" y="312.232826"/>
      </g>
     </g>
     <g id="text_28">
      <!-- 0 -->
      <g transform="translate(392.379688 316.032045)scale(0.1 -0.1)">
       <use xlink:href="#DejaVuSans-30"/>
      </g>
     </g>
    </g>
    <g id="ytick_16">
     <g id="line2d_29">
      <g>
       <use style="stroke:#000000;stroke-width:0.8;" x="405.742188" xlink:href="#m2e6cba04e2" y="288.911523"/>
      </g>
     </g>
     <g id="text_29">
      <!-- 2 -->
      <g transform="translate(392.379688 292.710741)scale(0.1 -0.1)">
       <use xlink:href="#DejaVuSans-32"/>
      </g>
     </g>
    </g>
    <g id="ytick_17">
     <g id="line2d_30">
      <g>
       <use style="stroke:#000000;stroke-width:0.8;" x="405.742188" xlink:href="#m2e6cba04e2" y="265.590219"/>
      </g>
     </g>
     <g id="text_30">
      <!-- 4 -->
      <g transform="translate(392.379688 269.389438)scale(0.1 -0.1)">
       <use xlink:href="#DejaVuSans-34"/>
      </g>
     </g>
    </g>
    <g id="ytick_18">
     <g id="line2d_31">
      <g>
       <use style="stroke:#000000;stroke-width:0.8;" x="405.742188" xlink:href="#m2e6cba04e2" y="242.268916"/>
      </g>
     </g>
     <g id="text_31">
      <!-- 6 -->
      <g transform="translate(392.379688 246.068135)scale(0.1 -0.1)">
       <use xlink:href="#DejaVuSans-36"/>
      </g>
     </g>
    </g>
   </g>
   <g id="line2d_32">
    <path clip-path="url(#p91550a881c)" d="M 412.388778 314.324021 
L 434.544081 310.373725 
L 456.699384 315.37616 
L 478.854688 233.073681 
L 501.009991 349.159001 
L 523.165294 307.691019 
L 545.320597 313.541229 
" style="fill:none;stroke:#1f77b4;stroke-linecap:square;stroke-width:1.5;"/>
   </g>
   <g id="line2d_33">
    <path clip-path="url(#p91550a881c)" d="M 412.388778 315.500514 
L 434.544081 313.320937 
L 456.699384 317.038962 
L 478.854688 240.850983 
L 501.009991 349.962569 
L 523.165294 301.295026 
L 545.320597 313.263344 
" style="fill:none;stroke:#ff7f0e;stroke-dasharray:5.55,2.4;stroke-dashoffset:0;stroke-width:1.5;"/>
   </g>
   <g id="line2d_34">
    <path clip-path="url(#p91550a881c)" d="M 412.388778 314.324021 
L 412.388778 315.500514 
" style="fill:none;stroke:#000000;stroke-dasharray:5.55,2.4;stroke-dashoffset:0;stroke-width:1.5;"/>
   </g>
   <g id="line2d_35">
    <path clip-path="url(#p91550a881c)" d="M 434.544081 310.373725 
L 434.544081 313.320937 
" style="fill:none;stroke:#000000;stroke-dasharray:5.55,2.4;stroke-dashoffset:0;stroke-width:1.5;"/>
   </g>
   <g id="line2d_36">
    <path clip-path="url(#p91550a881c)" d="M 456.699384 315.37616 
L 456.699384 317.038962 
" style="fill:none;stroke:#000000;stroke-dasharray:5.55,2.4;stroke-dashoffset:0;stroke-width:1.5;"/>
   </g>
   <g id="line2d_37">
    <path clip-path="url(#p91550a881c)" d="M 478.854688 233.073681 
L 478.854688 240.850983 
" style="fill:none;stroke:#000000;stroke-dasharray:5.55,2.4;stroke-dashoffset:0;stroke-width:1.5;"/>
   </g>
   <g id="line2d_38">
    <path clip-path="url(#p91550a881c)" d="M 501.009991 349.159001 
L 501.009991 349.962569 
" style="fill:none;stroke:#000000;stroke-dasharray:5.55,2.4;stroke-dashoffset:0;stroke-width:1.5;"/>
   </g>
   <g id="line2d_39">
    <path clip-path="url(#p91550a881c)" d="M 523.165294 307.691019 
L 523.165294 301.295026 
" style="fill:none;stroke:#000000;stroke-dasharray:5.55,2.4;stroke-dashoffset:0;stroke-width:1.5;"/>
   </g>
   <g id="line2d_40">
    <path clip-path="url(#p91550a881c)" d="M 545.320597 313.541229 
L 545.320597 313.263344 
" style="fill:none;stroke:#000000;stroke-dasharray:5.55,2.4;stroke-dashoffset:0;stroke-width:1.5;"/>
   </g>
   <g id="patch_13">
    <path d="M 405.742188 361.651458 
L 405.742188 221.384792 
" style="fill:none;stroke:#000000;stroke-linecap:square;stroke-linejoin:miter;stroke-width:0.8;"/>
   </g>
   <g id="patch_14">
    <path d="M 551.967188 361.651458 
L 551.967188 221.384792 
" style="fill:none;stroke:#000000;stroke-linecap:square;stroke-linejoin:miter;stroke-width:0.8;"/>
   </g>
   <g id="patch_15">
    <path d="M 405.742188 361.651458 
L 551.967188 361.651458 
" style="fill:none;stroke:#000000;stroke-linecap:square;stroke-linejoin:miter;stroke-width:0.8;"/>
   </g>
   <g id="patch_16">
    <path d="M 405.742188 221.384792 
L 551.967188 221.384792 
" style="fill:none;stroke:#000000;stroke-linecap:square;stroke-linejoin:miter;stroke-width:0.8;"/>
   </g>
   <g id="text_32">
    <!-- L1 Matched Points -->
    <g transform="translate(424.053125 201.947417)scale(0.12 -0.12)">
     <defs>
      <path d="M 628 4666 
L 1259 4666 
L 1259 531 
L 3531 531 
L 3531 0 
L 628 0 
L 628 4666 
z
" id="DejaVuSans-4c" transform="scale(0.015625)"/>
      <path d="M 628 4666 
L 1569 4666 
L 2759 1491 
L 3956 4666 
L 4897 4666 
L 4897 0 
L 4281 0 
L 4281 4097 
L 3078 897 
L 2444 897 
L 1241 4097 
L 1241 0 
L 628 0 
L 628 4666 
z
" id="DejaVuSans-4d" transform="scale(0.015625)"/>
      <path d="M 3513 2113 
L 3513 0 
L 2938 0 
L 2938 2094 
Q 2938 2591 2744 2837 
Q 2550 3084 2163 3084 
Q 1697 3084 1428 2787 
Q 1159 2491 1159 1978 
L 1159 0 
L 581 0 
L 581 4863 
L 1159 4863 
L 1159 2956 
Q 1366 3272 1645 3428 
Q 1925 3584 2291 3584 
Q 2894 3584 3203 3211 
Q 3513 2838 3513 2113 
z
" id="DejaVuSans-68" transform="scale(0.015625)"/>
      <path d="M 2906 2969 
L 2906 4863 
L 3481 4863 
L 3481 0 
L 2906 0 
L 2906 525 
Q 2725 213 2448 61 
Q 2172 -91 1784 -91 
Q 1150 -91 751 415 
Q 353 922 353 1747 
Q 353 2572 751 3078 
Q 1150 3584 1784 3584 
Q 2172 3584 2448 3432 
Q 2725 3281 2906 2969 
z
M 947 1747 
Q 947 1113 1208 752 
Q 1469 391 1925 391 
Q 2381 391 2643 752 
Q 2906 1113 2906 1747 
Q 2906 2381 2643 2742 
Q 2381 3103 1925 3103 
Q 1469 3103 1208 2742 
Q 947 2381 947 1747 
z
" id="DejaVuSans-64" transform="scale(0.015625)"/>
      <path d="M 1259 4147 
L 1259 2394 
L 2053 2394 
Q 2494 2394 2734 2622 
Q 2975 2850 2975 3272 
Q 2975 3691 2734 3919 
Q 2494 4147 2053 4147 
L 1259 4147 
z
M 628 4666 
L 2053 4666 
Q 2838 4666 3239 4311 
Q 3641 3956 3641 3272 
Q 3641 2581 3239 2228 
Q 2838 1875 2053 1875 
L 1259 1875 
L 1259 0 
L 628 0 
L 628 4666 
z
" id="DejaVuSans-50" transform="scale(0.015625)"/>
     </defs>
     <use xlink:href="#DejaVuSans-4c"/>
     <use x="55.712891" xlink:href="#DejaVuSans-31"/>
     <use x="119.335938" xlink:href="#DejaVuSans-20"/>
     <use x="151.123047" xlink:href="#DejaVuSans-4d"/>
     <use x="237.402344" xlink:href="#DejaVuSans-61"/>
     <use x="298.681641" xlink:href="#DejaVuSans-74"/>
     <use x="337.890625" xlink:href="#DejaVuSans-63"/>
     <use x="392.871094" xlink:href="#DejaVuSans-68"/>
     <use x="456.25" xlink:href="#DejaVuSans-65"/>
     <use x="517.773438" xlink:href="#DejaVuSans-64"/>
     <use x="581.25" xlink:href="#DejaVuSans-20"/>
     <use x="613.037109" xlink:href="#DejaVuSans-50"/>
     <use x="669.714844" xlink:href="#DejaVuSans-6f"/>
     <use x="730.896484" xlink:href="#DejaVuSans-69"/>
     <use x="758.679688" xlink:href="#DejaVuSans-6e"/>
     <use x="822.058594" xlink:href="#DejaVuSans-74"/>
     <use x="861.267578" xlink:href="#DejaVuSans-73"/>
    </g>
    <!--  L1 Cost=1.80 -->
    <g transform="translate(436.154375 215.384792)scale(0.12 -0.12)">
     <use xlink:href="#DejaVuSans-20"/>
     <use x="31.787109" xlink:href="#DejaVuSans-4c"/>
     <use x="87.5" xlink:href="#DejaVuSans-31"/>
     <use x="151.123047" xlink:href="#DejaVuSans-20"/>
     <use x="182.910156" xlink:href="#DejaVuSans-43"/>
     <use x="252.734375" xlink:href="#DejaVuSans-6f"/>
     <use x="313.916016" xlink:href="#DejaVuSans-73"/>
     <use x="366.015625" xlink:href="#DejaVuSans-74"/>
     <use x="405.224609" xlink:href="#DejaVuSans-3d"/>
     <use x="489.013672" xlink:href="#DejaVuSans-31"/>
     <use x="552.636719" xlink:href="#DejaVuSans-2e"/>
     <use x="584.423828" xlink:href="#DejaVuSans-38"/>
     <use x="648.046875" xlink:href="#DejaVuSans-30"/>
    </g>
   </g>
   <g id="PathCollection_10">
    <defs>
     <path d="M 0 2.236068 
C 0.593012 2.236068 1.161816 2.000462 1.581139 1.581139 
C 2.000462 1.161816 2.236068 0.593012 2.236068 0 
C 2.236068 -0.593012 2.000462 -1.161816 1.581139 -1.581139 
C 1.161816 -2.000462 0.593012 -2.236068 0 -2.236068 
C -0.593012 -2.236068 -1.161816 -2.000462 -1.581139 -1.581139 
C -2.000462 -1.161816 -2.236068 -0.593012 -2.236068 0 
C -2.236068 0.593012 -2.000462 1.161816 -1.581139 1.581139 
C -1.161816 2.000462 -0.593012 2.236068 0 2.236068 
z
" id="m1a0f514a76" style="stroke:#000000;"/>
    </defs>
    <g clip-path="url(#p91550a881c)">
     <use style="stroke:#000000;" x="412.388778" xlink:href="#m1a0f514a76" y="314.324021"/>
     <use style="stroke:#000000;" x="412.388778" xlink:href="#m1a0f514a76" y="315.500514"/>
    </g>
   </g>
   <g id="PathCollection_11">
    <g clip-path="url(#p91550a881c)">
     <use style="stroke:#000000;" x="434.544081" xlink:href="#m1a0f514a76" y="310.373725"/>
     <use style="stroke:#000000;" x="434.544081" xlink:href="#m1a0f514a76" y="313.320937"/>
    </g>
   </g>
   <g id="PathCollection_12">
    <g clip-path="url(#p91550a881c)">
     <use style="stroke:#000000;" x="456.699384" xlink:href="#m1a0f514a76" y="315.37616"/>
     <use style="stroke:#000000;" x="456.699384" xlink:href="#m1a0f514a76" y="317.038962"/>
    </g>
   </g>
   <g id="PathCollection_13">
    <g clip-path="url(#p91550a881c)">
     <use style="stroke:#000000;" x="478.854688" xlink:href="#m1a0f514a76" y="233.073681"/>
     <use style="stroke:#000000;" x="478.854688" xlink:href="#m1a0f514a76" y="240.850983"/>
    </g>
   </g>
   <g id="PathCollection_14">
    <g clip-path="url(#p91550a881c)">
     <use style="stroke:#000000;" x="501.009991" xlink:href="#m1a0f514a76" y="349.159001"/>
     <use style="stroke:#000000;" x="501.009991" xlink:href="#m1a0f514a76" y="349.962569"/>
    </g>
   </g>
   <g id="PathCollection_15">
    <g clip-path="url(#p91550a881c)">
     <use style="stroke:#000000;" x="523.165294" xlink:href="#m1a0f514a76" y="307.691019"/>
     <use style="stroke:#000000;" x="523.165294" xlink:href="#m1a0f514a76" y="301.295026"/>
    </g>
   </g>
   <g id="PathCollection_16">
    <g clip-path="url(#p91550a881c)">
     <use style="stroke:#000000;" x="545.320597" xlink:href="#m1a0f514a76" y="313.541229"/>
     <use style="stroke:#000000;" x="545.320597" xlink:href="#m1a0f514a76" y="313.263344"/>
    </g>
   </g>
  </g>
  <g id="axes_4">
   <g id="patch_17">
    <path d="M 28.942188 162.584792 
L 551.967188 162.584792 
L 551.967188 22.318125 
L 28.942188 22.318125 
z
" style="fill:#ffffff;"/>
   </g>
   <g id="matplotlib.axis_7">
    <g id="xtick_12">
     <g id="line2d_41">
      <g>
       <use style="stroke:#000000;stroke-width:0.8;" x="52.716051" xlink:href="#m424fb96701" y="162.584792"/>
      </g>
     </g>
     <g id="text_33">
      <!-- 0 -->
      <g transform="translate(49.534801 177.183229)scale(0.1 -0.1)">
       <use xlink:href="#DejaVuSans-30"/>
      </g>
     </g>
    </g>
    <g id="xtick_13">
     <g id="line2d_42">
      <g>
       <use style="stroke:#000000;stroke-width:0.8;" x="139.245127" xlink:href="#m424fb96701" y="162.584792"/>
      </g>
     </g>
     <g id="text_34">
      <!-- 200 -->
      <g transform="translate(129.701377 177.183229)scale(0.1 -0.1)">
       <use xlink:href="#DejaVuSans-32"/>
       <use x="63.623047" xlink:href="#DejaVuSans-30"/>
       <use x="127.246094" xlink:href="#DejaVuSans-30"/>
      </g>
     </g>
    </g>
    <g id="xtick_14">
     <g id="line2d_43">
      <g>
       <use style="stroke:#000000;stroke-width:0.8;" x="225.774203" xlink:href="#m424fb96701" y="162.584792"/>
      </g>
     </g>
     <g id="text_35">
      <!-- 400 -->
      <g transform="translate(216.230453 177.183229)scale(0.1 -0.1)">
       <use xlink:href="#DejaVuSans-34"/>
       <use x="63.623047" xlink:href="#DejaVuSans-30"/>
       <use x="127.246094" xlink:href="#DejaVuSans-30"/>
      </g>
     </g>
    </g>
    <g id="xtick_15">
     <g id="line2d_44">
      <g>
       <use style="stroke:#000000;stroke-width:0.8;" x="312.303279" xlink:href="#m424fb96701" y="162.584792"/>
      </g>
     </g>
     <g id="text_36">
      <!-- 600 -->
      <g transform="translate(302.759529 177.183229)scale(0.1 -0.1)">
       <use xlink:href="#DejaVuSans-36"/>
       <use x="63.623047" xlink:href="#DejaVuSans-30"/>
       <use x="127.246094" xlink:href="#DejaVuSans-30"/>
      </g>
     </g>
    </g>
    <g id="xtick_16">
     <g id="line2d_45">
      <g>
       <use style="stroke:#000000;stroke-width:0.8;" x="398.832355" xlink:href="#m424fb96701" y="162.584792"/>
      </g>
     </g>
     <g id="text_37">
      <!-- 800 -->
      <g transform="translate(389.288605 177.183229)scale(0.1 -0.1)">
       <use xlink:href="#DejaVuSans-38"/>
       <use x="63.623047" xlink:href="#DejaVuSans-30"/>
       <use x="127.246094" xlink:href="#DejaVuSans-30"/>
      </g>
     </g>
    </g>
    <g id="xtick_17">
     <g id="line2d_46">
      <g>
       <use style="stroke:#000000;stroke-width:0.8;" x="485.361431" xlink:href="#m424fb96701" y="162.584792"/>
      </g>
     </g>
     <g id="text_38">
      <!-- 1000 -->
      <g transform="translate(472.636431 177.183229)scale(0.1 -0.1)">
       <use xlink:href="#DejaVuSans-31"/>
       <use x="63.623047" xlink:href="#DejaVuSans-30"/>
       <use x="127.246094" xlink:href="#DejaVuSans-30"/>
       <use x="190.869141" xlink:href="#DejaVuSans-30"/>
      </g>
     </g>
    </g>
   </g>
   <g id="matplotlib.axis_8">
    <g id="ytick_19">
     <g id="line2d_47">
      <g>
       <use style="stroke:#000000;stroke-width:0.8;" x="28.942188" xlink:href="#m2e6cba04e2" y="159.808766"/>
      </g>
     </g>
     <g id="text_39">
      <!-- −4 -->
      <g transform="translate(7.2 163.607985)scale(0.1 -0.1)">
       <use xlink:href="#DejaVuSans-2212"/>
       <use x="83.789062" xlink:href="#DejaVuSans-34"/>
      </g>
     </g>
    </g>
    <g id="ytick_20">
     <g id="line2d_48">
      <g>
       <use style="stroke:#000000;stroke-width:0.8;" x="28.942188" xlink:href="#m2e6cba04e2" y="136.487463"/>
      </g>
     </g>
     <g id="text_40">
      <!-- −2 -->
      <g transform="translate(7.2 140.286681)scale(0.1 -0.1)">
       <use xlink:href="#DejaVuSans-2212"/>
       <use x="83.789062" xlink:href="#DejaVuSans-32"/>
      </g>
     </g>
    </g>
    <g id="ytick_21">
     <g id="line2d_49">
      <g>
       <use style="stroke:#000000;stroke-width:0.8;" x="28.942188" xlink:href="#m2e6cba04e2" y="113.166159"/>
      </g>
     </g>
     <g id="text_41">
      <!-- 0 -->
      <g transform="translate(15.579688 116.965378)scale(0.1 -0.1)">
       <use xlink:href="#DejaVuSans-30"/>
      </g>
     </g>
    </g>
    <g id="ytick_22">
     <g id="line2d_50">
      <g>
       <use style="stroke:#000000;stroke-width:0.8;" x="28.942188" xlink:href="#m2e6cba04e2" y="89.844856"/>
      </g>
     </g>
     <g id="text_42">
      <!-- 2 -->
      <g transform="translate(15.579688 93.644075)scale(0.1 -0.1)">
       <use xlink:href="#DejaVuSans-32"/>
      </g>
     </g>
    </g>
    <g id="ytick_23">
     <g id="line2d_51">
      <g>
       <use style="stroke:#000000;stroke-width:0.8;" x="28.942188" xlink:href="#m2e6cba04e2" y="66.523553"/>
      </g>
     </g>
     <g id="text_43">
      <!-- 4 -->
      <g transform="translate(15.579688 70.322771)scale(0.1 -0.1)">
       <use xlink:href="#DejaVuSans-34"/>
      </g>
     </g>
    </g>
    <g id="ytick_24">
     <g id="line2d_52">
      <g>
       <use style="stroke:#000000;stroke-width:0.8;" x="28.942188" xlink:href="#m2e6cba04e2" y="43.202249"/>
      </g>
     </g>
     <g id="text_44">
      <!-- 6 -->
      <g transform="translate(15.579688 47.001468)scale(0.1 -0.1)">
       <use xlink:href="#DejaVuSans-36"/>
      </g>
     </g>
    </g>
   </g>
   <g id="line2d_53">
    <path clip-path="url(#p1183575f3b)" d="M 52.716051 115.240934 
L 63.09954 115.171317 
L 70.454512 115.232694 
L 92.086781 115.029103 
L 95.547944 114.771392 
L 101.172334 114.12662 
L 108.09466 113.327982 
L 111.988468 113.100628 
L 116.747567 112.902228 
L 118.910794 112.612577 
L 125.83312 111.315498 
L 127.131057 111.348563 
L 128.861638 111.642709 
L 131.45751 112.371109 
L 134.486028 113.271723 
L 136.649255 113.58944 
L 139.677773 113.713969 
L 143.571581 113.87985 
L 152.224489 114.795918 
L 168.232368 116.150914 
L 175.154694 116.228406 
L 198.517544 116.115555 
L 204.57458 115.828913 
L 209.333679 115.792868 
L 212.362196 115.65332 
L 216.256005 115.197228 
L 217.986586 114.790074 
L 219.284522 114.225135 
L 220.582459 113.34192 
L 221.447749 112.476088 
L 222.31304 111.313463 
L 223.178331 109.825532 
L 224.043622 107.987575 
L 224.908912 105.711525 
L 226.206849 101.42365 
L 227.504785 96.133088 
L 228.802721 89.863817 
L 230.533302 80.168203 
L 233.56182 61.177361 
L 235.725047 48.014177 
L 237.022983 41.42292 
L 237.888274 37.966461 
L 238.753565 35.469256 
L 239.18621 34.650547 
L 239.618855 34.161038 
L 240.051501 34.007014 
L 240.484146 34.186878 
L 240.916791 34.710634 
L 241.349437 35.605034 
L 241.782082 36.891918 
L 242.214728 38.593269 
L 243.080018 43.421065 
L 243.945309 50.491946 
L 244.8106 60.142418 
L 246.108536 78.179349 
L 248.271763 108.619928 
L 249.569699 124.171898 
L 250.867635 136.972496 
L 251.732926 143.635142 
L 252.598217 148.193921 
L 253.030862 149.487389 
L 253.463508 150.092334 
L 253.896153 150.086964 
L 254.328798 149.615885 
L 255.194089 147.850516 
L 260.818479 133.948253 
L 262.54906 130.522042 
L 263.846997 128.459714 
L 265.144933 126.928929 
L 266.875514 125.32731 
L 268.606096 124.018896 
L 273.79784 120.681716 
L 276.826358 118.994388 
L 279.42223 117.790791 
L 281.585457 117.021641 
L 283.748684 116.522737 
L 286.777202 116.115966 
L 288.940429 115.995065 
L 299.323918 115.737664 
L 307.54418 115.429743 
L 326.580577 115.052408 
L 339.992584 114.383571 
L 346.482264 114.443372 
L 355.567817 114.669474 
L 360.326916 114.476083 
L 386.718285 113.229252 
L 396.669128 112.802384 
L 403.158809 112.228632 
L 408.783199 111.801381 
L 420.89727 111.005403 
L 425.656369 110.724288 
L 432.146049 110.289861 
L 436.905149 110.00632 
L 445.558056 109.597131 
L 452.047737 109.152021 
L 463.729162 108.644896 
L 468.055616 108.65474 
L 472.814715 108.952601 
L 478.439105 109.529891 
L 489.687885 110.929982 
L 498.340793 112.247418 
L 511.752799 113.647546 
L 520.405707 114.292931 
L 528.193324 114.474562 
L 528.193324 114.474562 
" style="fill:none;stroke:#1f77b4;stroke-linecap:square;stroke-width:1.5;"/>
   </g>
   <g id="line2d_54">
    <path clip-path="url(#p1183575f3b)" d="M 52.716051 115.625389 
L 60.936313 115.770164 
L 108.09466 116.721357 
L 110.690532 116.642424 
L 114.58434 116.237161 
L 120.20873 115.547437 
L 123.237248 115.40639 
L 130.159574 115.208055 
L 133.188092 114.823879 
L 138.379836 114.272569 
L 140.543063 114.286628 
L 144.869517 114.403712 
L 153.522425 114.387506 
L 159.146815 114.898641 
L 166.934431 115.719356 
L 174.722048 116.62306 
L 180.346438 117.408604 
L 184.240247 117.762156 
L 188.5667 117.962495 
L 192.460509 117.932489 
L 213.660133 117.379391 
L 218.419232 117.1731 
L 237.022983 116.326265 
L 239.18621 116.497339 
L 241.349437 116.817149 
L 242.647373 116.769254 
L 243.945309 116.463582 
L 245.243245 115.867253 
L 246.108536 115.295795 
L 246.973827 114.516067 
L 247.839118 113.46162 
L 248.704408 112.093123 
L 250.002344 109.607982 
L 251.300281 106.75634 
L 252.598217 103.258471 
L 253.896153 99.129548 
L 255.194089 94.236773 
L 256.492025 88.604316 
L 258.222607 80.025372 
L 260.818479 65.616843 
L 262.981706 54.090209 
L 264.279642 48.180976 
L 265.144933 45.092035 
L 266.010224 42.918242 
L 266.442869 42.223471 
L 266.875514 41.836882 
L 267.30816 41.784316 
L 267.740805 42.059971 
L 268.17345 42.645185 
L 269.038741 44.608156 
L 269.904032 47.518972 
L 270.769323 51.389458 
L 271.634613 56.260105 
L 272.93255 64.905912 
L 274.230486 74.967946 
L 275.961067 90.527608 
L 279.42223 122.398085 
L 280.720166 132.283968 
L 282.018103 140.566953 
L 282.883393 144.876942 
L 283.748684 148.021404 
L 284.613975 149.989293 
L 285.04662 150.539826 
L 285.479266 150.830255 
L 285.911911 150.895903 
L 286.344556 150.762397 
L 287.209847 150.021949 
L 288.075138 148.873364 
L 289.805719 146.012858 
L 291.536301 142.742981 
L 293.699528 137.88612 
L 295.430109 134.180196 
L 297.160691 131.083639 
L 298.891272 128.479611 
L 300.189209 126.967486 
L 301.487145 125.86604 
L 303.650372 124.492467 
L 305.813598 123.337041 
L 307.54418 122.659818 
L 312.303279 121.034651 
L 317.062378 120.112133 
L 322.254123 119.523274 
L 326.580577 119.257064 
L 343.021101 118.790697 
L 359.461626 117.547431 
L 366.383952 116.924286 
L 378.498022 116.072241 
L 386.285639 115.501057 
L 391.044738 114.943276 
L 397.967064 113.908932 
L 403.158809 112.900884 
L 409.64849 111.346174 
L 429.117532 106.2766 
L 436.472503 104.870311 
L 444.692766 103.639115 
L 453.778318 102.72504 
L 459.835354 102.414461 
L 467.190325 102.243343 
L 470.218843 102.417216 
L 474.112651 102.886863 
L 478.871751 103.697181 
L 484.063495 104.957048 
L 490.985821 107.02257 
L 498.340793 109.258242 
L 502.234601 110.227663 
L 509.589573 111.798176 
L 513.483381 112.492782 
L 519.107771 113.238242 
L 528.193324 114.196677 
L 528.193324 114.196677 
" style="fill:none;stroke:#ff7f0e;stroke-linecap:square;stroke-width:1.5;"/>
   </g>
   <g id="line2d_55">
    <path clip-path="url(#p1183575f3b)" d="M 66.993349 115.257354 
L 89.490908 116.433848 
" style="fill:none;stroke:#000000;stroke-dasharray:5.55,2.4;stroke-dashoffset:0;stroke-width:1.5;"/>
   </g>
   <g id="line2d_56">
    <path clip-path="url(#p1183575f3b)" d="M 126.265766 111.307058 
L 139.245127 114.25427 
" style="fill:none;stroke:#000000;stroke-dasharray:5.55,2.4;stroke-dashoffset:0;stroke-width:1.5;"/>
   </g>
   <g id="line2d_57">
    <path clip-path="url(#p1183575f3b)" d="M 192.893154 116.309493 
L 189.431991 117.972295 
" style="fill:none;stroke:#000000;stroke-dasharray:5.55,2.4;stroke-dashoffset:0;stroke-width:1.5;"/>
   </g>
   <g id="line2d_58">
    <path clip-path="url(#p1183575f3b)" d="M 240.051501 34.007014 
L 267.30816 41.784316 
" style="fill:none;stroke:#000000;stroke-dasharray:5.55,2.4;stroke-dashoffset:0;stroke-width:1.5;"/>
   </g>
   <g id="line2d_59">
    <path clip-path="url(#p1183575f3b)" d="M 253.463508 150.092334 
L 285.911911 150.895903 
" style="fill:none;stroke:#000000;stroke-dasharray:5.55,2.4;stroke-dashoffset:0;stroke-width:1.5;"/>
   </g>
   <g id="line2d_60">
    <path clip-path="url(#p1183575f3b)" d="M 466.325035 108.624352 
L 466.325035 102.228359 
" style="fill:none;stroke:#000000;stroke-dasharray:5.55,2.4;stroke-dashoffset:0;stroke-width:1.5;"/>
   </g>
   <g id="line2d_61">
    <path clip-path="url(#p1183575f3b)" d="M 528.193324 114.474562 
L 528.193324 114.196677 
" style="fill:none;stroke:#000000;stroke-dasharray:5.55,2.4;stroke-dashoffset:0;stroke-width:1.5;"/>
   </g>
   <g id="patch_18">
    <path d="M 28.942188 162.584792 
L 28.942188 22.318125 
" style="fill:none;stroke:#000000;stroke-linecap:square;stroke-linejoin:miter;stroke-width:0.8;"/>
   </g>
   <g id="patch_19">
    <path d="M 551.967188 162.584792 
L 551.967188 22.318125 
" style="fill:none;stroke:#000000;stroke-linecap:square;stroke-linejoin:miter;stroke-width:0.8;"/>
   </g>
   <g id="patch_20">
    <path d="M 28.942188 162.584792 
L 551.967187 162.584792 
" style="fill:none;stroke:#000000;stroke-linecap:square;stroke-linejoin:miter;stroke-width:0.8;"/>
   </g>
   <g id="patch_21">
    <path d="M 28.942188 22.318125 
L 551.967187 22.318125 
" style="fill:none;stroke:#000000;stroke-linecap:square;stroke-linejoin:miter;stroke-width:0.8;"/>
   </g>
   <g id="text_45">
    <!-- CinCECGtorso Time Series, Dope Cost: 1.93 -->
    <g transform="translate(159.604062 16.318125)scale(0.12 -0.12)">
     <defs>
      <path d="M 628 4666 
L 3578 4666 
L 3578 4134 
L 1259 4134 
L 1259 2753 
L 3481 2753 
L 3481 2222 
L 1259 2222 
L 1259 531 
L 3634 531 
L 3634 0 
L 628 0 
L 628 4666 
z
" id="DejaVuSans-45" transform="scale(0.015625)"/>
      <path d="M 3809 666 
L 3809 1919 
L 2778 1919 
L 2778 2438 
L 4434 2438 
L 4434 434 
Q 4069 175 3628 42 
Q 3188 -91 2688 -91 
Q 1594 -91 976 548 
Q 359 1188 359 2328 
Q 359 3472 976 4111 
Q 1594 4750 2688 4750 
Q 3144 4750 3555 4637 
Q 3966 4525 4313 4306 
L 4313 3634 
Q 3963 3931 3569 4081 
Q 3175 4231 2741 4231 
Q 1884 4231 1454 3753 
Q 1025 3275 1025 2328 
Q 1025 1384 1454 906 
Q 1884 428 2741 428 
Q 3075 428 3337 486 
Q 3600 544 3809 666 
z
" id="DejaVuSans-47" transform="scale(0.015625)"/>
      <path d="M -19 4666 
L 3928 4666 
L 3928 4134 
L 2272 4134 
L 2272 0 
L 1638 0 
L 1638 4134 
L -19 4134 
L -19 4666 
z
" id="DejaVuSans-54" transform="scale(0.015625)"/>
      <path d="M 3328 2828 
Q 3544 3216 3844 3400 
Q 4144 3584 4550 3584 
Q 5097 3584 5394 3201 
Q 5691 2819 5691 2113 
L 5691 0 
L 5113 0 
L 5113 2094 
Q 5113 2597 4934 2840 
Q 4756 3084 4391 3084 
Q 3944 3084 3684 2787 
Q 3425 2491 3425 1978 
L 3425 0 
L 2847 0 
L 2847 2094 
Q 2847 2600 2669 2842 
Q 2491 3084 2119 3084 
Q 1678 3084 1418 2786 
Q 1159 2488 1159 1978 
L 1159 0 
L 581 0 
L 581 3500 
L 1159 3500 
L 1159 2956 
Q 1356 3278 1631 3431 
Q 1906 3584 2284 3584 
Q 2666 3584 2933 3390 
Q 3200 3197 3328 2828 
z
" id="DejaVuSans-6d" transform="scale(0.015625)"/>
      <path d="M 3425 4513 
L 3425 3897 
Q 3066 4069 2747 4153 
Q 2428 4238 2131 4238 
Q 1616 4238 1336 4038 
Q 1056 3838 1056 3469 
Q 1056 3159 1242 3001 
Q 1428 2844 1947 2747 
L 2328 2669 
Q 3034 2534 3370 2195 
Q 3706 1856 3706 1288 
Q 3706 609 3251 259 
Q 2797 -91 1919 -91 
Q 1588 -91 1214 -16 
Q 841 59 441 206 
L 441 856 
Q 825 641 1194 531 
Q 1563 422 1919 422 
Q 2459 422 2753 634 
Q 3047 847 3047 1241 
Q 3047 1584 2836 1778 
Q 2625 1972 2144 2069 
L 1759 2144 
Q 1053 2284 737 2584 
Q 422 2884 422 3419 
Q 422 4038 858 4394 
Q 1294 4750 2059 4750 
Q 2388 4750 2728 4690 
Q 3069 4631 3425 4513 
z
" id="DejaVuSans-53" transform="scale(0.015625)"/>
      <path d="M 750 794 
L 1409 794 
L 1409 256 
L 897 -744 
L 494 -744 
L 750 256 
L 750 794 
z
" id="DejaVuSans-2c" transform="scale(0.015625)"/>
      <path d="M 750 794 
L 1409 794 
L 1409 0 
L 750 0 
L 750 794 
z
M 750 3309 
L 1409 3309 
L 1409 2516 
L 750 2516 
L 750 3309 
z
" id="DejaVuSans-3a" transform="scale(0.015625)"/>
      <path d="M 703 97 
L 703 672 
Q 941 559 1184 500 
Q 1428 441 1663 441 
Q 2288 441 2617 861 
Q 2947 1281 2994 2138 
Q 2813 1869 2534 1725 
Q 2256 1581 1919 1581 
Q 1219 1581 811 2004 
Q 403 2428 403 3163 
Q 403 3881 828 4315 
Q 1253 4750 1959 4750 
Q 2769 4750 3195 4129 
Q 3622 3509 3622 2328 
Q 3622 1225 3098 567 
Q 2575 -91 1691 -91 
Q 1453 -91 1209 -44 
Q 966 3 703 97 
z
M 1959 2075 
Q 2384 2075 2632 2365 
Q 2881 2656 2881 3163 
Q 2881 3666 2632 3958 
Q 2384 4250 1959 4250 
Q 1534 4250 1286 3958 
Q 1038 3666 1038 3163 
Q 1038 2656 1286 2365 
Q 1534 2075 1959 2075 
z
" id="DejaVuSans-39" transform="scale(0.015625)"/>
     </defs>
     <use xlink:href="#DejaVuSans-43"/>
     <use x="69.824219" xlink:href="#DejaVuSans-69"/>
     <use x="97.607422" xlink:href="#DejaVuSans-6e"/>
     <use x="160.986328" xlink:href="#DejaVuSans-43"/>
     <use x="230.810547" xlink:href="#DejaVuSans-45"/>
     <use x="293.994141" xlink:href="#DejaVuSans-43"/>
     <use x="363.818359" xlink:href="#DejaVuSans-47"/>
     <use x="441.308594" xlink:href="#DejaVuSans-74"/>
     <use x="480.517578" xlink:href="#DejaVuSans-6f"/>
     <use x="541.699219" xlink:href="#DejaVuSans-72"/>
     <use x="582.8125" xlink:href="#DejaVuSans-73"/>
     <use x="634.912109" xlink:href="#DejaVuSans-6f"/>
     <use x="696.09375" xlink:href="#DejaVuSans-20"/>
     <use x="727.880859" xlink:href="#DejaVuSans-54"/>
     <use x="785.839844" xlink:href="#DejaVuSans-69"/>
     <use x="813.623047" xlink:href="#DejaVuSans-6d"/>
     <use x="911.035156" xlink:href="#DejaVuSans-65"/>
     <use x="972.558594" xlink:href="#DejaVuSans-20"/>
     <use x="1004.345703" xlink:href="#DejaVuSans-53"/>
     <use x="1067.822266" xlink:href="#DejaVuSans-65"/>
     <use x="1129.345703" xlink:href="#DejaVuSans-72"/>
     <use x="1170.458984" xlink:href="#DejaVuSans-69"/>
     <use x="1198.242188" xlink:href="#DejaVuSans-65"/>
     <use x="1259.765625" xlink:href="#DejaVuSans-73"/>
     <use x="1311.865234" xlink:href="#DejaVuSans-2c"/>
     <use x="1343.652344" xlink:href="#DejaVuSans-20"/>
     <use x="1375.439453" xlink:href="#DejaVuSans-44"/>
     <use x="1452.441406" xlink:href="#DejaVuSans-6f"/>
     <use x="1513.623047" xlink:href="#DejaVuSans-70"/>
     <use x="1577.099609" xlink:href="#DejaVuSans-65"/>
     <use x="1638.623047" xlink:href="#DejaVuSans-20"/>
     <use x="1670.410156" xlink:href="#DejaVuSans-43"/>
     <use x="1740.234375" xlink:href="#DejaVuSans-6f"/>
     <use x="1801.416016" xlink:href="#DejaVuSans-73"/>
     <use x="1853.515625" xlink:href="#DejaVuSans-74"/>
     <use x="1892.724609" xlink:href="#DejaVuSans-3a"/>
     <use x="1926.416016" xlink:href="#DejaVuSans-20"/>
     <use x="1958.203125" xlink:href="#DejaVuSans-31"/>
     <use x="2021.826172" xlink:href="#DejaVuSans-2e"/>
     <use x="2053.613281" xlink:href="#DejaVuSans-39"/>
     <use x="2117.236328" xlink:href="#DejaVuSans-33"/>
    </g>
   </g>
   <g id="legend_1">
    <g id="patch_22">
     <path d="M 507.048437 59.674375 
L 544.967188 59.674375 
Q 546.967188 59.674375 546.967188 57.674375 
L 546.967188 29.318125 
Q 546.967188 27.318125 544.967188 27.318125 
L 507.048437 27.318125 
Q 505.048437 27.318125 505.048437 29.318125 
L 505.048437 57.674375 
Q 505.048437 59.674375 507.048437 59.674375 
z
" style="fill:#ffffff;opacity:0.8;stroke:#cccccc;stroke-linejoin:miter;"/>
    </g>
    <g id="line2d_62">
     <path d="M 509.048437 35.416562 
L 529.048437 35.416562 
" style="fill:none;stroke:#1f77b4;stroke-linecap:square;stroke-width:1.5;"/>
    </g>
    <g id="line2d_63"/>
    <g id="text_46">
     <!-- x -->
     <g transform="translate(537.048437 38.916562)scale(0.1 -0.1)">
      <use xlink:href="#DejaVuSans-78"/>
     </g>
    </g>
    <g id="line2d_64">
     <path d="M 509.048437 50.094687 
L 529.048437 50.094687 
" style="fill:none;stroke:#ff7f0e;stroke-linecap:square;stroke-width:1.5;"/>
    </g>
    <g id="line2d_65"/>
    <g id="text_47">
     <!-- y -->
     <g transform="translate(537.048437 53.594687)scale(0.1 -0.1)">
      <use xlink:href="#DejaVuSans-79"/>
     </g>
    </g>
   </g>
   <g id="PathCollection_17">
    <g clip-path="url(#p1183575f3b)">
     <use style="stroke:#000000;" x="66.993349" xlink:href="#m1a0f514a76" y="115.257354"/>
     <use style="stroke:#000000;" x="89.490908" xlink:href="#m1a0f514a76" y="116.433848"/>
    </g>
   </g>
   <g id="PathCollection_18">
    <g clip-path="url(#p1183575f3b)">
     <use style="stroke:#000000;" x="126.265766" xlink:href="#m1a0f514a76" y="111.307058"/>
     <use style="stroke:#000000;" x="139.245127" xlink:href="#m1a0f514a76" y="114.25427"/>
    </g>
   </g>
   <g id="PathCollection_19">
    <g clip-path="url(#p1183575f3b)">
     <use style="stroke:#000000;" x="192.893154" xlink:href="#m1a0f514a76" y="116.309493"/>
     <use style="stroke:#000000;" x="189.431991" xlink:href="#m1a0f514a76" y="117.972295"/>
    </g>
   </g>
   <g id="PathCollection_20">
    <g clip-path="url(#p1183575f3b)">
     <use style="stroke:#000000;" x="240.051501" xlink:href="#m1a0f514a76" y="34.007014"/>
     <use style="stroke:#000000;" x="267.30816" xlink:href="#m1a0f514a76" y="41.784316"/>
    </g>
   </g>
   <g id="PathCollection_21">
    <g clip-path="url(#p1183575f3b)">
     <use style="stroke:#000000;" x="253.463508" xlink:href="#m1a0f514a76" y="150.092334"/>
     <use style="stroke:#000000;" x="285.911911" xlink:href="#m1a0f514a76" y="150.895903"/>
    </g>
   </g>
   <g id="PathCollection_22">
    <g clip-path="url(#p1183575f3b)">
     <use style="stroke:#000000;" x="466.325035" xlink:href="#m1a0f514a76" y="108.624352"/>
     <use style="stroke:#000000;" x="466.325035" xlink:href="#m1a0f514a76" y="102.228359"/>
    </g>
   </g>
   <g id="PathCollection_23">
    <g clip-path="url(#p1183575f3b)">
     <use style="stroke:#000000;" x="528.193324" xlink:href="#m1a0f514a76" y="114.474562"/>
     <use style="stroke:#000000;" x="528.193324" xlink:href="#m1a0f514a76" y="114.196677"/>
    </g>
   </g>
  </g>
 </g>
 <defs>
  <clipPath id="p27cd16dafe">
   <rect height="140.266667" width="146.225" x="28.942188" y="221.384792"/>
  </clipPath>
  <clipPath id="pe5d200bede">
   <rect height="140.266667" width="146.225" x="217.342188" y="221.384792"/>
  </clipPath>
  <clipPath id="p91550a881c">
   <rect height="140.266667" width="146.225" x="405.742188" y="221.384792"/>
  </clipPath>
  <clipPath id="p1183575f3b">
   <rect height="140.266667" width="523.025" x="28.942188" y="22.318125"/>
  </clipPath>
 </defs>
</svg>
